G04 #@! TF.GenerationSoftware,KiCad,Pcbnew,(5.1.5)-3*
G04 #@! TF.CreationDate,2020-06-01T17:25:31+02:00*
G04 #@! TF.ProjectId,aurduino_ng,61757264-7569-46e6-9f5f-6e672e6b6963,rev?*
G04 #@! TF.SameCoordinates,Original*
G04 #@! TF.FileFunction,Soldermask,Bot*
G04 #@! TF.FilePolarity,Negative*
%FSLAX46Y46*%
G04 Gerber Fmt 4.6, Leading zero omitted, Abs format (unit mm)*
G04 Created by KiCad (PCBNEW (5.1.5)-3) date 2020-06-01 17:25:31*
%MOMM*%
%LPD*%
G04 APERTURE LIST*
%ADD10C,0.100000*%
G04 APERTURE END LIST*
D10*
G36*
X150253000Y-135521000D02*
G01*
X148451000Y-135521000D01*
X148451000Y-133719000D01*
X150253000Y-133719000D01*
X150253000Y-135521000D01*
G37*
G36*
X169023512Y-133723927D02*
G01*
X169172812Y-133753624D01*
X169336784Y-133821544D01*
X169484354Y-133920147D01*
X169609853Y-134045646D01*
X169708456Y-134193216D01*
X169776376Y-134357188D01*
X169811000Y-134531259D01*
X169811000Y-134708741D01*
X169776376Y-134882812D01*
X169708456Y-135046784D01*
X169609853Y-135194354D01*
X169484354Y-135319853D01*
X169336784Y-135418456D01*
X169172812Y-135486376D01*
X169023512Y-135516073D01*
X168998742Y-135521000D01*
X168821258Y-135521000D01*
X168796488Y-135516073D01*
X168647188Y-135486376D01*
X168483216Y-135418456D01*
X168335646Y-135319853D01*
X168210147Y-135194354D01*
X168111544Y-135046784D01*
X168043624Y-134882812D01*
X168009000Y-134708741D01*
X168009000Y-134531259D01*
X168043624Y-134357188D01*
X168111544Y-134193216D01*
X168210147Y-134045646D01*
X168335646Y-133920147D01*
X168483216Y-133821544D01*
X168647188Y-133753624D01*
X168796488Y-133723927D01*
X168821258Y-133719000D01*
X168998742Y-133719000D01*
X169023512Y-133723927D01*
G37*
G36*
X136765512Y-133723927D02*
G01*
X136914812Y-133753624D01*
X137078784Y-133821544D01*
X137226354Y-133920147D01*
X137351853Y-134045646D01*
X137450456Y-134193216D01*
X137518376Y-134357188D01*
X137553000Y-134531259D01*
X137553000Y-134708741D01*
X137518376Y-134882812D01*
X137450456Y-135046784D01*
X137351853Y-135194354D01*
X137226354Y-135319853D01*
X137078784Y-135418456D01*
X136914812Y-135486376D01*
X136765512Y-135516073D01*
X136740742Y-135521000D01*
X136563258Y-135521000D01*
X136538488Y-135516073D01*
X136389188Y-135486376D01*
X136225216Y-135418456D01*
X136077646Y-135319853D01*
X135952147Y-135194354D01*
X135853544Y-135046784D01*
X135785624Y-134882812D01*
X135751000Y-134708741D01*
X135751000Y-134531259D01*
X135785624Y-134357188D01*
X135853544Y-134193216D01*
X135952147Y-134045646D01*
X136077646Y-133920147D01*
X136225216Y-133821544D01*
X136389188Y-133753624D01*
X136538488Y-133723927D01*
X136563258Y-133719000D01*
X136740742Y-133719000D01*
X136765512Y-133723927D01*
G37*
G36*
X139305512Y-133723927D02*
G01*
X139454812Y-133753624D01*
X139618784Y-133821544D01*
X139766354Y-133920147D01*
X139891853Y-134045646D01*
X139990456Y-134193216D01*
X140058376Y-134357188D01*
X140093000Y-134531259D01*
X140093000Y-134708741D01*
X140058376Y-134882812D01*
X139990456Y-135046784D01*
X139891853Y-135194354D01*
X139766354Y-135319853D01*
X139618784Y-135418456D01*
X139454812Y-135486376D01*
X139305512Y-135516073D01*
X139280742Y-135521000D01*
X139103258Y-135521000D01*
X139078488Y-135516073D01*
X138929188Y-135486376D01*
X138765216Y-135418456D01*
X138617646Y-135319853D01*
X138492147Y-135194354D01*
X138393544Y-135046784D01*
X138325624Y-134882812D01*
X138291000Y-134708741D01*
X138291000Y-134531259D01*
X138325624Y-134357188D01*
X138393544Y-134193216D01*
X138492147Y-134045646D01*
X138617646Y-133920147D01*
X138765216Y-133821544D01*
X138929188Y-133753624D01*
X139078488Y-133723927D01*
X139103258Y-133719000D01*
X139280742Y-133719000D01*
X139305512Y-133723927D01*
G37*
G36*
X141845512Y-133723927D02*
G01*
X141994812Y-133753624D01*
X142158784Y-133821544D01*
X142306354Y-133920147D01*
X142431853Y-134045646D01*
X142530456Y-134193216D01*
X142598376Y-134357188D01*
X142633000Y-134531259D01*
X142633000Y-134708741D01*
X142598376Y-134882812D01*
X142530456Y-135046784D01*
X142431853Y-135194354D01*
X142306354Y-135319853D01*
X142158784Y-135418456D01*
X141994812Y-135486376D01*
X141845512Y-135516073D01*
X141820742Y-135521000D01*
X141643258Y-135521000D01*
X141618488Y-135516073D01*
X141469188Y-135486376D01*
X141305216Y-135418456D01*
X141157646Y-135319853D01*
X141032147Y-135194354D01*
X140933544Y-135046784D01*
X140865624Y-134882812D01*
X140831000Y-134708741D01*
X140831000Y-134531259D01*
X140865624Y-134357188D01*
X140933544Y-134193216D01*
X141032147Y-134045646D01*
X141157646Y-133920147D01*
X141305216Y-133821544D01*
X141469188Y-133753624D01*
X141618488Y-133723927D01*
X141643258Y-133719000D01*
X141820742Y-133719000D01*
X141845512Y-133723927D01*
G37*
G36*
X154571000Y-135521000D02*
G01*
X152769000Y-135521000D01*
X152769000Y-133719000D01*
X154571000Y-133719000D01*
X154571000Y-135521000D01*
G37*
G36*
X156323512Y-133723927D02*
G01*
X156472812Y-133753624D01*
X156636784Y-133821544D01*
X156784354Y-133920147D01*
X156909853Y-134045646D01*
X157008456Y-134193216D01*
X157076376Y-134357188D01*
X157111000Y-134531259D01*
X157111000Y-134708741D01*
X157076376Y-134882812D01*
X157008456Y-135046784D01*
X156909853Y-135194354D01*
X156784354Y-135319853D01*
X156636784Y-135418456D01*
X156472812Y-135486376D01*
X156323512Y-135516073D01*
X156298742Y-135521000D01*
X156121258Y-135521000D01*
X156096488Y-135516073D01*
X155947188Y-135486376D01*
X155783216Y-135418456D01*
X155635646Y-135319853D01*
X155510147Y-135194354D01*
X155411544Y-135046784D01*
X155343624Y-134882812D01*
X155309000Y-134708741D01*
X155309000Y-134531259D01*
X155343624Y-134357188D01*
X155411544Y-134193216D01*
X155510147Y-134045646D01*
X155635646Y-133920147D01*
X155783216Y-133821544D01*
X155947188Y-133753624D01*
X156096488Y-133723927D01*
X156121258Y-133719000D01*
X156298742Y-133719000D01*
X156323512Y-133723927D01*
G37*
G36*
X158863512Y-133723927D02*
G01*
X159012812Y-133753624D01*
X159176784Y-133821544D01*
X159324354Y-133920147D01*
X159449853Y-134045646D01*
X159548456Y-134193216D01*
X159616376Y-134357188D01*
X159651000Y-134531259D01*
X159651000Y-134708741D01*
X159616376Y-134882812D01*
X159548456Y-135046784D01*
X159449853Y-135194354D01*
X159324354Y-135319853D01*
X159176784Y-135418456D01*
X159012812Y-135486376D01*
X158863512Y-135516073D01*
X158838742Y-135521000D01*
X158661258Y-135521000D01*
X158636488Y-135516073D01*
X158487188Y-135486376D01*
X158323216Y-135418456D01*
X158175646Y-135319853D01*
X158050147Y-135194354D01*
X157951544Y-135046784D01*
X157883624Y-134882812D01*
X157849000Y-134708741D01*
X157849000Y-134531259D01*
X157883624Y-134357188D01*
X157951544Y-134193216D01*
X158050147Y-134045646D01*
X158175646Y-133920147D01*
X158323216Y-133821544D01*
X158487188Y-133753624D01*
X158636488Y-133723927D01*
X158661258Y-133719000D01*
X158838742Y-133719000D01*
X158863512Y-133723927D01*
G37*
G36*
X161403512Y-133723927D02*
G01*
X161552812Y-133753624D01*
X161716784Y-133821544D01*
X161864354Y-133920147D01*
X161989853Y-134045646D01*
X162088456Y-134193216D01*
X162156376Y-134357188D01*
X162191000Y-134531259D01*
X162191000Y-134708741D01*
X162156376Y-134882812D01*
X162088456Y-135046784D01*
X161989853Y-135194354D01*
X161864354Y-135319853D01*
X161716784Y-135418456D01*
X161552812Y-135486376D01*
X161403512Y-135516073D01*
X161378742Y-135521000D01*
X161201258Y-135521000D01*
X161176488Y-135516073D01*
X161027188Y-135486376D01*
X160863216Y-135418456D01*
X160715646Y-135319853D01*
X160590147Y-135194354D01*
X160491544Y-135046784D01*
X160423624Y-134882812D01*
X160389000Y-134708741D01*
X160389000Y-134531259D01*
X160423624Y-134357188D01*
X160491544Y-134193216D01*
X160590147Y-134045646D01*
X160715646Y-133920147D01*
X160863216Y-133821544D01*
X161027188Y-133753624D01*
X161176488Y-133723927D01*
X161201258Y-133719000D01*
X161378742Y-133719000D01*
X161403512Y-133723927D01*
G37*
G36*
X163943512Y-133723927D02*
G01*
X164092812Y-133753624D01*
X164256784Y-133821544D01*
X164404354Y-133920147D01*
X164529853Y-134045646D01*
X164628456Y-134193216D01*
X164696376Y-134357188D01*
X164731000Y-134531259D01*
X164731000Y-134708741D01*
X164696376Y-134882812D01*
X164628456Y-135046784D01*
X164529853Y-135194354D01*
X164404354Y-135319853D01*
X164256784Y-135418456D01*
X164092812Y-135486376D01*
X163943512Y-135516073D01*
X163918742Y-135521000D01*
X163741258Y-135521000D01*
X163716488Y-135516073D01*
X163567188Y-135486376D01*
X163403216Y-135418456D01*
X163255646Y-135319853D01*
X163130147Y-135194354D01*
X163031544Y-135046784D01*
X162963624Y-134882812D01*
X162929000Y-134708741D01*
X162929000Y-134531259D01*
X162963624Y-134357188D01*
X163031544Y-134193216D01*
X163130147Y-134045646D01*
X163255646Y-133920147D01*
X163403216Y-133821544D01*
X163567188Y-133753624D01*
X163716488Y-133723927D01*
X163741258Y-133719000D01*
X163918742Y-133719000D01*
X163943512Y-133723927D01*
G37*
G36*
X166483512Y-133723927D02*
G01*
X166632812Y-133753624D01*
X166796784Y-133821544D01*
X166944354Y-133920147D01*
X167069853Y-134045646D01*
X167168456Y-134193216D01*
X167236376Y-134357188D01*
X167271000Y-134531259D01*
X167271000Y-134708741D01*
X167236376Y-134882812D01*
X167168456Y-135046784D01*
X167069853Y-135194354D01*
X166944354Y-135319853D01*
X166796784Y-135418456D01*
X166632812Y-135486376D01*
X166483512Y-135516073D01*
X166458742Y-135521000D01*
X166281258Y-135521000D01*
X166256488Y-135516073D01*
X166107188Y-135486376D01*
X165943216Y-135418456D01*
X165795646Y-135319853D01*
X165670147Y-135194354D01*
X165571544Y-135046784D01*
X165503624Y-134882812D01*
X165469000Y-134708741D01*
X165469000Y-134531259D01*
X165503624Y-134357188D01*
X165571544Y-134193216D01*
X165670147Y-134045646D01*
X165795646Y-133920147D01*
X165943216Y-133821544D01*
X166107188Y-133753624D01*
X166256488Y-133723927D01*
X166281258Y-133719000D01*
X166458742Y-133719000D01*
X166483512Y-133723927D01*
G37*
G36*
X171563512Y-133723927D02*
G01*
X171712812Y-133753624D01*
X171876784Y-133821544D01*
X172024354Y-133920147D01*
X172149853Y-134045646D01*
X172248456Y-134193216D01*
X172316376Y-134357188D01*
X172351000Y-134531259D01*
X172351000Y-134708741D01*
X172316376Y-134882812D01*
X172248456Y-135046784D01*
X172149853Y-135194354D01*
X172024354Y-135319853D01*
X171876784Y-135418456D01*
X171712812Y-135486376D01*
X171563512Y-135516073D01*
X171538742Y-135521000D01*
X171361258Y-135521000D01*
X171336488Y-135516073D01*
X171187188Y-135486376D01*
X171023216Y-135418456D01*
X170875646Y-135319853D01*
X170750147Y-135194354D01*
X170651544Y-135046784D01*
X170583624Y-134882812D01*
X170549000Y-134708741D01*
X170549000Y-134531259D01*
X170583624Y-134357188D01*
X170651544Y-134193216D01*
X170750147Y-134045646D01*
X170875646Y-133920147D01*
X171023216Y-133821544D01*
X171187188Y-133753624D01*
X171336488Y-133723927D01*
X171361258Y-133719000D01*
X171538742Y-133719000D01*
X171563512Y-133723927D01*
G37*
G36*
X144385512Y-133723927D02*
G01*
X144534812Y-133753624D01*
X144698784Y-133821544D01*
X144846354Y-133920147D01*
X144971853Y-134045646D01*
X145070456Y-134193216D01*
X145138376Y-134357188D01*
X145173000Y-134531259D01*
X145173000Y-134708741D01*
X145138376Y-134882812D01*
X145070456Y-135046784D01*
X144971853Y-135194354D01*
X144846354Y-135319853D01*
X144698784Y-135418456D01*
X144534812Y-135486376D01*
X144385512Y-135516073D01*
X144360742Y-135521000D01*
X144183258Y-135521000D01*
X144158488Y-135516073D01*
X144009188Y-135486376D01*
X143845216Y-135418456D01*
X143697646Y-135319853D01*
X143572147Y-135194354D01*
X143473544Y-135046784D01*
X143405624Y-134882812D01*
X143371000Y-134708741D01*
X143371000Y-134531259D01*
X143405624Y-134357188D01*
X143473544Y-134193216D01*
X143572147Y-134045646D01*
X143697646Y-133920147D01*
X143845216Y-133821544D01*
X144009188Y-133753624D01*
X144158488Y-133723927D01*
X144183258Y-133719000D01*
X144360742Y-133719000D01*
X144385512Y-133723927D01*
G37*
G36*
X146925512Y-133723927D02*
G01*
X147074812Y-133753624D01*
X147238784Y-133821544D01*
X147386354Y-133920147D01*
X147511853Y-134045646D01*
X147610456Y-134193216D01*
X147678376Y-134357188D01*
X147713000Y-134531259D01*
X147713000Y-134708741D01*
X147678376Y-134882812D01*
X147610456Y-135046784D01*
X147511853Y-135194354D01*
X147386354Y-135319853D01*
X147238784Y-135418456D01*
X147074812Y-135486376D01*
X146925512Y-135516073D01*
X146900742Y-135521000D01*
X146723258Y-135521000D01*
X146698488Y-135516073D01*
X146549188Y-135486376D01*
X146385216Y-135418456D01*
X146237646Y-135319853D01*
X146112147Y-135194354D01*
X146013544Y-135046784D01*
X145945624Y-134882812D01*
X145911000Y-134708741D01*
X145911000Y-134531259D01*
X145945624Y-134357188D01*
X146013544Y-134193216D01*
X146112147Y-134045646D01*
X146237646Y-133920147D01*
X146385216Y-133821544D01*
X146549188Y-133753624D01*
X146698488Y-133723927D01*
X146723258Y-133719000D01*
X146900742Y-133719000D01*
X146925512Y-133723927D01*
G37*
G36*
X171952228Y-126181703D02*
G01*
X172107100Y-126245853D01*
X172246481Y-126338985D01*
X172365015Y-126457519D01*
X172458147Y-126596900D01*
X172522297Y-126751772D01*
X172555000Y-126916184D01*
X172555000Y-127083816D01*
X172522297Y-127248228D01*
X172458147Y-127403100D01*
X172365015Y-127542481D01*
X172246481Y-127661015D01*
X172107100Y-127754147D01*
X171952228Y-127818297D01*
X171787816Y-127851000D01*
X171620184Y-127851000D01*
X171455772Y-127818297D01*
X171300900Y-127754147D01*
X171161519Y-127661015D01*
X171042985Y-127542481D01*
X170949853Y-127403100D01*
X170885703Y-127248228D01*
X170853000Y-127083816D01*
X170853000Y-126916184D01*
X170885703Y-126751772D01*
X170949853Y-126596900D01*
X171042985Y-126457519D01*
X171161519Y-126338985D01*
X171300900Y-126245853D01*
X171455772Y-126181703D01*
X171620184Y-126149000D01*
X171787816Y-126149000D01*
X171952228Y-126181703D01*
G37*
G36*
X142075000Y-127851000D02*
G01*
X140373000Y-127851000D01*
X140373000Y-126149000D01*
X142075000Y-126149000D01*
X142075000Y-127851000D01*
G37*
G36*
X151632228Y-126181703D02*
G01*
X151787100Y-126245853D01*
X151926481Y-126338985D01*
X152045015Y-126457519D01*
X152138147Y-126596900D01*
X152202297Y-126751772D01*
X152235000Y-126916184D01*
X152235000Y-127083816D01*
X152202297Y-127248228D01*
X152138147Y-127403100D01*
X152045015Y-127542481D01*
X151926481Y-127661015D01*
X151787100Y-127754147D01*
X151632228Y-127818297D01*
X151467816Y-127851000D01*
X151300184Y-127851000D01*
X151135772Y-127818297D01*
X150980900Y-127754147D01*
X150841519Y-127661015D01*
X150722985Y-127542481D01*
X150629853Y-127403100D01*
X150565703Y-127248228D01*
X150533000Y-127083816D01*
X150533000Y-126916184D01*
X150565703Y-126751772D01*
X150629853Y-126596900D01*
X150722985Y-126457519D01*
X150841519Y-126338985D01*
X150980900Y-126245853D01*
X151135772Y-126181703D01*
X151300184Y-126149000D01*
X151467816Y-126149000D01*
X151632228Y-126181703D01*
G37*
G36*
X156712228Y-126181703D02*
G01*
X156867100Y-126245853D01*
X157006481Y-126338985D01*
X157125015Y-126457519D01*
X157218147Y-126596900D01*
X157282297Y-126751772D01*
X157315000Y-126916184D01*
X157315000Y-127083816D01*
X157282297Y-127248228D01*
X157218147Y-127403100D01*
X157125015Y-127542481D01*
X157006481Y-127661015D01*
X156867100Y-127754147D01*
X156712228Y-127818297D01*
X156547816Y-127851000D01*
X156380184Y-127851000D01*
X156215772Y-127818297D01*
X156060900Y-127754147D01*
X155921519Y-127661015D01*
X155802985Y-127542481D01*
X155709853Y-127403100D01*
X155645703Y-127248228D01*
X155613000Y-127083816D01*
X155613000Y-126916184D01*
X155645703Y-126751772D01*
X155709853Y-126596900D01*
X155802985Y-126457519D01*
X155921519Y-126338985D01*
X156060900Y-126245853D01*
X156215772Y-126181703D01*
X156380184Y-126149000D01*
X156547816Y-126149000D01*
X156712228Y-126181703D01*
G37*
G36*
X159252228Y-126181703D02*
G01*
X159407100Y-126245853D01*
X159546481Y-126338985D01*
X159665015Y-126457519D01*
X159758147Y-126596900D01*
X159822297Y-126751772D01*
X159855000Y-126916184D01*
X159855000Y-127083816D01*
X159822297Y-127248228D01*
X159758147Y-127403100D01*
X159665015Y-127542481D01*
X159546481Y-127661015D01*
X159407100Y-127754147D01*
X159252228Y-127818297D01*
X159087816Y-127851000D01*
X158920184Y-127851000D01*
X158755772Y-127818297D01*
X158600900Y-127754147D01*
X158461519Y-127661015D01*
X158342985Y-127542481D01*
X158249853Y-127403100D01*
X158185703Y-127248228D01*
X158153000Y-127083816D01*
X158153000Y-126916184D01*
X158185703Y-126751772D01*
X158249853Y-126596900D01*
X158342985Y-126457519D01*
X158461519Y-126338985D01*
X158600900Y-126245853D01*
X158755772Y-126181703D01*
X158920184Y-126149000D01*
X159087816Y-126149000D01*
X159252228Y-126181703D01*
G37*
G36*
X149092228Y-126181703D02*
G01*
X149247100Y-126245853D01*
X149386481Y-126338985D01*
X149505015Y-126457519D01*
X149598147Y-126596900D01*
X149662297Y-126751772D01*
X149695000Y-126916184D01*
X149695000Y-127083816D01*
X149662297Y-127248228D01*
X149598147Y-127403100D01*
X149505015Y-127542481D01*
X149386481Y-127661015D01*
X149247100Y-127754147D01*
X149092228Y-127818297D01*
X148927816Y-127851000D01*
X148760184Y-127851000D01*
X148595772Y-127818297D01*
X148440900Y-127754147D01*
X148301519Y-127661015D01*
X148182985Y-127542481D01*
X148089853Y-127403100D01*
X148025703Y-127248228D01*
X147993000Y-127083816D01*
X147993000Y-126916184D01*
X148025703Y-126751772D01*
X148089853Y-126596900D01*
X148182985Y-126457519D01*
X148301519Y-126338985D01*
X148440900Y-126245853D01*
X148595772Y-126181703D01*
X148760184Y-126149000D01*
X148927816Y-126149000D01*
X149092228Y-126181703D01*
G37*
G36*
X161792228Y-126181703D02*
G01*
X161947100Y-126245853D01*
X162086481Y-126338985D01*
X162205015Y-126457519D01*
X162298147Y-126596900D01*
X162362297Y-126751772D01*
X162395000Y-126916184D01*
X162395000Y-127083816D01*
X162362297Y-127248228D01*
X162298147Y-127403100D01*
X162205015Y-127542481D01*
X162086481Y-127661015D01*
X161947100Y-127754147D01*
X161792228Y-127818297D01*
X161627816Y-127851000D01*
X161460184Y-127851000D01*
X161295772Y-127818297D01*
X161140900Y-127754147D01*
X161001519Y-127661015D01*
X160882985Y-127542481D01*
X160789853Y-127403100D01*
X160725703Y-127248228D01*
X160693000Y-127083816D01*
X160693000Y-126916184D01*
X160725703Y-126751772D01*
X160789853Y-126596900D01*
X160882985Y-126457519D01*
X161001519Y-126338985D01*
X161140900Y-126245853D01*
X161295772Y-126181703D01*
X161460184Y-126149000D01*
X161627816Y-126149000D01*
X161792228Y-126181703D01*
G37*
G36*
X164332228Y-126181703D02*
G01*
X164487100Y-126245853D01*
X164626481Y-126338985D01*
X164745015Y-126457519D01*
X164838147Y-126596900D01*
X164902297Y-126751772D01*
X164935000Y-126916184D01*
X164935000Y-127083816D01*
X164902297Y-127248228D01*
X164838147Y-127403100D01*
X164745015Y-127542481D01*
X164626481Y-127661015D01*
X164487100Y-127754147D01*
X164332228Y-127818297D01*
X164167816Y-127851000D01*
X164000184Y-127851000D01*
X163835772Y-127818297D01*
X163680900Y-127754147D01*
X163541519Y-127661015D01*
X163422985Y-127542481D01*
X163329853Y-127403100D01*
X163265703Y-127248228D01*
X163233000Y-127083816D01*
X163233000Y-126916184D01*
X163265703Y-126751772D01*
X163329853Y-126596900D01*
X163422985Y-126457519D01*
X163541519Y-126338985D01*
X163680900Y-126245853D01*
X163835772Y-126181703D01*
X164000184Y-126149000D01*
X164167816Y-126149000D01*
X164332228Y-126181703D01*
G37*
G36*
X166872228Y-126181703D02*
G01*
X167027100Y-126245853D01*
X167166481Y-126338985D01*
X167285015Y-126457519D01*
X167378147Y-126596900D01*
X167442297Y-126751772D01*
X167475000Y-126916184D01*
X167475000Y-127083816D01*
X167442297Y-127248228D01*
X167378147Y-127403100D01*
X167285015Y-127542481D01*
X167166481Y-127661015D01*
X167027100Y-127754147D01*
X166872228Y-127818297D01*
X166707816Y-127851000D01*
X166540184Y-127851000D01*
X166375772Y-127818297D01*
X166220900Y-127754147D01*
X166081519Y-127661015D01*
X165962985Y-127542481D01*
X165869853Y-127403100D01*
X165805703Y-127248228D01*
X165773000Y-127083816D01*
X165773000Y-126916184D01*
X165805703Y-126751772D01*
X165869853Y-126596900D01*
X165962985Y-126457519D01*
X166081519Y-126338985D01*
X166220900Y-126245853D01*
X166375772Y-126181703D01*
X166540184Y-126149000D01*
X166707816Y-126149000D01*
X166872228Y-126181703D01*
G37*
G36*
X146552228Y-126181703D02*
G01*
X146707100Y-126245853D01*
X146846481Y-126338985D01*
X146965015Y-126457519D01*
X147058147Y-126596900D01*
X147122297Y-126751772D01*
X147155000Y-126916184D01*
X147155000Y-127083816D01*
X147122297Y-127248228D01*
X147058147Y-127403100D01*
X146965015Y-127542481D01*
X146846481Y-127661015D01*
X146707100Y-127754147D01*
X146552228Y-127818297D01*
X146387816Y-127851000D01*
X146220184Y-127851000D01*
X146055772Y-127818297D01*
X145900900Y-127754147D01*
X145761519Y-127661015D01*
X145642985Y-127542481D01*
X145549853Y-127403100D01*
X145485703Y-127248228D01*
X145453000Y-127083816D01*
X145453000Y-126916184D01*
X145485703Y-126751772D01*
X145549853Y-126596900D01*
X145642985Y-126457519D01*
X145761519Y-126338985D01*
X145900900Y-126245853D01*
X146055772Y-126181703D01*
X146220184Y-126149000D01*
X146387816Y-126149000D01*
X146552228Y-126181703D01*
G37*
G36*
X169412228Y-126181703D02*
G01*
X169567100Y-126245853D01*
X169706481Y-126338985D01*
X169825015Y-126457519D01*
X169918147Y-126596900D01*
X169982297Y-126751772D01*
X170015000Y-126916184D01*
X170015000Y-127083816D01*
X169982297Y-127248228D01*
X169918147Y-127403100D01*
X169825015Y-127542481D01*
X169706481Y-127661015D01*
X169567100Y-127754147D01*
X169412228Y-127818297D01*
X169247816Y-127851000D01*
X169080184Y-127851000D01*
X168915772Y-127818297D01*
X168760900Y-127754147D01*
X168621519Y-127661015D01*
X168502985Y-127542481D01*
X168409853Y-127403100D01*
X168345703Y-127248228D01*
X168313000Y-127083816D01*
X168313000Y-126916184D01*
X168345703Y-126751772D01*
X168409853Y-126596900D01*
X168502985Y-126457519D01*
X168621519Y-126338985D01*
X168760900Y-126245853D01*
X168915772Y-126181703D01*
X169080184Y-126149000D01*
X169247816Y-126149000D01*
X169412228Y-126181703D01*
G37*
G36*
X144012228Y-126181703D02*
G01*
X144167100Y-126245853D01*
X144306481Y-126338985D01*
X144425015Y-126457519D01*
X144518147Y-126596900D01*
X144582297Y-126751772D01*
X144615000Y-126916184D01*
X144615000Y-127083816D01*
X144582297Y-127248228D01*
X144518147Y-127403100D01*
X144425015Y-127542481D01*
X144306481Y-127661015D01*
X144167100Y-127754147D01*
X144012228Y-127818297D01*
X143847816Y-127851000D01*
X143680184Y-127851000D01*
X143515772Y-127818297D01*
X143360900Y-127754147D01*
X143221519Y-127661015D01*
X143102985Y-127542481D01*
X143009853Y-127403100D01*
X142945703Y-127248228D01*
X142913000Y-127083816D01*
X142913000Y-126916184D01*
X142945703Y-126751772D01*
X143009853Y-126596900D01*
X143102985Y-126457519D01*
X143221519Y-126338985D01*
X143360900Y-126245853D01*
X143515772Y-126181703D01*
X143680184Y-126149000D01*
X143847816Y-126149000D01*
X144012228Y-126181703D01*
G37*
G36*
X154172228Y-126181703D02*
G01*
X154327100Y-126245853D01*
X154466481Y-126338985D01*
X154585015Y-126457519D01*
X154678147Y-126596900D01*
X154742297Y-126751772D01*
X154775000Y-126916184D01*
X154775000Y-127083816D01*
X154742297Y-127248228D01*
X154678147Y-127403100D01*
X154585015Y-127542481D01*
X154466481Y-127661015D01*
X154327100Y-127754147D01*
X154172228Y-127818297D01*
X154007816Y-127851000D01*
X153840184Y-127851000D01*
X153675772Y-127818297D01*
X153520900Y-127754147D01*
X153381519Y-127661015D01*
X153262985Y-127542481D01*
X153169853Y-127403100D01*
X153105703Y-127248228D01*
X153073000Y-127083816D01*
X153073000Y-126916184D01*
X153105703Y-126751772D01*
X153169853Y-126596900D01*
X153262985Y-126457519D01*
X153381519Y-126338985D01*
X153520900Y-126245853D01*
X153675772Y-126181703D01*
X153840184Y-126149000D01*
X154007816Y-126149000D01*
X154172228Y-126181703D01*
G37*
G36*
X174492228Y-126181703D02*
G01*
X174647100Y-126245853D01*
X174786481Y-126338985D01*
X174905015Y-126457519D01*
X174998147Y-126596900D01*
X175062297Y-126751772D01*
X175095000Y-126916184D01*
X175095000Y-127083816D01*
X175062297Y-127248228D01*
X174998147Y-127403100D01*
X174905015Y-127542481D01*
X174786481Y-127661015D01*
X174647100Y-127754147D01*
X174492228Y-127818297D01*
X174327816Y-127851000D01*
X174160184Y-127851000D01*
X173995772Y-127818297D01*
X173840900Y-127754147D01*
X173701519Y-127661015D01*
X173582985Y-127542481D01*
X173489853Y-127403100D01*
X173425703Y-127248228D01*
X173393000Y-127083816D01*
X173393000Y-126916184D01*
X173425703Y-126751772D01*
X173489853Y-126596900D01*
X173582985Y-126457519D01*
X173701519Y-126338985D01*
X173840900Y-126245853D01*
X173995772Y-126181703D01*
X174160184Y-126149000D01*
X174327816Y-126149000D01*
X174492228Y-126181703D01*
G37*
G36*
X154172228Y-118561703D02*
G01*
X154327100Y-118625853D01*
X154466481Y-118718985D01*
X154585015Y-118837519D01*
X154678147Y-118976900D01*
X154742297Y-119131772D01*
X154775000Y-119296184D01*
X154775000Y-119463816D01*
X154742297Y-119628228D01*
X154678147Y-119783100D01*
X154585015Y-119922481D01*
X154466481Y-120041015D01*
X154327100Y-120134147D01*
X154172228Y-120198297D01*
X154007816Y-120231000D01*
X153840184Y-120231000D01*
X153675772Y-120198297D01*
X153520900Y-120134147D01*
X153381519Y-120041015D01*
X153262985Y-119922481D01*
X153169853Y-119783100D01*
X153105703Y-119628228D01*
X153073000Y-119463816D01*
X153073000Y-119296184D01*
X153105703Y-119131772D01*
X153169853Y-118976900D01*
X153262985Y-118837519D01*
X153381519Y-118718985D01*
X153520900Y-118625853D01*
X153675772Y-118561703D01*
X153840184Y-118529000D01*
X154007816Y-118529000D01*
X154172228Y-118561703D01*
G37*
G36*
X141472228Y-118561703D02*
G01*
X141627100Y-118625853D01*
X141766481Y-118718985D01*
X141885015Y-118837519D01*
X141978147Y-118976900D01*
X142042297Y-119131772D01*
X142075000Y-119296184D01*
X142075000Y-119463816D01*
X142042297Y-119628228D01*
X141978147Y-119783100D01*
X141885015Y-119922481D01*
X141766481Y-120041015D01*
X141627100Y-120134147D01*
X141472228Y-120198297D01*
X141307816Y-120231000D01*
X141140184Y-120231000D01*
X140975772Y-120198297D01*
X140820900Y-120134147D01*
X140681519Y-120041015D01*
X140562985Y-119922481D01*
X140469853Y-119783100D01*
X140405703Y-119628228D01*
X140373000Y-119463816D01*
X140373000Y-119296184D01*
X140405703Y-119131772D01*
X140469853Y-118976900D01*
X140562985Y-118837519D01*
X140681519Y-118718985D01*
X140820900Y-118625853D01*
X140975772Y-118561703D01*
X141140184Y-118529000D01*
X141307816Y-118529000D01*
X141472228Y-118561703D01*
G37*
G36*
X144012228Y-118561703D02*
G01*
X144167100Y-118625853D01*
X144306481Y-118718985D01*
X144425015Y-118837519D01*
X144518147Y-118976900D01*
X144582297Y-119131772D01*
X144615000Y-119296184D01*
X144615000Y-119463816D01*
X144582297Y-119628228D01*
X144518147Y-119783100D01*
X144425015Y-119922481D01*
X144306481Y-120041015D01*
X144167100Y-120134147D01*
X144012228Y-120198297D01*
X143847816Y-120231000D01*
X143680184Y-120231000D01*
X143515772Y-120198297D01*
X143360900Y-120134147D01*
X143221519Y-120041015D01*
X143102985Y-119922481D01*
X143009853Y-119783100D01*
X142945703Y-119628228D01*
X142913000Y-119463816D01*
X142913000Y-119296184D01*
X142945703Y-119131772D01*
X143009853Y-118976900D01*
X143102985Y-118837519D01*
X143221519Y-118718985D01*
X143360900Y-118625853D01*
X143515772Y-118561703D01*
X143680184Y-118529000D01*
X143847816Y-118529000D01*
X144012228Y-118561703D01*
G37*
G36*
X146552228Y-118561703D02*
G01*
X146707100Y-118625853D01*
X146846481Y-118718985D01*
X146965015Y-118837519D01*
X147058147Y-118976900D01*
X147122297Y-119131772D01*
X147155000Y-119296184D01*
X147155000Y-119463816D01*
X147122297Y-119628228D01*
X147058147Y-119783100D01*
X146965015Y-119922481D01*
X146846481Y-120041015D01*
X146707100Y-120134147D01*
X146552228Y-120198297D01*
X146387816Y-120231000D01*
X146220184Y-120231000D01*
X146055772Y-120198297D01*
X145900900Y-120134147D01*
X145761519Y-120041015D01*
X145642985Y-119922481D01*
X145549853Y-119783100D01*
X145485703Y-119628228D01*
X145453000Y-119463816D01*
X145453000Y-119296184D01*
X145485703Y-119131772D01*
X145549853Y-118976900D01*
X145642985Y-118837519D01*
X145761519Y-118718985D01*
X145900900Y-118625853D01*
X146055772Y-118561703D01*
X146220184Y-118529000D01*
X146387816Y-118529000D01*
X146552228Y-118561703D01*
G37*
G36*
X149092228Y-118561703D02*
G01*
X149247100Y-118625853D01*
X149386481Y-118718985D01*
X149505015Y-118837519D01*
X149598147Y-118976900D01*
X149662297Y-119131772D01*
X149695000Y-119296184D01*
X149695000Y-119463816D01*
X149662297Y-119628228D01*
X149598147Y-119783100D01*
X149505015Y-119922481D01*
X149386481Y-120041015D01*
X149247100Y-120134147D01*
X149092228Y-120198297D01*
X148927816Y-120231000D01*
X148760184Y-120231000D01*
X148595772Y-120198297D01*
X148440900Y-120134147D01*
X148301519Y-120041015D01*
X148182985Y-119922481D01*
X148089853Y-119783100D01*
X148025703Y-119628228D01*
X147993000Y-119463816D01*
X147993000Y-119296184D01*
X148025703Y-119131772D01*
X148089853Y-118976900D01*
X148182985Y-118837519D01*
X148301519Y-118718985D01*
X148440900Y-118625853D01*
X148595772Y-118561703D01*
X148760184Y-118529000D01*
X148927816Y-118529000D01*
X149092228Y-118561703D01*
G37*
G36*
X156712228Y-118561703D02*
G01*
X156867100Y-118625853D01*
X157006481Y-118718985D01*
X157125015Y-118837519D01*
X157218147Y-118976900D01*
X157282297Y-119131772D01*
X157315000Y-119296184D01*
X157315000Y-119463816D01*
X157282297Y-119628228D01*
X157218147Y-119783100D01*
X157125015Y-119922481D01*
X157006481Y-120041015D01*
X156867100Y-120134147D01*
X156712228Y-120198297D01*
X156547816Y-120231000D01*
X156380184Y-120231000D01*
X156215772Y-120198297D01*
X156060900Y-120134147D01*
X155921519Y-120041015D01*
X155802985Y-119922481D01*
X155709853Y-119783100D01*
X155645703Y-119628228D01*
X155613000Y-119463816D01*
X155613000Y-119296184D01*
X155645703Y-119131772D01*
X155709853Y-118976900D01*
X155802985Y-118837519D01*
X155921519Y-118718985D01*
X156060900Y-118625853D01*
X156215772Y-118561703D01*
X156380184Y-118529000D01*
X156547816Y-118529000D01*
X156712228Y-118561703D01*
G37*
G36*
X159252228Y-118561703D02*
G01*
X159407100Y-118625853D01*
X159546481Y-118718985D01*
X159665015Y-118837519D01*
X159758147Y-118976900D01*
X159822297Y-119131772D01*
X159855000Y-119296184D01*
X159855000Y-119463816D01*
X159822297Y-119628228D01*
X159758147Y-119783100D01*
X159665015Y-119922481D01*
X159546481Y-120041015D01*
X159407100Y-120134147D01*
X159252228Y-120198297D01*
X159087816Y-120231000D01*
X158920184Y-120231000D01*
X158755772Y-120198297D01*
X158600900Y-120134147D01*
X158461519Y-120041015D01*
X158342985Y-119922481D01*
X158249853Y-119783100D01*
X158185703Y-119628228D01*
X158153000Y-119463816D01*
X158153000Y-119296184D01*
X158185703Y-119131772D01*
X158249853Y-118976900D01*
X158342985Y-118837519D01*
X158461519Y-118718985D01*
X158600900Y-118625853D01*
X158755772Y-118561703D01*
X158920184Y-118529000D01*
X159087816Y-118529000D01*
X159252228Y-118561703D01*
G37*
G36*
X161792228Y-118561703D02*
G01*
X161947100Y-118625853D01*
X162086481Y-118718985D01*
X162205015Y-118837519D01*
X162298147Y-118976900D01*
X162362297Y-119131772D01*
X162395000Y-119296184D01*
X162395000Y-119463816D01*
X162362297Y-119628228D01*
X162298147Y-119783100D01*
X162205015Y-119922481D01*
X162086481Y-120041015D01*
X161947100Y-120134147D01*
X161792228Y-120198297D01*
X161627816Y-120231000D01*
X161460184Y-120231000D01*
X161295772Y-120198297D01*
X161140900Y-120134147D01*
X161001519Y-120041015D01*
X160882985Y-119922481D01*
X160789853Y-119783100D01*
X160725703Y-119628228D01*
X160693000Y-119463816D01*
X160693000Y-119296184D01*
X160725703Y-119131772D01*
X160789853Y-118976900D01*
X160882985Y-118837519D01*
X161001519Y-118718985D01*
X161140900Y-118625853D01*
X161295772Y-118561703D01*
X161460184Y-118529000D01*
X161627816Y-118529000D01*
X161792228Y-118561703D01*
G37*
G36*
X164332228Y-118561703D02*
G01*
X164487100Y-118625853D01*
X164626481Y-118718985D01*
X164745015Y-118837519D01*
X164838147Y-118976900D01*
X164902297Y-119131772D01*
X164935000Y-119296184D01*
X164935000Y-119463816D01*
X164902297Y-119628228D01*
X164838147Y-119783100D01*
X164745015Y-119922481D01*
X164626481Y-120041015D01*
X164487100Y-120134147D01*
X164332228Y-120198297D01*
X164167816Y-120231000D01*
X164000184Y-120231000D01*
X163835772Y-120198297D01*
X163680900Y-120134147D01*
X163541519Y-120041015D01*
X163422985Y-119922481D01*
X163329853Y-119783100D01*
X163265703Y-119628228D01*
X163233000Y-119463816D01*
X163233000Y-119296184D01*
X163265703Y-119131772D01*
X163329853Y-118976900D01*
X163422985Y-118837519D01*
X163541519Y-118718985D01*
X163680900Y-118625853D01*
X163835772Y-118561703D01*
X164000184Y-118529000D01*
X164167816Y-118529000D01*
X164332228Y-118561703D01*
G37*
G36*
X151632228Y-118561703D02*
G01*
X151787100Y-118625853D01*
X151926481Y-118718985D01*
X152045015Y-118837519D01*
X152138147Y-118976900D01*
X152202297Y-119131772D01*
X152235000Y-119296184D01*
X152235000Y-119463816D01*
X152202297Y-119628228D01*
X152138147Y-119783100D01*
X152045015Y-119922481D01*
X151926481Y-120041015D01*
X151787100Y-120134147D01*
X151632228Y-120198297D01*
X151467816Y-120231000D01*
X151300184Y-120231000D01*
X151135772Y-120198297D01*
X150980900Y-120134147D01*
X150841519Y-120041015D01*
X150722985Y-119922481D01*
X150629853Y-119783100D01*
X150565703Y-119628228D01*
X150533000Y-119463816D01*
X150533000Y-119296184D01*
X150565703Y-119131772D01*
X150629853Y-118976900D01*
X150722985Y-118837519D01*
X150841519Y-118718985D01*
X150980900Y-118625853D01*
X151135772Y-118561703D01*
X151300184Y-118529000D01*
X151467816Y-118529000D01*
X151632228Y-118561703D01*
G37*
G36*
X166872228Y-118561703D02*
G01*
X167027100Y-118625853D01*
X167166481Y-118718985D01*
X167285015Y-118837519D01*
X167378147Y-118976900D01*
X167442297Y-119131772D01*
X167475000Y-119296184D01*
X167475000Y-119463816D01*
X167442297Y-119628228D01*
X167378147Y-119783100D01*
X167285015Y-119922481D01*
X167166481Y-120041015D01*
X167027100Y-120134147D01*
X166872228Y-120198297D01*
X166707816Y-120231000D01*
X166540184Y-120231000D01*
X166375772Y-120198297D01*
X166220900Y-120134147D01*
X166081519Y-120041015D01*
X165962985Y-119922481D01*
X165869853Y-119783100D01*
X165805703Y-119628228D01*
X165773000Y-119463816D01*
X165773000Y-119296184D01*
X165805703Y-119131772D01*
X165869853Y-118976900D01*
X165962985Y-118837519D01*
X166081519Y-118718985D01*
X166220900Y-118625853D01*
X166375772Y-118561703D01*
X166540184Y-118529000D01*
X166707816Y-118529000D01*
X166872228Y-118561703D01*
G37*
G36*
X169412228Y-118561703D02*
G01*
X169567100Y-118625853D01*
X169706481Y-118718985D01*
X169825015Y-118837519D01*
X169918147Y-118976900D01*
X169982297Y-119131772D01*
X170015000Y-119296184D01*
X170015000Y-119463816D01*
X169982297Y-119628228D01*
X169918147Y-119783100D01*
X169825015Y-119922481D01*
X169706481Y-120041015D01*
X169567100Y-120134147D01*
X169412228Y-120198297D01*
X169247816Y-120231000D01*
X169080184Y-120231000D01*
X168915772Y-120198297D01*
X168760900Y-120134147D01*
X168621519Y-120041015D01*
X168502985Y-119922481D01*
X168409853Y-119783100D01*
X168345703Y-119628228D01*
X168313000Y-119463816D01*
X168313000Y-119296184D01*
X168345703Y-119131772D01*
X168409853Y-118976900D01*
X168502985Y-118837519D01*
X168621519Y-118718985D01*
X168760900Y-118625853D01*
X168915772Y-118561703D01*
X169080184Y-118529000D01*
X169247816Y-118529000D01*
X169412228Y-118561703D01*
G37*
G36*
X171952228Y-118561703D02*
G01*
X172107100Y-118625853D01*
X172246481Y-118718985D01*
X172365015Y-118837519D01*
X172458147Y-118976900D01*
X172522297Y-119131772D01*
X172555000Y-119296184D01*
X172555000Y-119463816D01*
X172522297Y-119628228D01*
X172458147Y-119783100D01*
X172365015Y-119922481D01*
X172246481Y-120041015D01*
X172107100Y-120134147D01*
X171952228Y-120198297D01*
X171787816Y-120231000D01*
X171620184Y-120231000D01*
X171455772Y-120198297D01*
X171300900Y-120134147D01*
X171161519Y-120041015D01*
X171042985Y-119922481D01*
X170949853Y-119783100D01*
X170885703Y-119628228D01*
X170853000Y-119463816D01*
X170853000Y-119296184D01*
X170885703Y-119131772D01*
X170949853Y-118976900D01*
X171042985Y-118837519D01*
X171161519Y-118718985D01*
X171300900Y-118625853D01*
X171455772Y-118561703D01*
X171620184Y-118529000D01*
X171787816Y-118529000D01*
X171952228Y-118561703D01*
G37*
G36*
X174492228Y-118561703D02*
G01*
X174647100Y-118625853D01*
X174786481Y-118718985D01*
X174905015Y-118837519D01*
X174998147Y-118976900D01*
X175062297Y-119131772D01*
X175095000Y-119296184D01*
X175095000Y-119463816D01*
X175062297Y-119628228D01*
X174998147Y-119783100D01*
X174905015Y-119922481D01*
X174786481Y-120041015D01*
X174647100Y-120134147D01*
X174492228Y-120198297D01*
X174327816Y-120231000D01*
X174160184Y-120231000D01*
X173995772Y-120198297D01*
X173840900Y-120134147D01*
X173701519Y-120041015D01*
X173582985Y-119922481D01*
X173489853Y-119783100D01*
X173425703Y-119628228D01*
X173393000Y-119463816D01*
X173393000Y-119296184D01*
X173425703Y-119131772D01*
X173489853Y-118976900D01*
X173582985Y-118837519D01*
X173701519Y-118718985D01*
X173840900Y-118625853D01*
X173995772Y-118561703D01*
X174160184Y-118529000D01*
X174327816Y-118529000D01*
X174492228Y-118561703D01*
G37*
G36*
X113825721Y-118002174D02*
G01*
X113925995Y-118043709D01*
X113925996Y-118043710D01*
X114016242Y-118104010D01*
X114092990Y-118180758D01*
X114092991Y-118180760D01*
X114153291Y-118271005D01*
X114194826Y-118371279D01*
X114216000Y-118477730D01*
X114216000Y-118586270D01*
X114194826Y-118692721D01*
X114153291Y-118792995D01*
X114153290Y-118792996D01*
X114092990Y-118883242D01*
X114016242Y-118959990D01*
X113970812Y-118990345D01*
X113925995Y-119020291D01*
X113825721Y-119061826D01*
X113719270Y-119083000D01*
X113610730Y-119083000D01*
X113504279Y-119061826D01*
X113404005Y-119020291D01*
X113359188Y-118990345D01*
X113313758Y-118959990D01*
X113237010Y-118883242D01*
X113176710Y-118792996D01*
X113176709Y-118792995D01*
X113135174Y-118692721D01*
X113114000Y-118586270D01*
X113114000Y-118477730D01*
X113135174Y-118371279D01*
X113176709Y-118271005D01*
X113237009Y-118180760D01*
X113237010Y-118180758D01*
X113313758Y-118104010D01*
X113404004Y-118043710D01*
X113404005Y-118043709D01*
X113504279Y-118002174D01*
X113610730Y-117981000D01*
X113719270Y-117981000D01*
X113825721Y-118002174D01*
G37*
G36*
X113825721Y-113602174D02*
G01*
X113925995Y-113643709D01*
X113925996Y-113643710D01*
X114016242Y-113704010D01*
X114092990Y-113780758D01*
X114092991Y-113780760D01*
X114153291Y-113871005D01*
X114194826Y-113971279D01*
X114216000Y-114077730D01*
X114216000Y-114186270D01*
X114194826Y-114292721D01*
X114153291Y-114392995D01*
X114153290Y-114392996D01*
X114092990Y-114483242D01*
X114016242Y-114559990D01*
X113970812Y-114590345D01*
X113925995Y-114620291D01*
X113825721Y-114661826D01*
X113719270Y-114683000D01*
X113610730Y-114683000D01*
X113504279Y-114661826D01*
X113404005Y-114620291D01*
X113359188Y-114590345D01*
X113313758Y-114559990D01*
X113237010Y-114483242D01*
X113176710Y-114392996D01*
X113176709Y-114392995D01*
X113135174Y-114292721D01*
X113114000Y-114186270D01*
X113114000Y-114077730D01*
X113135174Y-113971279D01*
X113176709Y-113871005D01*
X113237009Y-113780760D01*
X113237010Y-113780758D01*
X113313758Y-113704010D01*
X113404004Y-113643710D01*
X113404005Y-113643709D01*
X113504279Y-113602174D01*
X113610730Y-113581000D01*
X113719270Y-113581000D01*
X113825721Y-113602174D01*
G37*
G36*
X121043000Y-109232000D02*
G01*
X119241000Y-109232000D01*
X119241000Y-107430000D01*
X121043000Y-107430000D01*
X121043000Y-109232000D01*
G37*
G36*
X122795512Y-107434927D02*
G01*
X122944812Y-107464624D01*
X123108784Y-107532544D01*
X123256354Y-107631147D01*
X123381853Y-107756646D01*
X123480456Y-107904216D01*
X123548376Y-108068188D01*
X123583000Y-108242259D01*
X123583000Y-108419741D01*
X123548376Y-108593812D01*
X123480456Y-108757784D01*
X123381853Y-108905354D01*
X123256354Y-109030853D01*
X123108784Y-109129456D01*
X122944812Y-109197376D01*
X122795512Y-109227073D01*
X122770742Y-109232000D01*
X122593258Y-109232000D01*
X122568488Y-109227073D01*
X122419188Y-109197376D01*
X122255216Y-109129456D01*
X122107646Y-109030853D01*
X121982147Y-108905354D01*
X121883544Y-108757784D01*
X121815624Y-108593812D01*
X121781000Y-108419741D01*
X121781000Y-108242259D01*
X121815624Y-108068188D01*
X121883544Y-107904216D01*
X121982147Y-107756646D01*
X122107646Y-107631147D01*
X122255216Y-107532544D01*
X122419188Y-107464624D01*
X122568488Y-107434927D01*
X122593258Y-107430000D01*
X122770742Y-107430000D01*
X122795512Y-107434927D01*
G37*
G36*
X125335512Y-107434927D02*
G01*
X125484812Y-107464624D01*
X125648784Y-107532544D01*
X125796354Y-107631147D01*
X125921853Y-107756646D01*
X126020456Y-107904216D01*
X126088376Y-108068188D01*
X126123000Y-108242259D01*
X126123000Y-108419741D01*
X126088376Y-108593812D01*
X126020456Y-108757784D01*
X125921853Y-108905354D01*
X125796354Y-109030853D01*
X125648784Y-109129456D01*
X125484812Y-109197376D01*
X125335512Y-109227073D01*
X125310742Y-109232000D01*
X125133258Y-109232000D01*
X125108488Y-109227073D01*
X124959188Y-109197376D01*
X124795216Y-109129456D01*
X124647646Y-109030853D01*
X124522147Y-108905354D01*
X124423544Y-108757784D01*
X124355624Y-108593812D01*
X124321000Y-108419741D01*
X124321000Y-108242259D01*
X124355624Y-108068188D01*
X124423544Y-107904216D01*
X124522147Y-107756646D01*
X124647646Y-107631147D01*
X124795216Y-107532544D01*
X124959188Y-107464624D01*
X125108488Y-107434927D01*
X125133258Y-107430000D01*
X125310742Y-107430000D01*
X125335512Y-107434927D01*
G37*
G36*
X170293512Y-105783927D02*
G01*
X170442812Y-105813624D01*
X170606784Y-105881544D01*
X170754354Y-105980147D01*
X170879853Y-106105646D01*
X170978456Y-106253216D01*
X171046376Y-106417188D01*
X171081000Y-106591259D01*
X171081000Y-106768741D01*
X171046376Y-106942812D01*
X170978456Y-107106784D01*
X170879853Y-107254354D01*
X170754354Y-107379853D01*
X170606784Y-107478456D01*
X170442812Y-107546376D01*
X170293512Y-107576073D01*
X170268742Y-107581000D01*
X170091258Y-107581000D01*
X170066488Y-107576073D01*
X169917188Y-107546376D01*
X169753216Y-107478456D01*
X169605646Y-107379853D01*
X169480147Y-107254354D01*
X169381544Y-107106784D01*
X169313624Y-106942812D01*
X169279000Y-106768741D01*
X169279000Y-106591259D01*
X169313624Y-106417188D01*
X169381544Y-106253216D01*
X169480147Y-106105646D01*
X169605646Y-105980147D01*
X169753216Y-105881544D01*
X169917188Y-105813624D01*
X170066488Y-105783927D01*
X170091258Y-105779000D01*
X170268742Y-105779000D01*
X170293512Y-105783927D01*
G37*
G36*
X173621000Y-107581000D02*
G01*
X171819000Y-107581000D01*
X171819000Y-105779000D01*
X173621000Y-105779000D01*
X173621000Y-107581000D01*
G37*
G36*
X167753512Y-105783927D02*
G01*
X167902812Y-105813624D01*
X168066784Y-105881544D01*
X168214354Y-105980147D01*
X168339853Y-106105646D01*
X168438456Y-106253216D01*
X168506376Y-106417188D01*
X168541000Y-106591259D01*
X168541000Y-106768741D01*
X168506376Y-106942812D01*
X168438456Y-107106784D01*
X168339853Y-107254354D01*
X168214354Y-107379853D01*
X168066784Y-107478456D01*
X167902812Y-107546376D01*
X167753512Y-107576073D01*
X167728742Y-107581000D01*
X167551258Y-107581000D01*
X167526488Y-107576073D01*
X167377188Y-107546376D01*
X167213216Y-107478456D01*
X167065646Y-107379853D01*
X166940147Y-107254354D01*
X166841544Y-107106784D01*
X166773624Y-106942812D01*
X166739000Y-106768741D01*
X166739000Y-106591259D01*
X166773624Y-106417188D01*
X166841544Y-106253216D01*
X166940147Y-106105646D01*
X167065646Y-105980147D01*
X167213216Y-105881544D01*
X167377188Y-105813624D01*
X167526488Y-105783927D01*
X167551258Y-105779000D01*
X167728742Y-105779000D01*
X167753512Y-105783927D01*
G37*
G36*
X165213512Y-105783927D02*
G01*
X165362812Y-105813624D01*
X165526784Y-105881544D01*
X165674354Y-105980147D01*
X165799853Y-106105646D01*
X165898456Y-106253216D01*
X165966376Y-106417188D01*
X166001000Y-106591259D01*
X166001000Y-106768741D01*
X165966376Y-106942812D01*
X165898456Y-107106784D01*
X165799853Y-107254354D01*
X165674354Y-107379853D01*
X165526784Y-107478456D01*
X165362812Y-107546376D01*
X165213512Y-107576073D01*
X165188742Y-107581000D01*
X165011258Y-107581000D01*
X164986488Y-107576073D01*
X164837188Y-107546376D01*
X164673216Y-107478456D01*
X164525646Y-107379853D01*
X164400147Y-107254354D01*
X164301544Y-107106784D01*
X164233624Y-106942812D01*
X164199000Y-106768741D01*
X164199000Y-106591259D01*
X164233624Y-106417188D01*
X164301544Y-106253216D01*
X164400147Y-106105646D01*
X164525646Y-105980147D01*
X164673216Y-105881544D01*
X164837188Y-105813624D01*
X164986488Y-105783927D01*
X165011258Y-105779000D01*
X165188742Y-105779000D01*
X165213512Y-105783927D01*
G37*
G36*
X170928512Y-97401927D02*
G01*
X171077812Y-97431624D01*
X171241784Y-97499544D01*
X171389354Y-97598147D01*
X171514853Y-97723646D01*
X171613456Y-97871216D01*
X171681376Y-98035188D01*
X171716000Y-98209259D01*
X171716000Y-98386741D01*
X171681376Y-98560812D01*
X171613456Y-98724784D01*
X171514853Y-98872354D01*
X171389354Y-98997853D01*
X171241784Y-99096456D01*
X171077812Y-99164376D01*
X170928512Y-99194073D01*
X170903742Y-99199000D01*
X170726258Y-99199000D01*
X170701488Y-99194073D01*
X170552188Y-99164376D01*
X170388216Y-99096456D01*
X170240646Y-98997853D01*
X170115147Y-98872354D01*
X170016544Y-98724784D01*
X169948624Y-98560812D01*
X169914000Y-98386741D01*
X169914000Y-98209259D01*
X169948624Y-98035188D01*
X170016544Y-97871216D01*
X170115147Y-97723646D01*
X170240646Y-97598147D01*
X170388216Y-97499544D01*
X170552188Y-97431624D01*
X170701488Y-97401927D01*
X170726258Y-97397000D01*
X170903742Y-97397000D01*
X170928512Y-97401927D01*
G37*
G36*
X168388512Y-97401927D02*
G01*
X168537812Y-97431624D01*
X168701784Y-97499544D01*
X168849354Y-97598147D01*
X168974853Y-97723646D01*
X169073456Y-97871216D01*
X169141376Y-98035188D01*
X169176000Y-98209259D01*
X169176000Y-98386741D01*
X169141376Y-98560812D01*
X169073456Y-98724784D01*
X168974853Y-98872354D01*
X168849354Y-98997853D01*
X168701784Y-99096456D01*
X168537812Y-99164376D01*
X168388512Y-99194073D01*
X168363742Y-99199000D01*
X168186258Y-99199000D01*
X168161488Y-99194073D01*
X168012188Y-99164376D01*
X167848216Y-99096456D01*
X167700646Y-98997853D01*
X167575147Y-98872354D01*
X167476544Y-98724784D01*
X167408624Y-98560812D01*
X167374000Y-98386741D01*
X167374000Y-98209259D01*
X167408624Y-98035188D01*
X167476544Y-97871216D01*
X167575147Y-97723646D01*
X167700646Y-97598147D01*
X167848216Y-97499544D01*
X168012188Y-97431624D01*
X168161488Y-97401927D01*
X168186258Y-97397000D01*
X168363742Y-97397000D01*
X168388512Y-97401927D01*
G37*
G36*
X170928512Y-94861927D02*
G01*
X171077812Y-94891624D01*
X171241784Y-94959544D01*
X171389354Y-95058147D01*
X171514853Y-95183646D01*
X171613456Y-95331216D01*
X171681376Y-95495188D01*
X171716000Y-95669259D01*
X171716000Y-95846741D01*
X171681376Y-96020812D01*
X171613456Y-96184784D01*
X171514853Y-96332354D01*
X171389354Y-96457853D01*
X171241784Y-96556456D01*
X171077812Y-96624376D01*
X170928512Y-96654073D01*
X170903742Y-96659000D01*
X170726258Y-96659000D01*
X170701488Y-96654073D01*
X170552188Y-96624376D01*
X170388216Y-96556456D01*
X170240646Y-96457853D01*
X170115147Y-96332354D01*
X170016544Y-96184784D01*
X169948624Y-96020812D01*
X169914000Y-95846741D01*
X169914000Y-95669259D01*
X169948624Y-95495188D01*
X170016544Y-95331216D01*
X170115147Y-95183646D01*
X170240646Y-95058147D01*
X170388216Y-94959544D01*
X170552188Y-94891624D01*
X170701488Y-94861927D01*
X170726258Y-94857000D01*
X170903742Y-94857000D01*
X170928512Y-94861927D01*
G37*
G36*
X168388512Y-94861927D02*
G01*
X168537812Y-94891624D01*
X168701784Y-94959544D01*
X168849354Y-95058147D01*
X168974853Y-95183646D01*
X169073456Y-95331216D01*
X169141376Y-95495188D01*
X169176000Y-95669259D01*
X169176000Y-95846741D01*
X169141376Y-96020812D01*
X169073456Y-96184784D01*
X168974853Y-96332354D01*
X168849354Y-96457853D01*
X168701784Y-96556456D01*
X168537812Y-96624376D01*
X168388512Y-96654073D01*
X168363742Y-96659000D01*
X168186258Y-96659000D01*
X168161488Y-96654073D01*
X168012188Y-96624376D01*
X167848216Y-96556456D01*
X167700646Y-96457853D01*
X167575147Y-96332354D01*
X167476544Y-96184784D01*
X167408624Y-96020812D01*
X167374000Y-95846741D01*
X167374000Y-95669259D01*
X167408624Y-95495188D01*
X167476544Y-95331216D01*
X167575147Y-95183646D01*
X167700646Y-95058147D01*
X167848216Y-94959544D01*
X168012188Y-94891624D01*
X168161488Y-94861927D01*
X168186258Y-94857000D01*
X168363742Y-94857000D01*
X168388512Y-94861927D01*
G37*
G36*
X115900097Y-93751069D02*
G01*
X116003032Y-93761207D01*
X116201146Y-93821305D01*
X116201149Y-93821306D01*
X116297975Y-93873061D01*
X116383729Y-93918897D01*
X116543765Y-94050235D01*
X116675103Y-94210271D01*
X116720939Y-94296025D01*
X116772694Y-94392851D01*
X116772695Y-94392854D01*
X116832793Y-94590968D01*
X116853085Y-94797000D01*
X116832793Y-95003032D01*
X116778003Y-95183647D01*
X116772694Y-95201149D01*
X116720939Y-95297975D01*
X116675103Y-95383729D01*
X116543765Y-95543765D01*
X116383729Y-95675103D01*
X116297975Y-95720939D01*
X116201149Y-95772694D01*
X116201146Y-95772695D01*
X116003032Y-95832793D01*
X115900097Y-95842931D01*
X115848631Y-95848000D01*
X114245369Y-95848000D01*
X114193903Y-95842931D01*
X114090968Y-95832793D01*
X113892854Y-95772695D01*
X113892851Y-95772694D01*
X113796025Y-95720939D01*
X113710271Y-95675103D01*
X113550235Y-95543765D01*
X113418897Y-95383729D01*
X113373061Y-95297975D01*
X113321306Y-95201149D01*
X113315997Y-95183647D01*
X113261207Y-95003032D01*
X113240915Y-94797000D01*
X113261207Y-94590968D01*
X113321305Y-94392854D01*
X113321306Y-94392851D01*
X113373061Y-94296025D01*
X113418897Y-94210271D01*
X113550235Y-94050235D01*
X113710271Y-93918897D01*
X113796025Y-93873061D01*
X113892851Y-93821306D01*
X113892854Y-93821305D01*
X114090968Y-93761207D01*
X114193903Y-93751069D01*
X114245369Y-93746000D01*
X115848631Y-93746000D01*
X115900097Y-93751069D01*
G37*
G36*
X170928512Y-92321927D02*
G01*
X171077812Y-92351624D01*
X171241784Y-92419544D01*
X171389354Y-92518147D01*
X171514853Y-92643646D01*
X171613456Y-92791216D01*
X171681376Y-92955188D01*
X171716000Y-93129259D01*
X171716000Y-93306741D01*
X171681376Y-93480812D01*
X171613456Y-93644784D01*
X171514853Y-93792354D01*
X171389354Y-93917853D01*
X171241784Y-94016456D01*
X171077812Y-94084376D01*
X170928512Y-94114073D01*
X170903742Y-94119000D01*
X170726258Y-94119000D01*
X170701488Y-94114073D01*
X170552188Y-94084376D01*
X170388216Y-94016456D01*
X170240646Y-93917853D01*
X170115147Y-93792354D01*
X170016544Y-93644784D01*
X169948624Y-93480812D01*
X169914000Y-93306741D01*
X169914000Y-93129259D01*
X169948624Y-92955188D01*
X170016544Y-92791216D01*
X170115147Y-92643646D01*
X170240646Y-92518147D01*
X170388216Y-92419544D01*
X170552188Y-92351624D01*
X170701488Y-92321927D01*
X170726258Y-92317000D01*
X170903742Y-92317000D01*
X170928512Y-92321927D01*
G37*
G36*
X169176000Y-94119000D02*
G01*
X167374000Y-94119000D01*
X167374000Y-92317000D01*
X169176000Y-92317000D01*
X169176000Y-94119000D01*
G37*
G36*
X123098000Y-92348000D02*
G01*
X120996000Y-92348000D01*
X120996000Y-88246000D01*
X123098000Y-88246000D01*
X123098000Y-92348000D01*
G37*
G36*
X116253032Y-88611207D02*
G01*
X116451146Y-88671305D01*
X116451149Y-88671306D01*
X116547975Y-88723061D01*
X116633729Y-88768897D01*
X116793765Y-88900235D01*
X116925103Y-89060271D01*
X116970939Y-89146025D01*
X117022694Y-89242851D01*
X117022695Y-89242854D01*
X117082793Y-89440968D01*
X117098000Y-89595370D01*
X117098000Y-90998630D01*
X117082793Y-91153032D01*
X117022695Y-91351145D01*
X117022694Y-91351149D01*
X116970939Y-91447975D01*
X116925103Y-91533729D01*
X116793765Y-91693765D01*
X116633729Y-91825103D01*
X116517030Y-91887479D01*
X116451148Y-91922694D01*
X116451145Y-91922695D01*
X116253031Y-91982793D01*
X116047000Y-92003085D01*
X115840968Y-91982793D01*
X115642854Y-91922695D01*
X115642851Y-91922694D01*
X115546025Y-91870939D01*
X115460271Y-91825103D01*
X115300235Y-91693765D01*
X115168897Y-91533729D01*
X115071307Y-91351149D01*
X115071306Y-91351148D01*
X115071305Y-91351145D01*
X115011207Y-91153031D01*
X114996000Y-90998629D01*
X114996000Y-89595369D01*
X115011207Y-89440970D01*
X115071305Y-89242853D01*
X115146184Y-89102765D01*
X115168898Y-89060271D01*
X115300236Y-88900235D01*
X115460272Y-88768897D01*
X115546026Y-88723061D01*
X115642852Y-88671306D01*
X115642855Y-88671305D01*
X115840969Y-88611207D01*
X116047000Y-88590915D01*
X116253032Y-88611207D01*
G37*
G36*
X113295228Y-89478703D02*
G01*
X113450100Y-89542853D01*
X113589481Y-89635985D01*
X113708015Y-89754519D01*
X113801147Y-89893900D01*
X113865297Y-90048772D01*
X113898000Y-90213184D01*
X113898000Y-90380816D01*
X113865297Y-90545228D01*
X113801147Y-90700100D01*
X113708015Y-90839481D01*
X113589481Y-90958015D01*
X113450100Y-91051147D01*
X113295228Y-91115297D01*
X113130816Y-91148000D01*
X112963184Y-91148000D01*
X112798772Y-91115297D01*
X112643900Y-91051147D01*
X112504519Y-90958015D01*
X112385985Y-90839481D01*
X112292853Y-90700100D01*
X112228703Y-90545228D01*
X112196000Y-90380816D01*
X112196000Y-90213184D01*
X112228703Y-90048772D01*
X112292853Y-89893900D01*
X112385985Y-89754519D01*
X112504519Y-89635985D01*
X112643900Y-89542853D01*
X112798772Y-89478703D01*
X112963184Y-89446000D01*
X113130816Y-89446000D01*
X113295228Y-89478703D01*
G37*
G36*
X144766512Y-86098927D02*
G01*
X144915812Y-86128624D01*
X145079784Y-86196544D01*
X145227354Y-86295147D01*
X145352853Y-86420646D01*
X145451456Y-86568216D01*
X145519376Y-86732188D01*
X145554000Y-86906259D01*
X145554000Y-87083741D01*
X145519376Y-87257812D01*
X145451456Y-87421784D01*
X145352853Y-87569354D01*
X145227354Y-87694853D01*
X145079784Y-87793456D01*
X144915812Y-87861376D01*
X144766512Y-87891073D01*
X144741742Y-87896000D01*
X144564258Y-87896000D01*
X144539488Y-87891073D01*
X144390188Y-87861376D01*
X144226216Y-87793456D01*
X144078646Y-87694853D01*
X143953147Y-87569354D01*
X143854544Y-87421784D01*
X143786624Y-87257812D01*
X143752000Y-87083741D01*
X143752000Y-86906259D01*
X143786624Y-86732188D01*
X143854544Y-86568216D01*
X143953147Y-86420646D01*
X144078646Y-86295147D01*
X144226216Y-86196544D01*
X144390188Y-86128624D01*
X144539488Y-86098927D01*
X144564258Y-86094000D01*
X144741742Y-86094000D01*
X144766512Y-86098927D01*
G37*
G36*
X142226512Y-86098927D02*
G01*
X142375812Y-86128624D01*
X142539784Y-86196544D01*
X142687354Y-86295147D01*
X142812853Y-86420646D01*
X142911456Y-86568216D01*
X142979376Y-86732188D01*
X143014000Y-86906259D01*
X143014000Y-87083741D01*
X142979376Y-87257812D01*
X142911456Y-87421784D01*
X142812853Y-87569354D01*
X142687354Y-87694853D01*
X142539784Y-87793456D01*
X142375812Y-87861376D01*
X142226512Y-87891073D01*
X142201742Y-87896000D01*
X142024258Y-87896000D01*
X141999488Y-87891073D01*
X141850188Y-87861376D01*
X141686216Y-87793456D01*
X141538646Y-87694853D01*
X141413147Y-87569354D01*
X141314544Y-87421784D01*
X141246624Y-87257812D01*
X141212000Y-87083741D01*
X141212000Y-86906259D01*
X141246624Y-86732188D01*
X141314544Y-86568216D01*
X141413147Y-86420646D01*
X141538646Y-86295147D01*
X141686216Y-86196544D01*
X141850188Y-86128624D01*
X141999488Y-86098927D01*
X142024258Y-86094000D01*
X142201742Y-86094000D01*
X142226512Y-86098927D01*
G37*
G36*
X148094000Y-87896000D02*
G01*
X146292000Y-87896000D01*
X146292000Y-86094000D01*
X148094000Y-86094000D01*
X148094000Y-87896000D01*
G37*
G36*
X139686512Y-86098927D02*
G01*
X139835812Y-86128624D01*
X139999784Y-86196544D01*
X140147354Y-86295147D01*
X140272853Y-86420646D01*
X140371456Y-86568216D01*
X140439376Y-86732188D01*
X140474000Y-86906259D01*
X140474000Y-87083741D01*
X140439376Y-87257812D01*
X140371456Y-87421784D01*
X140272853Y-87569354D01*
X140147354Y-87694853D01*
X139999784Y-87793456D01*
X139835812Y-87861376D01*
X139686512Y-87891073D01*
X139661742Y-87896000D01*
X139484258Y-87896000D01*
X139459488Y-87891073D01*
X139310188Y-87861376D01*
X139146216Y-87793456D01*
X138998646Y-87694853D01*
X138873147Y-87569354D01*
X138774544Y-87421784D01*
X138706624Y-87257812D01*
X138672000Y-87083741D01*
X138672000Y-86906259D01*
X138706624Y-86732188D01*
X138774544Y-86568216D01*
X138873147Y-86420646D01*
X138998646Y-86295147D01*
X139146216Y-86196544D01*
X139310188Y-86128624D01*
X139459488Y-86098927D01*
X139484258Y-86094000D01*
X139661742Y-86094000D01*
X139686512Y-86098927D01*
G37*
G36*
X169404512Y-85844927D02*
G01*
X169553812Y-85874624D01*
X169717784Y-85942544D01*
X169865354Y-86041147D01*
X169990853Y-86166646D01*
X170089456Y-86314216D01*
X170157376Y-86478188D01*
X170192000Y-86652259D01*
X170192000Y-86829741D01*
X170157376Y-87003812D01*
X170089456Y-87167784D01*
X169990853Y-87315354D01*
X169865354Y-87440853D01*
X169717784Y-87539456D01*
X169553812Y-87607376D01*
X169404512Y-87637073D01*
X169379742Y-87642000D01*
X169202258Y-87642000D01*
X169177488Y-87637073D01*
X169028188Y-87607376D01*
X168864216Y-87539456D01*
X168716646Y-87440853D01*
X168591147Y-87315354D01*
X168492544Y-87167784D01*
X168424624Y-87003812D01*
X168390000Y-86829741D01*
X168390000Y-86652259D01*
X168424624Y-86478188D01*
X168492544Y-86314216D01*
X168591147Y-86166646D01*
X168716646Y-86041147D01*
X168864216Y-85942544D01*
X169028188Y-85874624D01*
X169177488Y-85844927D01*
X169202258Y-85840000D01*
X169379742Y-85840000D01*
X169404512Y-85844927D01*
G37*
G36*
X154164512Y-85844927D02*
G01*
X154313812Y-85874624D01*
X154477784Y-85942544D01*
X154625354Y-86041147D01*
X154750853Y-86166646D01*
X154849456Y-86314216D01*
X154917376Y-86478188D01*
X154952000Y-86652259D01*
X154952000Y-86829741D01*
X154917376Y-87003812D01*
X154849456Y-87167784D01*
X154750853Y-87315354D01*
X154625354Y-87440853D01*
X154477784Y-87539456D01*
X154313812Y-87607376D01*
X154164512Y-87637073D01*
X154139742Y-87642000D01*
X153962258Y-87642000D01*
X153937488Y-87637073D01*
X153788188Y-87607376D01*
X153624216Y-87539456D01*
X153476646Y-87440853D01*
X153351147Y-87315354D01*
X153252544Y-87167784D01*
X153184624Y-87003812D01*
X153150000Y-86829741D01*
X153150000Y-86652259D01*
X153184624Y-86478188D01*
X153252544Y-86314216D01*
X153351147Y-86166646D01*
X153476646Y-86041147D01*
X153624216Y-85942544D01*
X153788188Y-85874624D01*
X153937488Y-85844927D01*
X153962258Y-85840000D01*
X154139742Y-85840000D01*
X154164512Y-85844927D01*
G37*
G36*
X156704512Y-85844927D02*
G01*
X156853812Y-85874624D01*
X157017784Y-85942544D01*
X157165354Y-86041147D01*
X157290853Y-86166646D01*
X157389456Y-86314216D01*
X157457376Y-86478188D01*
X157492000Y-86652259D01*
X157492000Y-86829741D01*
X157457376Y-87003812D01*
X157389456Y-87167784D01*
X157290853Y-87315354D01*
X157165354Y-87440853D01*
X157017784Y-87539456D01*
X156853812Y-87607376D01*
X156704512Y-87637073D01*
X156679742Y-87642000D01*
X156502258Y-87642000D01*
X156477488Y-87637073D01*
X156328188Y-87607376D01*
X156164216Y-87539456D01*
X156016646Y-87440853D01*
X155891147Y-87315354D01*
X155792544Y-87167784D01*
X155724624Y-87003812D01*
X155690000Y-86829741D01*
X155690000Y-86652259D01*
X155724624Y-86478188D01*
X155792544Y-86314216D01*
X155891147Y-86166646D01*
X156016646Y-86041147D01*
X156164216Y-85942544D01*
X156328188Y-85874624D01*
X156477488Y-85844927D01*
X156502258Y-85840000D01*
X156679742Y-85840000D01*
X156704512Y-85844927D01*
G37*
G36*
X159244512Y-85844927D02*
G01*
X159393812Y-85874624D01*
X159557784Y-85942544D01*
X159705354Y-86041147D01*
X159830853Y-86166646D01*
X159929456Y-86314216D01*
X159997376Y-86478188D01*
X160032000Y-86652259D01*
X160032000Y-86829741D01*
X159997376Y-87003812D01*
X159929456Y-87167784D01*
X159830853Y-87315354D01*
X159705354Y-87440853D01*
X159557784Y-87539456D01*
X159393812Y-87607376D01*
X159244512Y-87637073D01*
X159219742Y-87642000D01*
X159042258Y-87642000D01*
X159017488Y-87637073D01*
X158868188Y-87607376D01*
X158704216Y-87539456D01*
X158556646Y-87440853D01*
X158431147Y-87315354D01*
X158332544Y-87167784D01*
X158264624Y-87003812D01*
X158230000Y-86829741D01*
X158230000Y-86652259D01*
X158264624Y-86478188D01*
X158332544Y-86314216D01*
X158431147Y-86166646D01*
X158556646Y-86041147D01*
X158704216Y-85942544D01*
X158868188Y-85874624D01*
X159017488Y-85844927D01*
X159042258Y-85840000D01*
X159219742Y-85840000D01*
X159244512Y-85844927D01*
G37*
G36*
X161784512Y-85844927D02*
G01*
X161933812Y-85874624D01*
X162097784Y-85942544D01*
X162245354Y-86041147D01*
X162370853Y-86166646D01*
X162469456Y-86314216D01*
X162537376Y-86478188D01*
X162572000Y-86652259D01*
X162572000Y-86829741D01*
X162537376Y-87003812D01*
X162469456Y-87167784D01*
X162370853Y-87315354D01*
X162245354Y-87440853D01*
X162097784Y-87539456D01*
X161933812Y-87607376D01*
X161784512Y-87637073D01*
X161759742Y-87642000D01*
X161582258Y-87642000D01*
X161557488Y-87637073D01*
X161408188Y-87607376D01*
X161244216Y-87539456D01*
X161096646Y-87440853D01*
X160971147Y-87315354D01*
X160872544Y-87167784D01*
X160804624Y-87003812D01*
X160770000Y-86829741D01*
X160770000Y-86652259D01*
X160804624Y-86478188D01*
X160872544Y-86314216D01*
X160971147Y-86166646D01*
X161096646Y-86041147D01*
X161244216Y-85942544D01*
X161408188Y-85874624D01*
X161557488Y-85844927D01*
X161582258Y-85840000D01*
X161759742Y-85840000D01*
X161784512Y-85844927D01*
G37*
G36*
X164324512Y-85844927D02*
G01*
X164473812Y-85874624D01*
X164637784Y-85942544D01*
X164785354Y-86041147D01*
X164910853Y-86166646D01*
X165009456Y-86314216D01*
X165077376Y-86478188D01*
X165112000Y-86652259D01*
X165112000Y-86829741D01*
X165077376Y-87003812D01*
X165009456Y-87167784D01*
X164910853Y-87315354D01*
X164785354Y-87440853D01*
X164637784Y-87539456D01*
X164473812Y-87607376D01*
X164324512Y-87637073D01*
X164299742Y-87642000D01*
X164122258Y-87642000D01*
X164097488Y-87637073D01*
X163948188Y-87607376D01*
X163784216Y-87539456D01*
X163636646Y-87440853D01*
X163511147Y-87315354D01*
X163412544Y-87167784D01*
X163344624Y-87003812D01*
X163310000Y-86829741D01*
X163310000Y-86652259D01*
X163344624Y-86478188D01*
X163412544Y-86314216D01*
X163511147Y-86166646D01*
X163636646Y-86041147D01*
X163784216Y-85942544D01*
X163948188Y-85874624D01*
X164097488Y-85844927D01*
X164122258Y-85840000D01*
X164299742Y-85840000D01*
X164324512Y-85844927D01*
G37*
G36*
X166864512Y-85844927D02*
G01*
X167013812Y-85874624D01*
X167177784Y-85942544D01*
X167325354Y-86041147D01*
X167450853Y-86166646D01*
X167549456Y-86314216D01*
X167617376Y-86478188D01*
X167652000Y-86652259D01*
X167652000Y-86829741D01*
X167617376Y-87003812D01*
X167549456Y-87167784D01*
X167450853Y-87315354D01*
X167325354Y-87440853D01*
X167177784Y-87539456D01*
X167013812Y-87607376D01*
X166864512Y-87637073D01*
X166839742Y-87642000D01*
X166662258Y-87642000D01*
X166637488Y-87637073D01*
X166488188Y-87607376D01*
X166324216Y-87539456D01*
X166176646Y-87440853D01*
X166051147Y-87315354D01*
X165952544Y-87167784D01*
X165884624Y-87003812D01*
X165850000Y-86829741D01*
X165850000Y-86652259D01*
X165884624Y-86478188D01*
X165952544Y-86314216D01*
X166051147Y-86166646D01*
X166176646Y-86041147D01*
X166324216Y-85942544D01*
X166488188Y-85874624D01*
X166637488Y-85844927D01*
X166662258Y-85840000D01*
X166839742Y-85840000D01*
X166864512Y-85844927D01*
G37*
G36*
X172732000Y-87642000D02*
G01*
X170930000Y-87642000D01*
X170930000Y-85840000D01*
X172732000Y-85840000D01*
X172732000Y-87642000D01*
G37*
G36*
X115900097Y-84751069D02*
G01*
X116003032Y-84761207D01*
X116201146Y-84821305D01*
X116201149Y-84821306D01*
X116297975Y-84873061D01*
X116383729Y-84918897D01*
X116543765Y-85050235D01*
X116675103Y-85210271D01*
X116720939Y-85296025D01*
X116772694Y-85392851D01*
X116772695Y-85392854D01*
X116832793Y-85590968D01*
X116853085Y-85797000D01*
X116832793Y-86003032D01*
X116783160Y-86166647D01*
X116772694Y-86201149D01*
X116722451Y-86295147D01*
X116675103Y-86383729D01*
X116543765Y-86543765D01*
X116383729Y-86675103D01*
X116297975Y-86720939D01*
X116201149Y-86772694D01*
X116201146Y-86772695D01*
X116003032Y-86832793D01*
X115900097Y-86842931D01*
X115848631Y-86848000D01*
X114245369Y-86848000D01*
X114193903Y-86842931D01*
X114090968Y-86832793D01*
X113892854Y-86772695D01*
X113892851Y-86772694D01*
X113796025Y-86720939D01*
X113710271Y-86675103D01*
X113550235Y-86543765D01*
X113418897Y-86383729D01*
X113371549Y-86295147D01*
X113321306Y-86201149D01*
X113310840Y-86166647D01*
X113261207Y-86003032D01*
X113240915Y-85797000D01*
X113261207Y-85590968D01*
X113321305Y-85392854D01*
X113321306Y-85392851D01*
X113373061Y-85296025D01*
X113418897Y-85210271D01*
X113550235Y-85050235D01*
X113710271Y-84918897D01*
X113796025Y-84873061D01*
X113892851Y-84821306D01*
X113892854Y-84821305D01*
X114090968Y-84761207D01*
X114193903Y-84751069D01*
X114245369Y-84746000D01*
X115848631Y-84746000D01*
X115900097Y-84751069D01*
G37*
M02*
