G04 #@! TF.GenerationSoftware,KiCad,Pcbnew,(5.1.5)-3*
G04 #@! TF.CreationDate,2020-06-01T17:25:31+02:00*
G04 #@! TF.ProjectId,aurduino_ng,61757264-7569-46e6-9f5f-6e672e6b6963,rev?*
G04 #@! TF.SameCoordinates,Original*
G04 #@! TF.FileFunction,Soldermask,Top*
G04 #@! TF.FilePolarity,Negative*
%FSLAX46Y46*%
G04 Gerber Fmt 4.6, Leading zero omitted, Abs format (unit mm)*
G04 Created by KiCad (PCBNEW (5.1.5)-3) date 2020-06-01 17:25:31*
%MOMM*%
%LPD*%
G04 APERTURE LIST*
%ADD10C,0.100000*%
G04 APERTURE END LIST*
D10*
G36*
X136765512Y-133723927D02*
G01*
X136914812Y-133753624D01*
X137078784Y-133821544D01*
X137226354Y-133920147D01*
X137351853Y-134045646D01*
X137450456Y-134193216D01*
X137518376Y-134357188D01*
X137553000Y-134531259D01*
X137553000Y-134708741D01*
X137518376Y-134882812D01*
X137450456Y-135046784D01*
X137351853Y-135194354D01*
X137226354Y-135319853D01*
X137078784Y-135418456D01*
X136914812Y-135486376D01*
X136765512Y-135516073D01*
X136740742Y-135521000D01*
X136563258Y-135521000D01*
X136538488Y-135516073D01*
X136389188Y-135486376D01*
X136225216Y-135418456D01*
X136077646Y-135319853D01*
X135952147Y-135194354D01*
X135853544Y-135046784D01*
X135785624Y-134882812D01*
X135751000Y-134708741D01*
X135751000Y-134531259D01*
X135785624Y-134357188D01*
X135853544Y-134193216D01*
X135952147Y-134045646D01*
X136077646Y-133920147D01*
X136225216Y-133821544D01*
X136389188Y-133753624D01*
X136538488Y-133723927D01*
X136563258Y-133719000D01*
X136740742Y-133719000D01*
X136765512Y-133723927D01*
G37*
G36*
X169023512Y-133723927D02*
G01*
X169172812Y-133753624D01*
X169336784Y-133821544D01*
X169484354Y-133920147D01*
X169609853Y-134045646D01*
X169708456Y-134193216D01*
X169776376Y-134357188D01*
X169811000Y-134531259D01*
X169811000Y-134708741D01*
X169776376Y-134882812D01*
X169708456Y-135046784D01*
X169609853Y-135194354D01*
X169484354Y-135319853D01*
X169336784Y-135418456D01*
X169172812Y-135486376D01*
X169023512Y-135516073D01*
X168998742Y-135521000D01*
X168821258Y-135521000D01*
X168796488Y-135516073D01*
X168647188Y-135486376D01*
X168483216Y-135418456D01*
X168335646Y-135319853D01*
X168210147Y-135194354D01*
X168111544Y-135046784D01*
X168043624Y-134882812D01*
X168009000Y-134708741D01*
X168009000Y-134531259D01*
X168043624Y-134357188D01*
X168111544Y-134193216D01*
X168210147Y-134045646D01*
X168335646Y-133920147D01*
X168483216Y-133821544D01*
X168647188Y-133753624D01*
X168796488Y-133723927D01*
X168821258Y-133719000D01*
X168998742Y-133719000D01*
X169023512Y-133723927D01*
G37*
G36*
X154571000Y-135521000D02*
G01*
X152769000Y-135521000D01*
X152769000Y-133719000D01*
X154571000Y-133719000D01*
X154571000Y-135521000D01*
G37*
G36*
X156323512Y-133723927D02*
G01*
X156472812Y-133753624D01*
X156636784Y-133821544D01*
X156784354Y-133920147D01*
X156909853Y-134045646D01*
X157008456Y-134193216D01*
X157076376Y-134357188D01*
X157111000Y-134531259D01*
X157111000Y-134708741D01*
X157076376Y-134882812D01*
X157008456Y-135046784D01*
X156909853Y-135194354D01*
X156784354Y-135319853D01*
X156636784Y-135418456D01*
X156472812Y-135486376D01*
X156323512Y-135516073D01*
X156298742Y-135521000D01*
X156121258Y-135521000D01*
X156096488Y-135516073D01*
X155947188Y-135486376D01*
X155783216Y-135418456D01*
X155635646Y-135319853D01*
X155510147Y-135194354D01*
X155411544Y-135046784D01*
X155343624Y-134882812D01*
X155309000Y-134708741D01*
X155309000Y-134531259D01*
X155343624Y-134357188D01*
X155411544Y-134193216D01*
X155510147Y-134045646D01*
X155635646Y-133920147D01*
X155783216Y-133821544D01*
X155947188Y-133753624D01*
X156096488Y-133723927D01*
X156121258Y-133719000D01*
X156298742Y-133719000D01*
X156323512Y-133723927D01*
G37*
G36*
X158863512Y-133723927D02*
G01*
X159012812Y-133753624D01*
X159176784Y-133821544D01*
X159324354Y-133920147D01*
X159449853Y-134045646D01*
X159548456Y-134193216D01*
X159616376Y-134357188D01*
X159651000Y-134531259D01*
X159651000Y-134708741D01*
X159616376Y-134882812D01*
X159548456Y-135046784D01*
X159449853Y-135194354D01*
X159324354Y-135319853D01*
X159176784Y-135418456D01*
X159012812Y-135486376D01*
X158863512Y-135516073D01*
X158838742Y-135521000D01*
X158661258Y-135521000D01*
X158636488Y-135516073D01*
X158487188Y-135486376D01*
X158323216Y-135418456D01*
X158175646Y-135319853D01*
X158050147Y-135194354D01*
X157951544Y-135046784D01*
X157883624Y-134882812D01*
X157849000Y-134708741D01*
X157849000Y-134531259D01*
X157883624Y-134357188D01*
X157951544Y-134193216D01*
X158050147Y-134045646D01*
X158175646Y-133920147D01*
X158323216Y-133821544D01*
X158487188Y-133753624D01*
X158636488Y-133723927D01*
X158661258Y-133719000D01*
X158838742Y-133719000D01*
X158863512Y-133723927D01*
G37*
G36*
X161403512Y-133723927D02*
G01*
X161552812Y-133753624D01*
X161716784Y-133821544D01*
X161864354Y-133920147D01*
X161989853Y-134045646D01*
X162088456Y-134193216D01*
X162156376Y-134357188D01*
X162191000Y-134531259D01*
X162191000Y-134708741D01*
X162156376Y-134882812D01*
X162088456Y-135046784D01*
X161989853Y-135194354D01*
X161864354Y-135319853D01*
X161716784Y-135418456D01*
X161552812Y-135486376D01*
X161403512Y-135516073D01*
X161378742Y-135521000D01*
X161201258Y-135521000D01*
X161176488Y-135516073D01*
X161027188Y-135486376D01*
X160863216Y-135418456D01*
X160715646Y-135319853D01*
X160590147Y-135194354D01*
X160491544Y-135046784D01*
X160423624Y-134882812D01*
X160389000Y-134708741D01*
X160389000Y-134531259D01*
X160423624Y-134357188D01*
X160491544Y-134193216D01*
X160590147Y-134045646D01*
X160715646Y-133920147D01*
X160863216Y-133821544D01*
X161027188Y-133753624D01*
X161176488Y-133723927D01*
X161201258Y-133719000D01*
X161378742Y-133719000D01*
X161403512Y-133723927D01*
G37*
G36*
X163943512Y-133723927D02*
G01*
X164092812Y-133753624D01*
X164256784Y-133821544D01*
X164404354Y-133920147D01*
X164529853Y-134045646D01*
X164628456Y-134193216D01*
X164696376Y-134357188D01*
X164731000Y-134531259D01*
X164731000Y-134708741D01*
X164696376Y-134882812D01*
X164628456Y-135046784D01*
X164529853Y-135194354D01*
X164404354Y-135319853D01*
X164256784Y-135418456D01*
X164092812Y-135486376D01*
X163943512Y-135516073D01*
X163918742Y-135521000D01*
X163741258Y-135521000D01*
X163716488Y-135516073D01*
X163567188Y-135486376D01*
X163403216Y-135418456D01*
X163255646Y-135319853D01*
X163130147Y-135194354D01*
X163031544Y-135046784D01*
X162963624Y-134882812D01*
X162929000Y-134708741D01*
X162929000Y-134531259D01*
X162963624Y-134357188D01*
X163031544Y-134193216D01*
X163130147Y-134045646D01*
X163255646Y-133920147D01*
X163403216Y-133821544D01*
X163567188Y-133753624D01*
X163716488Y-133723927D01*
X163741258Y-133719000D01*
X163918742Y-133719000D01*
X163943512Y-133723927D01*
G37*
G36*
X166483512Y-133723927D02*
G01*
X166632812Y-133753624D01*
X166796784Y-133821544D01*
X166944354Y-133920147D01*
X167069853Y-134045646D01*
X167168456Y-134193216D01*
X167236376Y-134357188D01*
X167271000Y-134531259D01*
X167271000Y-134708741D01*
X167236376Y-134882812D01*
X167168456Y-135046784D01*
X167069853Y-135194354D01*
X166944354Y-135319853D01*
X166796784Y-135418456D01*
X166632812Y-135486376D01*
X166483512Y-135516073D01*
X166458742Y-135521000D01*
X166281258Y-135521000D01*
X166256488Y-135516073D01*
X166107188Y-135486376D01*
X165943216Y-135418456D01*
X165795646Y-135319853D01*
X165670147Y-135194354D01*
X165571544Y-135046784D01*
X165503624Y-134882812D01*
X165469000Y-134708741D01*
X165469000Y-134531259D01*
X165503624Y-134357188D01*
X165571544Y-134193216D01*
X165670147Y-134045646D01*
X165795646Y-133920147D01*
X165943216Y-133821544D01*
X166107188Y-133753624D01*
X166256488Y-133723927D01*
X166281258Y-133719000D01*
X166458742Y-133719000D01*
X166483512Y-133723927D01*
G37*
G36*
X150253000Y-135521000D02*
G01*
X148451000Y-135521000D01*
X148451000Y-133719000D01*
X150253000Y-133719000D01*
X150253000Y-135521000D01*
G37*
G36*
X146925512Y-133723927D02*
G01*
X147074812Y-133753624D01*
X147238784Y-133821544D01*
X147386354Y-133920147D01*
X147511853Y-134045646D01*
X147610456Y-134193216D01*
X147678376Y-134357188D01*
X147713000Y-134531259D01*
X147713000Y-134708741D01*
X147678376Y-134882812D01*
X147610456Y-135046784D01*
X147511853Y-135194354D01*
X147386354Y-135319853D01*
X147238784Y-135418456D01*
X147074812Y-135486376D01*
X146925512Y-135516073D01*
X146900742Y-135521000D01*
X146723258Y-135521000D01*
X146698488Y-135516073D01*
X146549188Y-135486376D01*
X146385216Y-135418456D01*
X146237646Y-135319853D01*
X146112147Y-135194354D01*
X146013544Y-135046784D01*
X145945624Y-134882812D01*
X145911000Y-134708741D01*
X145911000Y-134531259D01*
X145945624Y-134357188D01*
X146013544Y-134193216D01*
X146112147Y-134045646D01*
X146237646Y-133920147D01*
X146385216Y-133821544D01*
X146549188Y-133753624D01*
X146698488Y-133723927D01*
X146723258Y-133719000D01*
X146900742Y-133719000D01*
X146925512Y-133723927D01*
G37*
G36*
X144385512Y-133723927D02*
G01*
X144534812Y-133753624D01*
X144698784Y-133821544D01*
X144846354Y-133920147D01*
X144971853Y-134045646D01*
X145070456Y-134193216D01*
X145138376Y-134357188D01*
X145173000Y-134531259D01*
X145173000Y-134708741D01*
X145138376Y-134882812D01*
X145070456Y-135046784D01*
X144971853Y-135194354D01*
X144846354Y-135319853D01*
X144698784Y-135418456D01*
X144534812Y-135486376D01*
X144385512Y-135516073D01*
X144360742Y-135521000D01*
X144183258Y-135521000D01*
X144158488Y-135516073D01*
X144009188Y-135486376D01*
X143845216Y-135418456D01*
X143697646Y-135319853D01*
X143572147Y-135194354D01*
X143473544Y-135046784D01*
X143405624Y-134882812D01*
X143371000Y-134708741D01*
X143371000Y-134531259D01*
X143405624Y-134357188D01*
X143473544Y-134193216D01*
X143572147Y-134045646D01*
X143697646Y-133920147D01*
X143845216Y-133821544D01*
X144009188Y-133753624D01*
X144158488Y-133723927D01*
X144183258Y-133719000D01*
X144360742Y-133719000D01*
X144385512Y-133723927D01*
G37*
G36*
X141845512Y-133723927D02*
G01*
X141994812Y-133753624D01*
X142158784Y-133821544D01*
X142306354Y-133920147D01*
X142431853Y-134045646D01*
X142530456Y-134193216D01*
X142598376Y-134357188D01*
X142633000Y-134531259D01*
X142633000Y-134708741D01*
X142598376Y-134882812D01*
X142530456Y-135046784D01*
X142431853Y-135194354D01*
X142306354Y-135319853D01*
X142158784Y-135418456D01*
X141994812Y-135486376D01*
X141845512Y-135516073D01*
X141820742Y-135521000D01*
X141643258Y-135521000D01*
X141618488Y-135516073D01*
X141469188Y-135486376D01*
X141305216Y-135418456D01*
X141157646Y-135319853D01*
X141032147Y-135194354D01*
X140933544Y-135046784D01*
X140865624Y-134882812D01*
X140831000Y-134708741D01*
X140831000Y-134531259D01*
X140865624Y-134357188D01*
X140933544Y-134193216D01*
X141032147Y-134045646D01*
X141157646Y-133920147D01*
X141305216Y-133821544D01*
X141469188Y-133753624D01*
X141618488Y-133723927D01*
X141643258Y-133719000D01*
X141820742Y-133719000D01*
X141845512Y-133723927D01*
G37*
G36*
X139305512Y-133723927D02*
G01*
X139454812Y-133753624D01*
X139618784Y-133821544D01*
X139766354Y-133920147D01*
X139891853Y-134045646D01*
X139990456Y-134193216D01*
X140058376Y-134357188D01*
X140093000Y-134531259D01*
X140093000Y-134708741D01*
X140058376Y-134882812D01*
X139990456Y-135046784D01*
X139891853Y-135194354D01*
X139766354Y-135319853D01*
X139618784Y-135418456D01*
X139454812Y-135486376D01*
X139305512Y-135516073D01*
X139280742Y-135521000D01*
X139103258Y-135521000D01*
X139078488Y-135516073D01*
X138929188Y-135486376D01*
X138765216Y-135418456D01*
X138617646Y-135319853D01*
X138492147Y-135194354D01*
X138393544Y-135046784D01*
X138325624Y-134882812D01*
X138291000Y-134708741D01*
X138291000Y-134531259D01*
X138325624Y-134357188D01*
X138393544Y-134193216D01*
X138492147Y-134045646D01*
X138617646Y-133920147D01*
X138765216Y-133821544D01*
X138929188Y-133753624D01*
X139078488Y-133723927D01*
X139103258Y-133719000D01*
X139280742Y-133719000D01*
X139305512Y-133723927D01*
G37*
G36*
X171563512Y-133723927D02*
G01*
X171712812Y-133753624D01*
X171876784Y-133821544D01*
X172024354Y-133920147D01*
X172149853Y-134045646D01*
X172248456Y-134193216D01*
X172316376Y-134357188D01*
X172351000Y-134531259D01*
X172351000Y-134708741D01*
X172316376Y-134882812D01*
X172248456Y-135046784D01*
X172149853Y-135194354D01*
X172024354Y-135319853D01*
X171876784Y-135418456D01*
X171712812Y-135486376D01*
X171563512Y-135516073D01*
X171538742Y-135521000D01*
X171361258Y-135521000D01*
X171336488Y-135516073D01*
X171187188Y-135486376D01*
X171023216Y-135418456D01*
X170875646Y-135319853D01*
X170750147Y-135194354D01*
X170651544Y-135046784D01*
X170583624Y-134882812D01*
X170549000Y-134708741D01*
X170549000Y-134531259D01*
X170583624Y-134357188D01*
X170651544Y-134193216D01*
X170750147Y-134045646D01*
X170875646Y-133920147D01*
X171023216Y-133821544D01*
X171187188Y-133753624D01*
X171336488Y-133723927D01*
X171361258Y-133719000D01*
X171538742Y-133719000D01*
X171563512Y-133723927D01*
G37*
G36*
X148086604Y-129761347D02*
G01*
X148123144Y-129772432D01*
X148156821Y-129790433D01*
X148186341Y-129814659D01*
X148210567Y-129844179D01*
X148228568Y-129877856D01*
X148239653Y-129914396D01*
X148244000Y-129958538D01*
X148244000Y-131407462D01*
X148239653Y-131451604D01*
X148228568Y-131488144D01*
X148210567Y-131521821D01*
X148186341Y-131551341D01*
X148156821Y-131575567D01*
X148123144Y-131593568D01*
X148086604Y-131604653D01*
X148042462Y-131609000D01*
X147093538Y-131609000D01*
X147049396Y-131604653D01*
X147012856Y-131593568D01*
X146979179Y-131575567D01*
X146949659Y-131551341D01*
X146925433Y-131521821D01*
X146907432Y-131488144D01*
X146896347Y-131451604D01*
X146892000Y-131407462D01*
X146892000Y-129958538D01*
X146896347Y-129914396D01*
X146907432Y-129877856D01*
X146925433Y-129844179D01*
X146949659Y-129814659D01*
X146979179Y-129790433D01*
X147012856Y-129772432D01*
X147049396Y-129761347D01*
X147093538Y-129757000D01*
X148042462Y-129757000D01*
X148086604Y-129761347D01*
G37*
G36*
X150886604Y-129761347D02*
G01*
X150923144Y-129772432D01*
X150956821Y-129790433D01*
X150986341Y-129814659D01*
X151010567Y-129844179D01*
X151028568Y-129877856D01*
X151039653Y-129914396D01*
X151044000Y-129958538D01*
X151044000Y-131407462D01*
X151039653Y-131451604D01*
X151028568Y-131488144D01*
X151010567Y-131521821D01*
X150986341Y-131551341D01*
X150956821Y-131575567D01*
X150923144Y-131593568D01*
X150886604Y-131604653D01*
X150842462Y-131609000D01*
X149893538Y-131609000D01*
X149849396Y-131604653D01*
X149812856Y-131593568D01*
X149779179Y-131575567D01*
X149749659Y-131551341D01*
X149725433Y-131521821D01*
X149707432Y-131488144D01*
X149696347Y-131451604D01*
X149692000Y-131407462D01*
X149692000Y-129958538D01*
X149696347Y-129914396D01*
X149707432Y-129877856D01*
X149725433Y-129844179D01*
X149749659Y-129814659D01*
X149779179Y-129790433D01*
X149812856Y-129772432D01*
X149849396Y-129761347D01*
X149893538Y-129757000D01*
X150842462Y-129757000D01*
X150886604Y-129761347D01*
G37*
G36*
X154182604Y-129253347D02*
G01*
X154219144Y-129264432D01*
X154252821Y-129282433D01*
X154282341Y-129306659D01*
X154306567Y-129336179D01*
X154324568Y-129369856D01*
X154335653Y-129406396D01*
X154340000Y-129450538D01*
X154340000Y-130899462D01*
X154335653Y-130943604D01*
X154324568Y-130980144D01*
X154306567Y-131013821D01*
X154282341Y-131043341D01*
X154252821Y-131067567D01*
X154219144Y-131085568D01*
X154182604Y-131096653D01*
X154138462Y-131101000D01*
X153189538Y-131101000D01*
X153145396Y-131096653D01*
X153108856Y-131085568D01*
X153075179Y-131067567D01*
X153045659Y-131043341D01*
X153021433Y-131013821D01*
X153003432Y-130980144D01*
X152992347Y-130943604D01*
X152988000Y-130899462D01*
X152988000Y-129450538D01*
X152992347Y-129406396D01*
X153003432Y-129369856D01*
X153021433Y-129336179D01*
X153045659Y-129306659D01*
X153075179Y-129282433D01*
X153108856Y-129264432D01*
X153145396Y-129253347D01*
X153189538Y-129249000D01*
X154138462Y-129249000D01*
X154182604Y-129253347D01*
G37*
G36*
X156982604Y-129253347D02*
G01*
X157019144Y-129264432D01*
X157052821Y-129282433D01*
X157082341Y-129306659D01*
X157106567Y-129336179D01*
X157124568Y-129369856D01*
X157135653Y-129406396D01*
X157140000Y-129450538D01*
X157140000Y-130899462D01*
X157135653Y-130943604D01*
X157124568Y-130980144D01*
X157106567Y-131013821D01*
X157082341Y-131043341D01*
X157052821Y-131067567D01*
X157019144Y-131085568D01*
X156982604Y-131096653D01*
X156938462Y-131101000D01*
X155989538Y-131101000D01*
X155945396Y-131096653D01*
X155908856Y-131085568D01*
X155875179Y-131067567D01*
X155845659Y-131043341D01*
X155821433Y-131013821D01*
X155803432Y-130980144D01*
X155792347Y-130943604D01*
X155788000Y-130899462D01*
X155788000Y-129450538D01*
X155792347Y-129406396D01*
X155803432Y-129369856D01*
X155821433Y-129336179D01*
X155845659Y-129306659D01*
X155875179Y-129282433D01*
X155908856Y-129264432D01*
X155945396Y-129253347D01*
X155989538Y-129249000D01*
X156938462Y-129249000D01*
X156982604Y-129253347D01*
G37*
G36*
X159252228Y-126181703D02*
G01*
X159407100Y-126245853D01*
X159546481Y-126338985D01*
X159665015Y-126457519D01*
X159758147Y-126596900D01*
X159822297Y-126751772D01*
X159855000Y-126916184D01*
X159855000Y-127083816D01*
X159822297Y-127248228D01*
X159758147Y-127403100D01*
X159665015Y-127542481D01*
X159546481Y-127661015D01*
X159407100Y-127754147D01*
X159252228Y-127818297D01*
X159087816Y-127851000D01*
X158920184Y-127851000D01*
X158755772Y-127818297D01*
X158600900Y-127754147D01*
X158461519Y-127661015D01*
X158342985Y-127542481D01*
X158249853Y-127403100D01*
X158185703Y-127248228D01*
X158153000Y-127083816D01*
X158153000Y-126916184D01*
X158185703Y-126751772D01*
X158249853Y-126596900D01*
X158342985Y-126457519D01*
X158461519Y-126338985D01*
X158600900Y-126245853D01*
X158755772Y-126181703D01*
X158920184Y-126149000D01*
X159087816Y-126149000D01*
X159252228Y-126181703D01*
G37*
G36*
X169412228Y-126181703D02*
G01*
X169567100Y-126245853D01*
X169706481Y-126338985D01*
X169825015Y-126457519D01*
X169918147Y-126596900D01*
X169982297Y-126751772D01*
X170015000Y-126916184D01*
X170015000Y-127083816D01*
X169982297Y-127248228D01*
X169918147Y-127403100D01*
X169825015Y-127542481D01*
X169706481Y-127661015D01*
X169567100Y-127754147D01*
X169412228Y-127818297D01*
X169247816Y-127851000D01*
X169080184Y-127851000D01*
X168915772Y-127818297D01*
X168760900Y-127754147D01*
X168621519Y-127661015D01*
X168502985Y-127542481D01*
X168409853Y-127403100D01*
X168345703Y-127248228D01*
X168313000Y-127083816D01*
X168313000Y-126916184D01*
X168345703Y-126751772D01*
X168409853Y-126596900D01*
X168502985Y-126457519D01*
X168621519Y-126338985D01*
X168760900Y-126245853D01*
X168915772Y-126181703D01*
X169080184Y-126149000D01*
X169247816Y-126149000D01*
X169412228Y-126181703D01*
G37*
G36*
X171952228Y-126181703D02*
G01*
X172107100Y-126245853D01*
X172246481Y-126338985D01*
X172365015Y-126457519D01*
X172458147Y-126596900D01*
X172522297Y-126751772D01*
X172555000Y-126916184D01*
X172555000Y-127083816D01*
X172522297Y-127248228D01*
X172458147Y-127403100D01*
X172365015Y-127542481D01*
X172246481Y-127661015D01*
X172107100Y-127754147D01*
X171952228Y-127818297D01*
X171787816Y-127851000D01*
X171620184Y-127851000D01*
X171455772Y-127818297D01*
X171300900Y-127754147D01*
X171161519Y-127661015D01*
X171042985Y-127542481D01*
X170949853Y-127403100D01*
X170885703Y-127248228D01*
X170853000Y-127083816D01*
X170853000Y-126916184D01*
X170885703Y-126751772D01*
X170949853Y-126596900D01*
X171042985Y-126457519D01*
X171161519Y-126338985D01*
X171300900Y-126245853D01*
X171455772Y-126181703D01*
X171620184Y-126149000D01*
X171787816Y-126149000D01*
X171952228Y-126181703D01*
G37*
G36*
X174492228Y-126181703D02*
G01*
X174647100Y-126245853D01*
X174786481Y-126338985D01*
X174905015Y-126457519D01*
X174998147Y-126596900D01*
X175062297Y-126751772D01*
X175095000Y-126916184D01*
X175095000Y-127083816D01*
X175062297Y-127248228D01*
X174998147Y-127403100D01*
X174905015Y-127542481D01*
X174786481Y-127661015D01*
X174647100Y-127754147D01*
X174492228Y-127818297D01*
X174327816Y-127851000D01*
X174160184Y-127851000D01*
X173995772Y-127818297D01*
X173840900Y-127754147D01*
X173701519Y-127661015D01*
X173582985Y-127542481D01*
X173489853Y-127403100D01*
X173425703Y-127248228D01*
X173393000Y-127083816D01*
X173393000Y-126916184D01*
X173425703Y-126751772D01*
X173489853Y-126596900D01*
X173582985Y-126457519D01*
X173701519Y-126338985D01*
X173840900Y-126245853D01*
X173995772Y-126181703D01*
X174160184Y-126149000D01*
X174327816Y-126149000D01*
X174492228Y-126181703D01*
G37*
G36*
X154172228Y-126181703D02*
G01*
X154327100Y-126245853D01*
X154466481Y-126338985D01*
X154585015Y-126457519D01*
X154678147Y-126596900D01*
X154742297Y-126751772D01*
X154775000Y-126916184D01*
X154775000Y-127083816D01*
X154742297Y-127248228D01*
X154678147Y-127403100D01*
X154585015Y-127542481D01*
X154466481Y-127661015D01*
X154327100Y-127754147D01*
X154172228Y-127818297D01*
X154007816Y-127851000D01*
X153840184Y-127851000D01*
X153675772Y-127818297D01*
X153520900Y-127754147D01*
X153381519Y-127661015D01*
X153262985Y-127542481D01*
X153169853Y-127403100D01*
X153105703Y-127248228D01*
X153073000Y-127083816D01*
X153073000Y-126916184D01*
X153105703Y-126751772D01*
X153169853Y-126596900D01*
X153262985Y-126457519D01*
X153381519Y-126338985D01*
X153520900Y-126245853D01*
X153675772Y-126181703D01*
X153840184Y-126149000D01*
X154007816Y-126149000D01*
X154172228Y-126181703D01*
G37*
G36*
X156712228Y-126181703D02*
G01*
X156867100Y-126245853D01*
X157006481Y-126338985D01*
X157125015Y-126457519D01*
X157218147Y-126596900D01*
X157282297Y-126751772D01*
X157315000Y-126916184D01*
X157315000Y-127083816D01*
X157282297Y-127248228D01*
X157218147Y-127403100D01*
X157125015Y-127542481D01*
X157006481Y-127661015D01*
X156867100Y-127754147D01*
X156712228Y-127818297D01*
X156547816Y-127851000D01*
X156380184Y-127851000D01*
X156215772Y-127818297D01*
X156060900Y-127754147D01*
X155921519Y-127661015D01*
X155802985Y-127542481D01*
X155709853Y-127403100D01*
X155645703Y-127248228D01*
X155613000Y-127083816D01*
X155613000Y-126916184D01*
X155645703Y-126751772D01*
X155709853Y-126596900D01*
X155802985Y-126457519D01*
X155921519Y-126338985D01*
X156060900Y-126245853D01*
X156215772Y-126181703D01*
X156380184Y-126149000D01*
X156547816Y-126149000D01*
X156712228Y-126181703D01*
G37*
G36*
X161792228Y-126181703D02*
G01*
X161947100Y-126245853D01*
X162086481Y-126338985D01*
X162205015Y-126457519D01*
X162298147Y-126596900D01*
X162362297Y-126751772D01*
X162395000Y-126916184D01*
X162395000Y-127083816D01*
X162362297Y-127248228D01*
X162298147Y-127403100D01*
X162205015Y-127542481D01*
X162086481Y-127661015D01*
X161947100Y-127754147D01*
X161792228Y-127818297D01*
X161627816Y-127851000D01*
X161460184Y-127851000D01*
X161295772Y-127818297D01*
X161140900Y-127754147D01*
X161001519Y-127661015D01*
X160882985Y-127542481D01*
X160789853Y-127403100D01*
X160725703Y-127248228D01*
X160693000Y-127083816D01*
X160693000Y-126916184D01*
X160725703Y-126751772D01*
X160789853Y-126596900D01*
X160882985Y-126457519D01*
X161001519Y-126338985D01*
X161140900Y-126245853D01*
X161295772Y-126181703D01*
X161460184Y-126149000D01*
X161627816Y-126149000D01*
X161792228Y-126181703D01*
G37*
G36*
X164332228Y-126181703D02*
G01*
X164487100Y-126245853D01*
X164626481Y-126338985D01*
X164745015Y-126457519D01*
X164838147Y-126596900D01*
X164902297Y-126751772D01*
X164935000Y-126916184D01*
X164935000Y-127083816D01*
X164902297Y-127248228D01*
X164838147Y-127403100D01*
X164745015Y-127542481D01*
X164626481Y-127661015D01*
X164487100Y-127754147D01*
X164332228Y-127818297D01*
X164167816Y-127851000D01*
X164000184Y-127851000D01*
X163835772Y-127818297D01*
X163680900Y-127754147D01*
X163541519Y-127661015D01*
X163422985Y-127542481D01*
X163329853Y-127403100D01*
X163265703Y-127248228D01*
X163233000Y-127083816D01*
X163233000Y-126916184D01*
X163265703Y-126751772D01*
X163329853Y-126596900D01*
X163422985Y-126457519D01*
X163541519Y-126338985D01*
X163680900Y-126245853D01*
X163835772Y-126181703D01*
X164000184Y-126149000D01*
X164167816Y-126149000D01*
X164332228Y-126181703D01*
G37*
G36*
X166872228Y-126181703D02*
G01*
X167027100Y-126245853D01*
X167166481Y-126338985D01*
X167285015Y-126457519D01*
X167378147Y-126596900D01*
X167442297Y-126751772D01*
X167475000Y-126916184D01*
X167475000Y-127083816D01*
X167442297Y-127248228D01*
X167378147Y-127403100D01*
X167285015Y-127542481D01*
X167166481Y-127661015D01*
X167027100Y-127754147D01*
X166872228Y-127818297D01*
X166707816Y-127851000D01*
X166540184Y-127851000D01*
X166375772Y-127818297D01*
X166220900Y-127754147D01*
X166081519Y-127661015D01*
X165962985Y-127542481D01*
X165869853Y-127403100D01*
X165805703Y-127248228D01*
X165773000Y-127083816D01*
X165773000Y-126916184D01*
X165805703Y-126751772D01*
X165869853Y-126596900D01*
X165962985Y-126457519D01*
X166081519Y-126338985D01*
X166220900Y-126245853D01*
X166375772Y-126181703D01*
X166540184Y-126149000D01*
X166707816Y-126149000D01*
X166872228Y-126181703D01*
G37*
G36*
X142075000Y-127851000D02*
G01*
X140373000Y-127851000D01*
X140373000Y-126149000D01*
X142075000Y-126149000D01*
X142075000Y-127851000D01*
G37*
G36*
X144012228Y-126181703D02*
G01*
X144167100Y-126245853D01*
X144306481Y-126338985D01*
X144425015Y-126457519D01*
X144518147Y-126596900D01*
X144582297Y-126751772D01*
X144615000Y-126916184D01*
X144615000Y-127083816D01*
X144582297Y-127248228D01*
X144518147Y-127403100D01*
X144425015Y-127542481D01*
X144306481Y-127661015D01*
X144167100Y-127754147D01*
X144012228Y-127818297D01*
X143847816Y-127851000D01*
X143680184Y-127851000D01*
X143515772Y-127818297D01*
X143360900Y-127754147D01*
X143221519Y-127661015D01*
X143102985Y-127542481D01*
X143009853Y-127403100D01*
X142945703Y-127248228D01*
X142913000Y-127083816D01*
X142913000Y-126916184D01*
X142945703Y-126751772D01*
X143009853Y-126596900D01*
X143102985Y-126457519D01*
X143221519Y-126338985D01*
X143360900Y-126245853D01*
X143515772Y-126181703D01*
X143680184Y-126149000D01*
X143847816Y-126149000D01*
X144012228Y-126181703D01*
G37*
G36*
X149092228Y-126181703D02*
G01*
X149247100Y-126245853D01*
X149386481Y-126338985D01*
X149505015Y-126457519D01*
X149598147Y-126596900D01*
X149662297Y-126751772D01*
X149695000Y-126916184D01*
X149695000Y-127083816D01*
X149662297Y-127248228D01*
X149598147Y-127403100D01*
X149505015Y-127542481D01*
X149386481Y-127661015D01*
X149247100Y-127754147D01*
X149092228Y-127818297D01*
X148927816Y-127851000D01*
X148760184Y-127851000D01*
X148595772Y-127818297D01*
X148440900Y-127754147D01*
X148301519Y-127661015D01*
X148182985Y-127542481D01*
X148089853Y-127403100D01*
X148025703Y-127248228D01*
X147993000Y-127083816D01*
X147993000Y-126916184D01*
X148025703Y-126751772D01*
X148089853Y-126596900D01*
X148182985Y-126457519D01*
X148301519Y-126338985D01*
X148440900Y-126245853D01*
X148595772Y-126181703D01*
X148760184Y-126149000D01*
X148927816Y-126149000D01*
X149092228Y-126181703D01*
G37*
G36*
X151632228Y-126181703D02*
G01*
X151787100Y-126245853D01*
X151926481Y-126338985D01*
X152045015Y-126457519D01*
X152138147Y-126596900D01*
X152202297Y-126751772D01*
X152235000Y-126916184D01*
X152235000Y-127083816D01*
X152202297Y-127248228D01*
X152138147Y-127403100D01*
X152045015Y-127542481D01*
X151926481Y-127661015D01*
X151787100Y-127754147D01*
X151632228Y-127818297D01*
X151467816Y-127851000D01*
X151300184Y-127851000D01*
X151135772Y-127818297D01*
X150980900Y-127754147D01*
X150841519Y-127661015D01*
X150722985Y-127542481D01*
X150629853Y-127403100D01*
X150565703Y-127248228D01*
X150533000Y-127083816D01*
X150533000Y-126916184D01*
X150565703Y-126751772D01*
X150629853Y-126596900D01*
X150722985Y-126457519D01*
X150841519Y-126338985D01*
X150980900Y-126245853D01*
X151135772Y-126181703D01*
X151300184Y-126149000D01*
X151467816Y-126149000D01*
X151632228Y-126181703D01*
G37*
G36*
X146552228Y-126181703D02*
G01*
X146707100Y-126245853D01*
X146846481Y-126338985D01*
X146965015Y-126457519D01*
X147058147Y-126596900D01*
X147122297Y-126751772D01*
X147155000Y-126916184D01*
X147155000Y-127083816D01*
X147122297Y-127248228D01*
X147058147Y-127403100D01*
X146965015Y-127542481D01*
X146846481Y-127661015D01*
X146707100Y-127754147D01*
X146552228Y-127818297D01*
X146387816Y-127851000D01*
X146220184Y-127851000D01*
X146055772Y-127818297D01*
X145900900Y-127754147D01*
X145761519Y-127661015D01*
X145642985Y-127542481D01*
X145549853Y-127403100D01*
X145485703Y-127248228D01*
X145453000Y-127083816D01*
X145453000Y-126916184D01*
X145485703Y-126751772D01*
X145549853Y-126596900D01*
X145642985Y-126457519D01*
X145761519Y-126338985D01*
X145900900Y-126245853D01*
X146055772Y-126181703D01*
X146220184Y-126149000D01*
X146387816Y-126149000D01*
X146552228Y-126181703D01*
G37*
G36*
X134497604Y-121633347D02*
G01*
X134534144Y-121644432D01*
X134567821Y-121662433D01*
X134597341Y-121686659D01*
X134621567Y-121716179D01*
X134639568Y-121749856D01*
X134650653Y-121786396D01*
X134655000Y-121830538D01*
X134655000Y-123279462D01*
X134650653Y-123323604D01*
X134639568Y-123360144D01*
X134621567Y-123393821D01*
X134597341Y-123423341D01*
X134567821Y-123447567D01*
X134534144Y-123465568D01*
X134497604Y-123476653D01*
X134453462Y-123481000D01*
X133504538Y-123481000D01*
X133460396Y-123476653D01*
X133423856Y-123465568D01*
X133390179Y-123447567D01*
X133360659Y-123423341D01*
X133336433Y-123393821D01*
X133318432Y-123360144D01*
X133307347Y-123323604D01*
X133303000Y-123279462D01*
X133303000Y-121830538D01*
X133307347Y-121786396D01*
X133318432Y-121749856D01*
X133336433Y-121716179D01*
X133360659Y-121686659D01*
X133390179Y-121662433D01*
X133423856Y-121644432D01*
X133460396Y-121633347D01*
X133504538Y-121629000D01*
X134453462Y-121629000D01*
X134497604Y-121633347D01*
G37*
G36*
X137297604Y-121633347D02*
G01*
X137334144Y-121644432D01*
X137367821Y-121662433D01*
X137397341Y-121686659D01*
X137421567Y-121716179D01*
X137439568Y-121749856D01*
X137450653Y-121786396D01*
X137455000Y-121830538D01*
X137455000Y-123279462D01*
X137450653Y-123323604D01*
X137439568Y-123360144D01*
X137421567Y-123393821D01*
X137397341Y-123423341D01*
X137367821Y-123447567D01*
X137334144Y-123465568D01*
X137297604Y-123476653D01*
X137253462Y-123481000D01*
X136304538Y-123481000D01*
X136260396Y-123476653D01*
X136223856Y-123465568D01*
X136190179Y-123447567D01*
X136160659Y-123423341D01*
X136136433Y-123393821D01*
X136118432Y-123360144D01*
X136107347Y-123323604D01*
X136103000Y-123279462D01*
X136103000Y-121830538D01*
X136107347Y-121786396D01*
X136118432Y-121749856D01*
X136136433Y-121716179D01*
X136160659Y-121686659D01*
X136190179Y-121662433D01*
X136223856Y-121644432D01*
X136260396Y-121633347D01*
X136304538Y-121629000D01*
X137253462Y-121629000D01*
X137297604Y-121633347D01*
G37*
G36*
X111716000Y-121833000D02*
G01*
X109914000Y-121833000D01*
X109914000Y-119731000D01*
X111716000Y-119731000D01*
X111716000Y-121833000D01*
G37*
G36*
X117166000Y-121833000D02*
G01*
X115364000Y-121833000D01*
X115364000Y-119731000D01*
X117166000Y-119731000D01*
X117166000Y-121833000D01*
G37*
G36*
X126883604Y-118458347D02*
G01*
X126920144Y-118469432D01*
X126953821Y-118487433D01*
X126983341Y-118511659D01*
X127007567Y-118541179D01*
X127025568Y-118574856D01*
X127036653Y-118611396D01*
X127041000Y-118655538D01*
X127041000Y-120104462D01*
X127036653Y-120148604D01*
X127025568Y-120185144D01*
X127007567Y-120218821D01*
X126983341Y-120248341D01*
X126953821Y-120272567D01*
X126920144Y-120290568D01*
X126883604Y-120301653D01*
X126839462Y-120306000D01*
X125890538Y-120306000D01*
X125846396Y-120301653D01*
X125809856Y-120290568D01*
X125776179Y-120272567D01*
X125746659Y-120248341D01*
X125722433Y-120218821D01*
X125704432Y-120185144D01*
X125693347Y-120148604D01*
X125689000Y-120104462D01*
X125689000Y-118655538D01*
X125693347Y-118611396D01*
X125704432Y-118574856D01*
X125722433Y-118541179D01*
X125746659Y-118511659D01*
X125776179Y-118487433D01*
X125809856Y-118469432D01*
X125846396Y-118458347D01*
X125890538Y-118454000D01*
X126839462Y-118454000D01*
X126883604Y-118458347D01*
G37*
G36*
X124083604Y-118458347D02*
G01*
X124120144Y-118469432D01*
X124153821Y-118487433D01*
X124183341Y-118511659D01*
X124207567Y-118541179D01*
X124225568Y-118574856D01*
X124236653Y-118611396D01*
X124241000Y-118655538D01*
X124241000Y-120104462D01*
X124236653Y-120148604D01*
X124225568Y-120185144D01*
X124207567Y-120218821D01*
X124183341Y-120248341D01*
X124153821Y-120272567D01*
X124120144Y-120290568D01*
X124083604Y-120301653D01*
X124039462Y-120306000D01*
X123090538Y-120306000D01*
X123046396Y-120301653D01*
X123009856Y-120290568D01*
X122976179Y-120272567D01*
X122946659Y-120248341D01*
X122922433Y-120218821D01*
X122904432Y-120185144D01*
X122893347Y-120148604D01*
X122889000Y-120104462D01*
X122889000Y-118655538D01*
X122893347Y-118611396D01*
X122904432Y-118574856D01*
X122922433Y-118541179D01*
X122946659Y-118511659D01*
X122976179Y-118487433D01*
X123009856Y-118469432D01*
X123046396Y-118458347D01*
X123090538Y-118454000D01*
X124039462Y-118454000D01*
X124083604Y-118458347D01*
G37*
G36*
X154172228Y-118561703D02*
G01*
X154327100Y-118625853D01*
X154466481Y-118718985D01*
X154585015Y-118837519D01*
X154678147Y-118976900D01*
X154742297Y-119131772D01*
X154775000Y-119296184D01*
X154775000Y-119463816D01*
X154742297Y-119628228D01*
X154678147Y-119783100D01*
X154585015Y-119922481D01*
X154466481Y-120041015D01*
X154327100Y-120134147D01*
X154172228Y-120198297D01*
X154007816Y-120231000D01*
X153840184Y-120231000D01*
X153675772Y-120198297D01*
X153520900Y-120134147D01*
X153381519Y-120041015D01*
X153262985Y-119922481D01*
X153169853Y-119783100D01*
X153105703Y-119628228D01*
X153073000Y-119463816D01*
X153073000Y-119296184D01*
X153105703Y-119131772D01*
X153169853Y-118976900D01*
X153262985Y-118837519D01*
X153381519Y-118718985D01*
X153520900Y-118625853D01*
X153675772Y-118561703D01*
X153840184Y-118529000D01*
X154007816Y-118529000D01*
X154172228Y-118561703D01*
G37*
G36*
X169412228Y-118561703D02*
G01*
X169567100Y-118625853D01*
X169706481Y-118718985D01*
X169825015Y-118837519D01*
X169918147Y-118976900D01*
X169982297Y-119131772D01*
X170015000Y-119296184D01*
X170015000Y-119463816D01*
X169982297Y-119628228D01*
X169918147Y-119783100D01*
X169825015Y-119922481D01*
X169706481Y-120041015D01*
X169567100Y-120134147D01*
X169412228Y-120198297D01*
X169247816Y-120231000D01*
X169080184Y-120231000D01*
X168915772Y-120198297D01*
X168760900Y-120134147D01*
X168621519Y-120041015D01*
X168502985Y-119922481D01*
X168409853Y-119783100D01*
X168345703Y-119628228D01*
X168313000Y-119463816D01*
X168313000Y-119296184D01*
X168345703Y-119131772D01*
X168409853Y-118976900D01*
X168502985Y-118837519D01*
X168621519Y-118718985D01*
X168760900Y-118625853D01*
X168915772Y-118561703D01*
X169080184Y-118529000D01*
X169247816Y-118529000D01*
X169412228Y-118561703D01*
G37*
G36*
X156712228Y-118561703D02*
G01*
X156867100Y-118625853D01*
X157006481Y-118718985D01*
X157125015Y-118837519D01*
X157218147Y-118976900D01*
X157282297Y-119131772D01*
X157315000Y-119296184D01*
X157315000Y-119463816D01*
X157282297Y-119628228D01*
X157218147Y-119783100D01*
X157125015Y-119922481D01*
X157006481Y-120041015D01*
X156867100Y-120134147D01*
X156712228Y-120198297D01*
X156547816Y-120231000D01*
X156380184Y-120231000D01*
X156215772Y-120198297D01*
X156060900Y-120134147D01*
X155921519Y-120041015D01*
X155802985Y-119922481D01*
X155709853Y-119783100D01*
X155645703Y-119628228D01*
X155613000Y-119463816D01*
X155613000Y-119296184D01*
X155645703Y-119131772D01*
X155709853Y-118976900D01*
X155802985Y-118837519D01*
X155921519Y-118718985D01*
X156060900Y-118625853D01*
X156215772Y-118561703D01*
X156380184Y-118529000D01*
X156547816Y-118529000D01*
X156712228Y-118561703D01*
G37*
G36*
X166872228Y-118561703D02*
G01*
X167027100Y-118625853D01*
X167166481Y-118718985D01*
X167285015Y-118837519D01*
X167378147Y-118976900D01*
X167442297Y-119131772D01*
X167475000Y-119296184D01*
X167475000Y-119463816D01*
X167442297Y-119628228D01*
X167378147Y-119783100D01*
X167285015Y-119922481D01*
X167166481Y-120041015D01*
X167027100Y-120134147D01*
X166872228Y-120198297D01*
X166707816Y-120231000D01*
X166540184Y-120231000D01*
X166375772Y-120198297D01*
X166220900Y-120134147D01*
X166081519Y-120041015D01*
X165962985Y-119922481D01*
X165869853Y-119783100D01*
X165805703Y-119628228D01*
X165773000Y-119463816D01*
X165773000Y-119296184D01*
X165805703Y-119131772D01*
X165869853Y-118976900D01*
X165962985Y-118837519D01*
X166081519Y-118718985D01*
X166220900Y-118625853D01*
X166375772Y-118561703D01*
X166540184Y-118529000D01*
X166707816Y-118529000D01*
X166872228Y-118561703D01*
G37*
G36*
X159252228Y-118561703D02*
G01*
X159407100Y-118625853D01*
X159546481Y-118718985D01*
X159665015Y-118837519D01*
X159758147Y-118976900D01*
X159822297Y-119131772D01*
X159855000Y-119296184D01*
X159855000Y-119463816D01*
X159822297Y-119628228D01*
X159758147Y-119783100D01*
X159665015Y-119922481D01*
X159546481Y-120041015D01*
X159407100Y-120134147D01*
X159252228Y-120198297D01*
X159087816Y-120231000D01*
X158920184Y-120231000D01*
X158755772Y-120198297D01*
X158600900Y-120134147D01*
X158461519Y-120041015D01*
X158342985Y-119922481D01*
X158249853Y-119783100D01*
X158185703Y-119628228D01*
X158153000Y-119463816D01*
X158153000Y-119296184D01*
X158185703Y-119131772D01*
X158249853Y-118976900D01*
X158342985Y-118837519D01*
X158461519Y-118718985D01*
X158600900Y-118625853D01*
X158755772Y-118561703D01*
X158920184Y-118529000D01*
X159087816Y-118529000D01*
X159252228Y-118561703D01*
G37*
G36*
X164332228Y-118561703D02*
G01*
X164487100Y-118625853D01*
X164626481Y-118718985D01*
X164745015Y-118837519D01*
X164838147Y-118976900D01*
X164902297Y-119131772D01*
X164935000Y-119296184D01*
X164935000Y-119463816D01*
X164902297Y-119628228D01*
X164838147Y-119783100D01*
X164745015Y-119922481D01*
X164626481Y-120041015D01*
X164487100Y-120134147D01*
X164332228Y-120198297D01*
X164167816Y-120231000D01*
X164000184Y-120231000D01*
X163835772Y-120198297D01*
X163680900Y-120134147D01*
X163541519Y-120041015D01*
X163422985Y-119922481D01*
X163329853Y-119783100D01*
X163265703Y-119628228D01*
X163233000Y-119463816D01*
X163233000Y-119296184D01*
X163265703Y-119131772D01*
X163329853Y-118976900D01*
X163422985Y-118837519D01*
X163541519Y-118718985D01*
X163680900Y-118625853D01*
X163835772Y-118561703D01*
X164000184Y-118529000D01*
X164167816Y-118529000D01*
X164332228Y-118561703D01*
G37*
G36*
X141472228Y-118561703D02*
G01*
X141627100Y-118625853D01*
X141766481Y-118718985D01*
X141885015Y-118837519D01*
X141978147Y-118976900D01*
X142042297Y-119131772D01*
X142075000Y-119296184D01*
X142075000Y-119463816D01*
X142042297Y-119628228D01*
X141978147Y-119783100D01*
X141885015Y-119922481D01*
X141766481Y-120041015D01*
X141627100Y-120134147D01*
X141472228Y-120198297D01*
X141307816Y-120231000D01*
X141140184Y-120231000D01*
X140975772Y-120198297D01*
X140820900Y-120134147D01*
X140681519Y-120041015D01*
X140562985Y-119922481D01*
X140469853Y-119783100D01*
X140405703Y-119628228D01*
X140373000Y-119463816D01*
X140373000Y-119296184D01*
X140405703Y-119131772D01*
X140469853Y-118976900D01*
X140562985Y-118837519D01*
X140681519Y-118718985D01*
X140820900Y-118625853D01*
X140975772Y-118561703D01*
X141140184Y-118529000D01*
X141307816Y-118529000D01*
X141472228Y-118561703D01*
G37*
G36*
X161792228Y-118561703D02*
G01*
X161947100Y-118625853D01*
X162086481Y-118718985D01*
X162205015Y-118837519D01*
X162298147Y-118976900D01*
X162362297Y-119131772D01*
X162395000Y-119296184D01*
X162395000Y-119463816D01*
X162362297Y-119628228D01*
X162298147Y-119783100D01*
X162205015Y-119922481D01*
X162086481Y-120041015D01*
X161947100Y-120134147D01*
X161792228Y-120198297D01*
X161627816Y-120231000D01*
X161460184Y-120231000D01*
X161295772Y-120198297D01*
X161140900Y-120134147D01*
X161001519Y-120041015D01*
X160882985Y-119922481D01*
X160789853Y-119783100D01*
X160725703Y-119628228D01*
X160693000Y-119463816D01*
X160693000Y-119296184D01*
X160725703Y-119131772D01*
X160789853Y-118976900D01*
X160882985Y-118837519D01*
X161001519Y-118718985D01*
X161140900Y-118625853D01*
X161295772Y-118561703D01*
X161460184Y-118529000D01*
X161627816Y-118529000D01*
X161792228Y-118561703D01*
G37*
G36*
X174492228Y-118561703D02*
G01*
X174647100Y-118625853D01*
X174786481Y-118718985D01*
X174905015Y-118837519D01*
X174998147Y-118976900D01*
X175062297Y-119131772D01*
X175095000Y-119296184D01*
X175095000Y-119463816D01*
X175062297Y-119628228D01*
X174998147Y-119783100D01*
X174905015Y-119922481D01*
X174786481Y-120041015D01*
X174647100Y-120134147D01*
X174492228Y-120198297D01*
X174327816Y-120231000D01*
X174160184Y-120231000D01*
X173995772Y-120198297D01*
X173840900Y-120134147D01*
X173701519Y-120041015D01*
X173582985Y-119922481D01*
X173489853Y-119783100D01*
X173425703Y-119628228D01*
X173393000Y-119463816D01*
X173393000Y-119296184D01*
X173425703Y-119131772D01*
X173489853Y-118976900D01*
X173582985Y-118837519D01*
X173701519Y-118718985D01*
X173840900Y-118625853D01*
X173995772Y-118561703D01*
X174160184Y-118529000D01*
X174327816Y-118529000D01*
X174492228Y-118561703D01*
G37*
G36*
X146552228Y-118561703D02*
G01*
X146707100Y-118625853D01*
X146846481Y-118718985D01*
X146965015Y-118837519D01*
X147058147Y-118976900D01*
X147122297Y-119131772D01*
X147155000Y-119296184D01*
X147155000Y-119463816D01*
X147122297Y-119628228D01*
X147058147Y-119783100D01*
X146965015Y-119922481D01*
X146846481Y-120041015D01*
X146707100Y-120134147D01*
X146552228Y-120198297D01*
X146387816Y-120231000D01*
X146220184Y-120231000D01*
X146055772Y-120198297D01*
X145900900Y-120134147D01*
X145761519Y-120041015D01*
X145642985Y-119922481D01*
X145549853Y-119783100D01*
X145485703Y-119628228D01*
X145453000Y-119463816D01*
X145453000Y-119296184D01*
X145485703Y-119131772D01*
X145549853Y-118976900D01*
X145642985Y-118837519D01*
X145761519Y-118718985D01*
X145900900Y-118625853D01*
X146055772Y-118561703D01*
X146220184Y-118529000D01*
X146387816Y-118529000D01*
X146552228Y-118561703D01*
G37*
G36*
X144012228Y-118561703D02*
G01*
X144167100Y-118625853D01*
X144306481Y-118718985D01*
X144425015Y-118837519D01*
X144518147Y-118976900D01*
X144582297Y-119131772D01*
X144615000Y-119296184D01*
X144615000Y-119463816D01*
X144582297Y-119628228D01*
X144518147Y-119783100D01*
X144425015Y-119922481D01*
X144306481Y-120041015D01*
X144167100Y-120134147D01*
X144012228Y-120198297D01*
X143847816Y-120231000D01*
X143680184Y-120231000D01*
X143515772Y-120198297D01*
X143360900Y-120134147D01*
X143221519Y-120041015D01*
X143102985Y-119922481D01*
X143009853Y-119783100D01*
X142945703Y-119628228D01*
X142913000Y-119463816D01*
X142913000Y-119296184D01*
X142945703Y-119131772D01*
X143009853Y-118976900D01*
X143102985Y-118837519D01*
X143221519Y-118718985D01*
X143360900Y-118625853D01*
X143515772Y-118561703D01*
X143680184Y-118529000D01*
X143847816Y-118529000D01*
X144012228Y-118561703D01*
G37*
G36*
X149092228Y-118561703D02*
G01*
X149247100Y-118625853D01*
X149386481Y-118718985D01*
X149505015Y-118837519D01*
X149598147Y-118976900D01*
X149662297Y-119131772D01*
X149695000Y-119296184D01*
X149695000Y-119463816D01*
X149662297Y-119628228D01*
X149598147Y-119783100D01*
X149505015Y-119922481D01*
X149386481Y-120041015D01*
X149247100Y-120134147D01*
X149092228Y-120198297D01*
X148927816Y-120231000D01*
X148760184Y-120231000D01*
X148595772Y-120198297D01*
X148440900Y-120134147D01*
X148301519Y-120041015D01*
X148182985Y-119922481D01*
X148089853Y-119783100D01*
X148025703Y-119628228D01*
X147993000Y-119463816D01*
X147993000Y-119296184D01*
X148025703Y-119131772D01*
X148089853Y-118976900D01*
X148182985Y-118837519D01*
X148301519Y-118718985D01*
X148440900Y-118625853D01*
X148595772Y-118561703D01*
X148760184Y-118529000D01*
X148927816Y-118529000D01*
X149092228Y-118561703D01*
G37*
G36*
X151632228Y-118561703D02*
G01*
X151787100Y-118625853D01*
X151926481Y-118718985D01*
X152045015Y-118837519D01*
X152138147Y-118976900D01*
X152202297Y-119131772D01*
X152235000Y-119296184D01*
X152235000Y-119463816D01*
X152202297Y-119628228D01*
X152138147Y-119783100D01*
X152045015Y-119922481D01*
X151926481Y-120041015D01*
X151787100Y-120134147D01*
X151632228Y-120198297D01*
X151467816Y-120231000D01*
X151300184Y-120231000D01*
X151135772Y-120198297D01*
X150980900Y-120134147D01*
X150841519Y-120041015D01*
X150722985Y-119922481D01*
X150629853Y-119783100D01*
X150565703Y-119628228D01*
X150533000Y-119463816D01*
X150533000Y-119296184D01*
X150565703Y-119131772D01*
X150629853Y-118976900D01*
X150722985Y-118837519D01*
X150841519Y-118718985D01*
X150980900Y-118625853D01*
X151135772Y-118561703D01*
X151300184Y-118529000D01*
X151467816Y-118529000D01*
X151632228Y-118561703D01*
G37*
G36*
X171952228Y-118561703D02*
G01*
X172107100Y-118625853D01*
X172246481Y-118718985D01*
X172365015Y-118837519D01*
X172458147Y-118976900D01*
X172522297Y-119131772D01*
X172555000Y-119296184D01*
X172555000Y-119463816D01*
X172522297Y-119628228D01*
X172458147Y-119783100D01*
X172365015Y-119922481D01*
X172246481Y-120041015D01*
X172107100Y-120134147D01*
X171952228Y-120198297D01*
X171787816Y-120231000D01*
X171620184Y-120231000D01*
X171455772Y-120198297D01*
X171300900Y-120134147D01*
X171161519Y-120041015D01*
X171042985Y-119922481D01*
X170949853Y-119783100D01*
X170885703Y-119628228D01*
X170853000Y-119463816D01*
X170853000Y-119296184D01*
X170885703Y-119131772D01*
X170949853Y-118976900D01*
X171042985Y-118837519D01*
X171161519Y-118718985D01*
X171300900Y-118625853D01*
X171455772Y-118561703D01*
X171620184Y-118529000D01*
X171787816Y-118529000D01*
X171952228Y-118561703D01*
G37*
G36*
X113825721Y-118002174D02*
G01*
X113925995Y-118043709D01*
X113925996Y-118043710D01*
X114016242Y-118104010D01*
X114092990Y-118180758D01*
X114092991Y-118180760D01*
X114153291Y-118271005D01*
X114194826Y-118371279D01*
X114216000Y-118477730D01*
X114216000Y-118586270D01*
X114194826Y-118692721D01*
X114153291Y-118792995D01*
X114153290Y-118792996D01*
X114092990Y-118883242D01*
X114016242Y-118959990D01*
X113970812Y-118990345D01*
X113925995Y-119020291D01*
X113825721Y-119061826D01*
X113719270Y-119083000D01*
X113610730Y-119083000D01*
X113504279Y-119061826D01*
X113404005Y-119020291D01*
X113359188Y-118990345D01*
X113313758Y-118959990D01*
X113237010Y-118883242D01*
X113176710Y-118792996D01*
X113176709Y-118792995D01*
X113135174Y-118692721D01*
X113114000Y-118586270D01*
X113114000Y-118477730D01*
X113135174Y-118371279D01*
X113176709Y-118271005D01*
X113237009Y-118180760D01*
X113237010Y-118180758D01*
X113313758Y-118104010D01*
X113404004Y-118043710D01*
X113404005Y-118043709D01*
X113504279Y-118002174D01*
X113610730Y-117981000D01*
X113719270Y-117981000D01*
X113825721Y-118002174D01*
G37*
G36*
X117416000Y-118233000D02*
G01*
X115314000Y-118233000D01*
X115314000Y-114431000D01*
X117416000Y-114431000D01*
X117416000Y-118233000D01*
G37*
G36*
X161661968Y-116347565D02*
G01*
X161700638Y-116359296D01*
X161736277Y-116378346D01*
X161767517Y-116403983D01*
X161793154Y-116435223D01*
X161812204Y-116470862D01*
X161823935Y-116509532D01*
X161828500Y-116555888D01*
X161828500Y-117632112D01*
X161823935Y-117678468D01*
X161812204Y-117717138D01*
X161793154Y-117752777D01*
X161767517Y-117784017D01*
X161736277Y-117809654D01*
X161700638Y-117828704D01*
X161661968Y-117840435D01*
X161615612Y-117845000D01*
X160964388Y-117845000D01*
X160918032Y-117840435D01*
X160879362Y-117828704D01*
X160843723Y-117809654D01*
X160812483Y-117784017D01*
X160786846Y-117752777D01*
X160767796Y-117717138D01*
X160756065Y-117678468D01*
X160751500Y-117632112D01*
X160751500Y-116555888D01*
X160756065Y-116509532D01*
X160767796Y-116470862D01*
X160786846Y-116435223D01*
X160812483Y-116403983D01*
X160843723Y-116378346D01*
X160879362Y-116359296D01*
X160918032Y-116347565D01*
X160964388Y-116343000D01*
X161615612Y-116343000D01*
X161661968Y-116347565D01*
G37*
G36*
X159786968Y-116347565D02*
G01*
X159825638Y-116359296D01*
X159861277Y-116378346D01*
X159892517Y-116403983D01*
X159918154Y-116435223D01*
X159937204Y-116470862D01*
X159948935Y-116509532D01*
X159953500Y-116555888D01*
X159953500Y-117632112D01*
X159948935Y-117678468D01*
X159937204Y-117717138D01*
X159918154Y-117752777D01*
X159892517Y-117784017D01*
X159861277Y-117809654D01*
X159825638Y-117828704D01*
X159786968Y-117840435D01*
X159740612Y-117845000D01*
X159089388Y-117845000D01*
X159043032Y-117840435D01*
X159004362Y-117828704D01*
X158968723Y-117809654D01*
X158937483Y-117784017D01*
X158911846Y-117752777D01*
X158892796Y-117717138D01*
X158881065Y-117678468D01*
X158876500Y-117632112D01*
X158876500Y-116555888D01*
X158881065Y-116509532D01*
X158892796Y-116470862D01*
X158911846Y-116435223D01*
X158937483Y-116403983D01*
X158968723Y-116378346D01*
X159004362Y-116359296D01*
X159043032Y-116347565D01*
X159089388Y-116343000D01*
X159740612Y-116343000D01*
X159786968Y-116347565D01*
G37*
G36*
X155741468Y-113680565D02*
G01*
X155780138Y-113692296D01*
X155815777Y-113711346D01*
X155847017Y-113736983D01*
X155872654Y-113768223D01*
X155891704Y-113803862D01*
X155903435Y-113842532D01*
X155908000Y-113888888D01*
X155908000Y-114965112D01*
X155903435Y-115011468D01*
X155891704Y-115050138D01*
X155872654Y-115085777D01*
X155847017Y-115117017D01*
X155815777Y-115142654D01*
X155780138Y-115161704D01*
X155741468Y-115173435D01*
X155695112Y-115178000D01*
X155043888Y-115178000D01*
X154997532Y-115173435D01*
X154958862Y-115161704D01*
X154923223Y-115142654D01*
X154891983Y-115117017D01*
X154866346Y-115085777D01*
X154847296Y-115050138D01*
X154835565Y-115011468D01*
X154831000Y-114965112D01*
X154831000Y-113888888D01*
X154835565Y-113842532D01*
X154847296Y-113803862D01*
X154866346Y-113768223D01*
X154891983Y-113736983D01*
X154923223Y-113711346D01*
X154958862Y-113692296D01*
X154997532Y-113680565D01*
X155043888Y-113676000D01*
X155695112Y-113676000D01*
X155741468Y-113680565D01*
G37*
G36*
X153866468Y-113680565D02*
G01*
X153905138Y-113692296D01*
X153940777Y-113711346D01*
X153972017Y-113736983D01*
X153997654Y-113768223D01*
X154016704Y-113803862D01*
X154028435Y-113842532D01*
X154033000Y-113888888D01*
X154033000Y-114965112D01*
X154028435Y-115011468D01*
X154016704Y-115050138D01*
X153997654Y-115085777D01*
X153972017Y-115117017D01*
X153940777Y-115142654D01*
X153905138Y-115161704D01*
X153866468Y-115173435D01*
X153820112Y-115178000D01*
X153168888Y-115178000D01*
X153122532Y-115173435D01*
X153083862Y-115161704D01*
X153048223Y-115142654D01*
X153016983Y-115117017D01*
X152991346Y-115085777D01*
X152972296Y-115050138D01*
X152960565Y-115011468D01*
X152956000Y-114965112D01*
X152956000Y-113888888D01*
X152960565Y-113842532D01*
X152972296Y-113803862D01*
X152991346Y-113768223D01*
X153016983Y-113736983D01*
X153048223Y-113711346D01*
X153083862Y-113692296D01*
X153122532Y-113680565D01*
X153168888Y-113676000D01*
X153820112Y-113676000D01*
X153866468Y-113680565D01*
G37*
G36*
X152054000Y-114978000D02*
G01*
X150352000Y-114978000D01*
X150352000Y-113876000D01*
X152054000Y-113876000D01*
X152054000Y-114978000D01*
G37*
G36*
X145954000Y-114708000D02*
G01*
X143352000Y-114708000D01*
X143352000Y-111606000D01*
X145954000Y-111606000D01*
X145954000Y-114708000D01*
G37*
G36*
X113825721Y-113602174D02*
G01*
X113925995Y-113643709D01*
X113925996Y-113643710D01*
X114016242Y-113704010D01*
X114092990Y-113780758D01*
X114092991Y-113780760D01*
X114153291Y-113871005D01*
X114194826Y-113971279D01*
X114216000Y-114077730D01*
X114216000Y-114186270D01*
X114194826Y-114292721D01*
X114153291Y-114392995D01*
X114153290Y-114392996D01*
X114092990Y-114483242D01*
X114016242Y-114559990D01*
X113970812Y-114590345D01*
X113925995Y-114620291D01*
X113825721Y-114661826D01*
X113719270Y-114683000D01*
X113610730Y-114683000D01*
X113504279Y-114661826D01*
X113404005Y-114620291D01*
X113359188Y-114590345D01*
X113313758Y-114559990D01*
X113237010Y-114483242D01*
X113176710Y-114392996D01*
X113176709Y-114392995D01*
X113135174Y-114292721D01*
X113114000Y-114186270D01*
X113114000Y-114077730D01*
X113135174Y-113971279D01*
X113176709Y-113871005D01*
X113237009Y-113780760D01*
X113237010Y-113780758D01*
X113313758Y-113704010D01*
X113404004Y-113643710D01*
X113404005Y-113643709D01*
X113504279Y-113602174D01*
X113610730Y-113581000D01*
X113719270Y-113581000D01*
X113825721Y-113602174D01*
G37*
G36*
X166630604Y-112999347D02*
G01*
X166667144Y-113010432D01*
X166700821Y-113028433D01*
X166730341Y-113052659D01*
X166754567Y-113082179D01*
X166772568Y-113115856D01*
X166783653Y-113152396D01*
X166788000Y-113196538D01*
X166788000Y-114145462D01*
X166783653Y-114189604D01*
X166772568Y-114226144D01*
X166754567Y-114259821D01*
X166730341Y-114289341D01*
X166700821Y-114313567D01*
X166667144Y-114331568D01*
X166630604Y-114342653D01*
X166586462Y-114347000D01*
X165137538Y-114347000D01*
X165093396Y-114342653D01*
X165056856Y-114331568D01*
X165023179Y-114313567D01*
X164993659Y-114289341D01*
X164969433Y-114259821D01*
X164951432Y-114226144D01*
X164940347Y-114189604D01*
X164936000Y-114145462D01*
X164936000Y-113196538D01*
X164940347Y-113152396D01*
X164951432Y-113115856D01*
X164969433Y-113082179D01*
X164993659Y-113052659D01*
X165023179Y-113028433D01*
X165056856Y-113010432D01*
X165093396Y-112999347D01*
X165137538Y-112995000D01*
X166586462Y-112995000D01*
X166630604Y-112999347D01*
G37*
G36*
X119898604Y-111346347D02*
G01*
X119935144Y-111357432D01*
X119968821Y-111375433D01*
X119998341Y-111399659D01*
X120022567Y-111429179D01*
X120040568Y-111462856D01*
X120051653Y-111499396D01*
X120056000Y-111543538D01*
X120056000Y-112992462D01*
X120051653Y-113036604D01*
X120040568Y-113073144D01*
X120022567Y-113106821D01*
X119998341Y-113136341D01*
X119968821Y-113160567D01*
X119935144Y-113178568D01*
X119898604Y-113189653D01*
X119854462Y-113194000D01*
X118905538Y-113194000D01*
X118861396Y-113189653D01*
X118824856Y-113178568D01*
X118791179Y-113160567D01*
X118761659Y-113136341D01*
X118737433Y-113106821D01*
X118719432Y-113073144D01*
X118708347Y-113036604D01*
X118704000Y-112992462D01*
X118704000Y-111543538D01*
X118708347Y-111499396D01*
X118719432Y-111462856D01*
X118737433Y-111429179D01*
X118761659Y-111399659D01*
X118791179Y-111375433D01*
X118824856Y-111357432D01*
X118861396Y-111346347D01*
X118905538Y-111342000D01*
X119854462Y-111342000D01*
X119898604Y-111346347D01*
G37*
G36*
X122698604Y-111346347D02*
G01*
X122735144Y-111357432D01*
X122768821Y-111375433D01*
X122798341Y-111399659D01*
X122822567Y-111429179D01*
X122840568Y-111462856D01*
X122851653Y-111499396D01*
X122856000Y-111543538D01*
X122856000Y-112992462D01*
X122851653Y-113036604D01*
X122840568Y-113073144D01*
X122822567Y-113106821D01*
X122798341Y-113136341D01*
X122768821Y-113160567D01*
X122735144Y-113178568D01*
X122698604Y-113189653D01*
X122654462Y-113194000D01*
X121705538Y-113194000D01*
X121661396Y-113189653D01*
X121624856Y-113178568D01*
X121591179Y-113160567D01*
X121561659Y-113136341D01*
X121537433Y-113106821D01*
X121519432Y-113073144D01*
X121508347Y-113036604D01*
X121504000Y-112992462D01*
X121504000Y-111543538D01*
X121508347Y-111499396D01*
X121519432Y-111462856D01*
X121537433Y-111429179D01*
X121561659Y-111399659D01*
X121591179Y-111375433D01*
X121624856Y-111357432D01*
X121661396Y-111346347D01*
X121705538Y-111342000D01*
X122654462Y-111342000D01*
X122698604Y-111346347D01*
G37*
G36*
X111716000Y-112933000D02*
G01*
X109914000Y-112933000D01*
X109914000Y-110831000D01*
X111716000Y-110831000D01*
X111716000Y-112933000D01*
G37*
G36*
X117166000Y-112933000D02*
G01*
X115364000Y-112933000D01*
X115364000Y-110831000D01*
X117166000Y-110831000D01*
X117166000Y-112933000D01*
G37*
G36*
X155789968Y-111140565D02*
G01*
X155828638Y-111152296D01*
X155864277Y-111171346D01*
X155895517Y-111196983D01*
X155921154Y-111228223D01*
X155940204Y-111263862D01*
X155951935Y-111302532D01*
X155956500Y-111348888D01*
X155956500Y-112425112D01*
X155951935Y-112471468D01*
X155940204Y-112510138D01*
X155921154Y-112545777D01*
X155895517Y-112577017D01*
X155864277Y-112602654D01*
X155828638Y-112621704D01*
X155789968Y-112633435D01*
X155743612Y-112638000D01*
X155092388Y-112638000D01*
X155046032Y-112633435D01*
X155007362Y-112621704D01*
X154971723Y-112602654D01*
X154940483Y-112577017D01*
X154914846Y-112545777D01*
X154895796Y-112510138D01*
X154884065Y-112471468D01*
X154879500Y-112425112D01*
X154879500Y-111348888D01*
X154884065Y-111302532D01*
X154895796Y-111263862D01*
X154914846Y-111228223D01*
X154940483Y-111196983D01*
X154971723Y-111171346D01*
X155007362Y-111152296D01*
X155046032Y-111140565D01*
X155092388Y-111136000D01*
X155743612Y-111136000D01*
X155789968Y-111140565D01*
G37*
G36*
X153914968Y-111140565D02*
G01*
X153953638Y-111152296D01*
X153989277Y-111171346D01*
X154020517Y-111196983D01*
X154046154Y-111228223D01*
X154065204Y-111263862D01*
X154076935Y-111302532D01*
X154081500Y-111348888D01*
X154081500Y-112425112D01*
X154076935Y-112471468D01*
X154065204Y-112510138D01*
X154046154Y-112545777D01*
X154020517Y-112577017D01*
X153989277Y-112602654D01*
X153953638Y-112621704D01*
X153914968Y-112633435D01*
X153868612Y-112638000D01*
X153217388Y-112638000D01*
X153171032Y-112633435D01*
X153132362Y-112621704D01*
X153096723Y-112602654D01*
X153065483Y-112577017D01*
X153039846Y-112545777D01*
X153020796Y-112510138D01*
X153009065Y-112471468D01*
X153004500Y-112425112D01*
X153004500Y-111348888D01*
X153009065Y-111302532D01*
X153020796Y-111263862D01*
X153039846Y-111228223D01*
X153065483Y-111196983D01*
X153096723Y-111171346D01*
X153132362Y-111152296D01*
X153171032Y-111140565D01*
X153217388Y-111136000D01*
X153868612Y-111136000D01*
X153914968Y-111140565D01*
G37*
G36*
X152054000Y-112438000D02*
G01*
X150352000Y-112438000D01*
X150352000Y-111336000D01*
X152054000Y-111336000D01*
X152054000Y-112438000D01*
G37*
G36*
X135007604Y-110580347D02*
G01*
X135044144Y-110591432D01*
X135077821Y-110609433D01*
X135107341Y-110633659D01*
X135131567Y-110663179D01*
X135149568Y-110696856D01*
X135160653Y-110733396D01*
X135165000Y-110777538D01*
X135165000Y-111726462D01*
X135160653Y-111770604D01*
X135149568Y-111807144D01*
X135131567Y-111840821D01*
X135107341Y-111870341D01*
X135077821Y-111894567D01*
X135044144Y-111912568D01*
X135007604Y-111923653D01*
X134963462Y-111928000D01*
X133514538Y-111928000D01*
X133470396Y-111923653D01*
X133433856Y-111912568D01*
X133400179Y-111894567D01*
X133370659Y-111870341D01*
X133346433Y-111840821D01*
X133328432Y-111807144D01*
X133317347Y-111770604D01*
X133313000Y-111726462D01*
X133313000Y-110777538D01*
X133317347Y-110733396D01*
X133328432Y-110696856D01*
X133346433Y-110663179D01*
X133370659Y-110633659D01*
X133400179Y-110609433D01*
X133433856Y-110591432D01*
X133470396Y-110580347D01*
X133514538Y-110576000D01*
X134963462Y-110576000D01*
X135007604Y-110580347D01*
G37*
G36*
X166630604Y-110199347D02*
G01*
X166667144Y-110210432D01*
X166700821Y-110228433D01*
X166730341Y-110252659D01*
X166754567Y-110282179D01*
X166772568Y-110315856D01*
X166783653Y-110352396D01*
X166788000Y-110396538D01*
X166788000Y-111345462D01*
X166783653Y-111389604D01*
X166772568Y-111426144D01*
X166754567Y-111459821D01*
X166730341Y-111489341D01*
X166700821Y-111513567D01*
X166667144Y-111531568D01*
X166630604Y-111542653D01*
X166586462Y-111547000D01*
X165137538Y-111547000D01*
X165093396Y-111542653D01*
X165056856Y-111531568D01*
X165023179Y-111513567D01*
X164993659Y-111489341D01*
X164969433Y-111459821D01*
X164951432Y-111426144D01*
X164940347Y-111389604D01*
X164936000Y-111345462D01*
X164936000Y-110396538D01*
X164940347Y-110352396D01*
X164951432Y-110315856D01*
X164969433Y-110282179D01*
X164993659Y-110252659D01*
X165023179Y-110228433D01*
X165056856Y-110210432D01*
X165093396Y-110199347D01*
X165137538Y-110195000D01*
X166586462Y-110195000D01*
X166630604Y-110199347D01*
G37*
G36*
X139141468Y-109545065D02*
G01*
X139180138Y-109556796D01*
X139215777Y-109575846D01*
X139247017Y-109601483D01*
X139272654Y-109632723D01*
X139291704Y-109668362D01*
X139303435Y-109707032D01*
X139308000Y-109753388D01*
X139308000Y-110404612D01*
X139303435Y-110450968D01*
X139291704Y-110489638D01*
X139272654Y-110525277D01*
X139247017Y-110556517D01*
X139215777Y-110582154D01*
X139180138Y-110601204D01*
X139141468Y-110612935D01*
X139095112Y-110617500D01*
X138018888Y-110617500D01*
X137972532Y-110612935D01*
X137933862Y-110601204D01*
X137898223Y-110582154D01*
X137866983Y-110556517D01*
X137841346Y-110525277D01*
X137822296Y-110489638D01*
X137810565Y-110450968D01*
X137806000Y-110404612D01*
X137806000Y-109753388D01*
X137810565Y-109707032D01*
X137822296Y-109668362D01*
X137841346Y-109632723D01*
X137866983Y-109601483D01*
X137898223Y-109575846D01*
X137933862Y-109556796D01*
X137972532Y-109545065D01*
X138018888Y-109540500D01*
X139095112Y-109540500D01*
X139141468Y-109545065D01*
G37*
G36*
X122795512Y-107434927D02*
G01*
X122944812Y-107464624D01*
X123108784Y-107532544D01*
X123256354Y-107631147D01*
X123381853Y-107756646D01*
X123480456Y-107904216D01*
X123548376Y-108068188D01*
X123583000Y-108242259D01*
X123583000Y-108419741D01*
X123548376Y-108593812D01*
X123480456Y-108757784D01*
X123381853Y-108905354D01*
X123256354Y-109030853D01*
X123108784Y-109129456D01*
X122944812Y-109197376D01*
X122795512Y-109227073D01*
X122770742Y-109232000D01*
X122593258Y-109232000D01*
X122568488Y-109227073D01*
X122419188Y-109197376D01*
X122255216Y-109129456D01*
X122107646Y-109030853D01*
X121982147Y-108905354D01*
X121883544Y-108757784D01*
X121815624Y-108593812D01*
X121781000Y-108419741D01*
X121781000Y-108242259D01*
X121815624Y-108068188D01*
X121883544Y-107904216D01*
X121982147Y-107756646D01*
X122107646Y-107631147D01*
X122255216Y-107532544D01*
X122419188Y-107464624D01*
X122568488Y-107434927D01*
X122593258Y-107430000D01*
X122770742Y-107430000D01*
X122795512Y-107434927D01*
G37*
G36*
X125335512Y-107434927D02*
G01*
X125484812Y-107464624D01*
X125648784Y-107532544D01*
X125796354Y-107631147D01*
X125921853Y-107756646D01*
X126020456Y-107904216D01*
X126088376Y-108068188D01*
X126123000Y-108242259D01*
X126123000Y-108419741D01*
X126088376Y-108593812D01*
X126020456Y-108757784D01*
X125921853Y-108905354D01*
X125796354Y-109030853D01*
X125648784Y-109129456D01*
X125484812Y-109197376D01*
X125335512Y-109227073D01*
X125310742Y-109232000D01*
X125133258Y-109232000D01*
X125108488Y-109227073D01*
X124959188Y-109197376D01*
X124795216Y-109129456D01*
X124647646Y-109030853D01*
X124522147Y-108905354D01*
X124423544Y-108757784D01*
X124355624Y-108593812D01*
X124321000Y-108419741D01*
X124321000Y-108242259D01*
X124355624Y-108068188D01*
X124423544Y-107904216D01*
X124522147Y-107756646D01*
X124647646Y-107631147D01*
X124795216Y-107532544D01*
X124959188Y-107464624D01*
X125108488Y-107434927D01*
X125133258Y-107430000D01*
X125310742Y-107430000D01*
X125335512Y-107434927D01*
G37*
G36*
X121043000Y-109232000D02*
G01*
X119241000Y-109232000D01*
X119241000Y-107430000D01*
X121043000Y-107430000D01*
X121043000Y-109232000D01*
G37*
G36*
X135007604Y-107780347D02*
G01*
X135044144Y-107791432D01*
X135077821Y-107809433D01*
X135107341Y-107833659D01*
X135131567Y-107863179D01*
X135149568Y-107896856D01*
X135160653Y-107933396D01*
X135165000Y-107977538D01*
X135165000Y-108926462D01*
X135160653Y-108970604D01*
X135149568Y-109007144D01*
X135131567Y-109040821D01*
X135107341Y-109070341D01*
X135077821Y-109094567D01*
X135044144Y-109112568D01*
X135007604Y-109123653D01*
X134963462Y-109128000D01*
X133514538Y-109128000D01*
X133470396Y-109123653D01*
X133433856Y-109112568D01*
X133400179Y-109094567D01*
X133370659Y-109070341D01*
X133346433Y-109040821D01*
X133328432Y-109007144D01*
X133317347Y-108970604D01*
X133313000Y-108926462D01*
X133313000Y-107977538D01*
X133317347Y-107933396D01*
X133328432Y-107896856D01*
X133346433Y-107863179D01*
X133370659Y-107833659D01*
X133400179Y-107809433D01*
X133433856Y-107791432D01*
X133470396Y-107780347D01*
X133514538Y-107776000D01*
X134963462Y-107776000D01*
X135007604Y-107780347D01*
G37*
G36*
X139141468Y-107670065D02*
G01*
X139180138Y-107681796D01*
X139215777Y-107700846D01*
X139247017Y-107726483D01*
X139272654Y-107757723D01*
X139291704Y-107793362D01*
X139303435Y-107832032D01*
X139308000Y-107878388D01*
X139308000Y-108529612D01*
X139303435Y-108575968D01*
X139291704Y-108614638D01*
X139272654Y-108650277D01*
X139247017Y-108681517D01*
X139215777Y-108707154D01*
X139180138Y-108726204D01*
X139141468Y-108737935D01*
X139095112Y-108742500D01*
X138018888Y-108742500D01*
X137972532Y-108737935D01*
X137933862Y-108726204D01*
X137898223Y-108707154D01*
X137866983Y-108681517D01*
X137841346Y-108650277D01*
X137822296Y-108614638D01*
X137810565Y-108575968D01*
X137806000Y-108529612D01*
X137806000Y-107878388D01*
X137810565Y-107832032D01*
X137822296Y-107793362D01*
X137841346Y-107757723D01*
X137866983Y-107726483D01*
X137898223Y-107700846D01*
X137933862Y-107681796D01*
X137972532Y-107670065D01*
X138018888Y-107665500D01*
X139095112Y-107665500D01*
X139141468Y-107670065D01*
G37*
G36*
X114840000Y-108674000D02*
G01*
X112538000Y-108674000D01*
X112538000Y-106972000D01*
X114840000Y-106972000D01*
X114840000Y-108674000D01*
G37*
G36*
X117840000Y-108674000D02*
G01*
X115538000Y-108674000D01*
X115538000Y-106972000D01*
X117840000Y-106972000D01*
X117840000Y-108674000D01*
G37*
G36*
X173621000Y-107581000D02*
G01*
X171819000Y-107581000D01*
X171819000Y-105779000D01*
X173621000Y-105779000D01*
X173621000Y-107581000D01*
G37*
G36*
X165213512Y-105783927D02*
G01*
X165362812Y-105813624D01*
X165526784Y-105881544D01*
X165674354Y-105980147D01*
X165799853Y-106105646D01*
X165898456Y-106253216D01*
X165966376Y-106417188D01*
X166001000Y-106591259D01*
X166001000Y-106768741D01*
X165966376Y-106942812D01*
X165898456Y-107106784D01*
X165799853Y-107254354D01*
X165674354Y-107379853D01*
X165526784Y-107478456D01*
X165362812Y-107546376D01*
X165213512Y-107576073D01*
X165188742Y-107581000D01*
X165011258Y-107581000D01*
X164986488Y-107576073D01*
X164837188Y-107546376D01*
X164673216Y-107478456D01*
X164525646Y-107379853D01*
X164400147Y-107254354D01*
X164301544Y-107106784D01*
X164233624Y-106942812D01*
X164199000Y-106768741D01*
X164199000Y-106591259D01*
X164233624Y-106417188D01*
X164301544Y-106253216D01*
X164400147Y-106105646D01*
X164525646Y-105980147D01*
X164673216Y-105881544D01*
X164837188Y-105813624D01*
X164986488Y-105783927D01*
X165011258Y-105779000D01*
X165188742Y-105779000D01*
X165213512Y-105783927D01*
G37*
G36*
X167753512Y-105783927D02*
G01*
X167902812Y-105813624D01*
X168066784Y-105881544D01*
X168214354Y-105980147D01*
X168339853Y-106105646D01*
X168438456Y-106253216D01*
X168506376Y-106417188D01*
X168541000Y-106591259D01*
X168541000Y-106768741D01*
X168506376Y-106942812D01*
X168438456Y-107106784D01*
X168339853Y-107254354D01*
X168214354Y-107379853D01*
X168066784Y-107478456D01*
X167902812Y-107546376D01*
X167753512Y-107576073D01*
X167728742Y-107581000D01*
X167551258Y-107581000D01*
X167526488Y-107576073D01*
X167377188Y-107546376D01*
X167213216Y-107478456D01*
X167065646Y-107379853D01*
X166940147Y-107254354D01*
X166841544Y-107106784D01*
X166773624Y-106942812D01*
X166739000Y-106768741D01*
X166739000Y-106591259D01*
X166773624Y-106417188D01*
X166841544Y-106253216D01*
X166940147Y-106105646D01*
X167065646Y-105980147D01*
X167213216Y-105881544D01*
X167377188Y-105813624D01*
X167526488Y-105783927D01*
X167551258Y-105779000D01*
X167728742Y-105779000D01*
X167753512Y-105783927D01*
G37*
G36*
X170293512Y-105783927D02*
G01*
X170442812Y-105813624D01*
X170606784Y-105881544D01*
X170754354Y-105980147D01*
X170879853Y-106105646D01*
X170978456Y-106253216D01*
X171046376Y-106417188D01*
X171081000Y-106591259D01*
X171081000Y-106768741D01*
X171046376Y-106942812D01*
X170978456Y-107106784D01*
X170879853Y-107254354D01*
X170754354Y-107379853D01*
X170606784Y-107478456D01*
X170442812Y-107546376D01*
X170293512Y-107576073D01*
X170268742Y-107581000D01*
X170091258Y-107581000D01*
X170066488Y-107576073D01*
X169917188Y-107546376D01*
X169753216Y-107478456D01*
X169605646Y-107379853D01*
X169480147Y-107254354D01*
X169381544Y-107106784D01*
X169313624Y-106942812D01*
X169279000Y-106768741D01*
X169279000Y-106591259D01*
X169313624Y-106417188D01*
X169381544Y-106253216D01*
X169480147Y-106105646D01*
X169605646Y-105980147D01*
X169753216Y-105881544D01*
X169917188Y-105813624D01*
X170066488Y-105783927D01*
X170091258Y-105779000D01*
X170268742Y-105779000D01*
X170293512Y-105783927D01*
G37*
G36*
X145725000Y-106634000D02*
G01*
X136723000Y-106634000D01*
X136723000Y-104782000D01*
X145725000Y-104782000D01*
X145725000Y-106634000D01*
G37*
G36*
X159238000Y-106075000D02*
G01*
X157586000Y-106075000D01*
X157586000Y-104673000D01*
X159238000Y-104673000D01*
X159238000Y-106075000D01*
G37*
G36*
X151278000Y-106075000D02*
G01*
X149626000Y-106075000D01*
X149626000Y-104673000D01*
X151278000Y-104673000D01*
X151278000Y-106075000D01*
G37*
G36*
X126073000Y-104989000D02*
G01*
X124371000Y-104989000D01*
X124371000Y-102687000D01*
X126073000Y-102687000D01*
X126073000Y-104989000D01*
G37*
G36*
X114970000Y-104306000D02*
G01*
X112868000Y-104306000D01*
X112868000Y-102704000D01*
X114970000Y-102704000D01*
X114970000Y-104306000D01*
G37*
G36*
X121270000Y-103156000D02*
G01*
X119168000Y-103156000D01*
X119168000Y-99254000D01*
X121270000Y-99254000D01*
X121270000Y-103156000D01*
G37*
G36*
X162439604Y-101309347D02*
G01*
X162476144Y-101320432D01*
X162509821Y-101338433D01*
X162539341Y-101362659D01*
X162563567Y-101392179D01*
X162581568Y-101425856D01*
X162592653Y-101462396D01*
X162597000Y-101506538D01*
X162597000Y-102455462D01*
X162592653Y-102499604D01*
X162581568Y-102536144D01*
X162563567Y-102569821D01*
X162539341Y-102599341D01*
X162509821Y-102623567D01*
X162476144Y-102641568D01*
X162439604Y-102652653D01*
X162395462Y-102657000D01*
X160946538Y-102657000D01*
X160902396Y-102652653D01*
X160865856Y-102641568D01*
X160832179Y-102623567D01*
X160802659Y-102599341D01*
X160778433Y-102569821D01*
X160760432Y-102536144D01*
X160749347Y-102499604D01*
X160745000Y-102455462D01*
X160745000Y-101506538D01*
X160749347Y-101462396D01*
X160760432Y-101425856D01*
X160778433Y-101392179D01*
X160802659Y-101362659D01*
X160832179Y-101338433D01*
X160865856Y-101320432D01*
X160902396Y-101309347D01*
X160946538Y-101305000D01*
X162395462Y-101305000D01*
X162439604Y-101309347D01*
G37*
G36*
X114970000Y-102006000D02*
G01*
X112868000Y-102006000D01*
X112868000Y-100404000D01*
X114970000Y-100404000D01*
X114970000Y-102006000D01*
G37*
G36*
X126073000Y-101989000D02*
G01*
X124371000Y-101989000D01*
X124371000Y-99687000D01*
X126073000Y-99687000D01*
X126073000Y-101989000D01*
G37*
G36*
X159238000Y-101575000D02*
G01*
X157586000Y-101575000D01*
X157586000Y-100173000D01*
X159238000Y-100173000D01*
X159238000Y-101575000D01*
G37*
G36*
X151278000Y-101575000D02*
G01*
X149626000Y-101575000D01*
X149626000Y-100173000D01*
X151278000Y-100173000D01*
X151278000Y-101575000D01*
G37*
G36*
X133864604Y-100172347D02*
G01*
X133901144Y-100183432D01*
X133934821Y-100201433D01*
X133964341Y-100225659D01*
X133988567Y-100255179D01*
X134006568Y-100288856D01*
X134017653Y-100325396D01*
X134022000Y-100369538D01*
X134022000Y-101318462D01*
X134017653Y-101362604D01*
X134006568Y-101399144D01*
X133988567Y-101432821D01*
X133964341Y-101462341D01*
X133934821Y-101486567D01*
X133901144Y-101504568D01*
X133864604Y-101515653D01*
X133820462Y-101520000D01*
X132371538Y-101520000D01*
X132327396Y-101515653D01*
X132290856Y-101504568D01*
X132257179Y-101486567D01*
X132227659Y-101462341D01*
X132203433Y-101432821D01*
X132185432Y-101399144D01*
X132174347Y-101362604D01*
X132170000Y-101318462D01*
X132170000Y-100369538D01*
X132174347Y-100325396D01*
X132185432Y-100288856D01*
X132203433Y-100255179D01*
X132227659Y-100225659D01*
X132257179Y-100201433D01*
X132290856Y-100183432D01*
X132327396Y-100172347D01*
X132371538Y-100168000D01*
X133820462Y-100168000D01*
X133864604Y-100172347D01*
G37*
G36*
X162439604Y-98509347D02*
G01*
X162476144Y-98520432D01*
X162509821Y-98538433D01*
X162539341Y-98562659D01*
X162563567Y-98592179D01*
X162581568Y-98625856D01*
X162592653Y-98662396D01*
X162597000Y-98706538D01*
X162597000Y-99655462D01*
X162592653Y-99699604D01*
X162581568Y-99736144D01*
X162563567Y-99769821D01*
X162539341Y-99799341D01*
X162509821Y-99823567D01*
X162476144Y-99841568D01*
X162439604Y-99852653D01*
X162395462Y-99857000D01*
X160946538Y-99857000D01*
X160902396Y-99852653D01*
X160865856Y-99841568D01*
X160832179Y-99823567D01*
X160802659Y-99799341D01*
X160778433Y-99769821D01*
X160760432Y-99736144D01*
X160749347Y-99699604D01*
X160745000Y-99655462D01*
X160745000Y-98706538D01*
X160749347Y-98662396D01*
X160760432Y-98625856D01*
X160778433Y-98592179D01*
X160802659Y-98562659D01*
X160832179Y-98538433D01*
X160865856Y-98520432D01*
X160902396Y-98509347D01*
X160946538Y-98505000D01*
X162395462Y-98505000D01*
X162439604Y-98509347D01*
G37*
G36*
X114970000Y-99706000D02*
G01*
X112868000Y-99706000D01*
X112868000Y-98104000D01*
X114970000Y-98104000D01*
X114970000Y-99706000D01*
G37*
G36*
X145725000Y-99434000D02*
G01*
X136723000Y-99434000D01*
X136723000Y-97582000D01*
X145725000Y-97582000D01*
X145725000Y-99434000D01*
G37*
G36*
X168386028Y-97401433D02*
G01*
X168537812Y-97431624D01*
X168701784Y-97499544D01*
X168849354Y-97598147D01*
X168974853Y-97723646D01*
X169073456Y-97871216D01*
X169141376Y-98035188D01*
X169176000Y-98209259D01*
X169176000Y-98386741D01*
X169141376Y-98560812D01*
X169073456Y-98724784D01*
X168974853Y-98872354D01*
X168849354Y-98997853D01*
X168701784Y-99096456D01*
X168537812Y-99164376D01*
X168388512Y-99194073D01*
X168363742Y-99199000D01*
X168186258Y-99199000D01*
X168161488Y-99194073D01*
X168012188Y-99164376D01*
X167848216Y-99096456D01*
X167700646Y-98997853D01*
X167575147Y-98872354D01*
X167476544Y-98724784D01*
X167408624Y-98560812D01*
X167374000Y-98386741D01*
X167374000Y-98209259D01*
X167408624Y-98035188D01*
X167476544Y-97871216D01*
X167575147Y-97723646D01*
X167700646Y-97598147D01*
X167848216Y-97499544D01*
X168012188Y-97431624D01*
X168163972Y-97401433D01*
X168186258Y-97397000D01*
X168363742Y-97397000D01*
X168386028Y-97401433D01*
G37*
G36*
X170926028Y-97401433D02*
G01*
X171077812Y-97431624D01*
X171241784Y-97499544D01*
X171389354Y-97598147D01*
X171514853Y-97723646D01*
X171613456Y-97871216D01*
X171681376Y-98035188D01*
X171716000Y-98209259D01*
X171716000Y-98386741D01*
X171681376Y-98560812D01*
X171613456Y-98724784D01*
X171514853Y-98872354D01*
X171389354Y-98997853D01*
X171241784Y-99096456D01*
X171077812Y-99164376D01*
X170928512Y-99194073D01*
X170903742Y-99199000D01*
X170726258Y-99199000D01*
X170701488Y-99194073D01*
X170552188Y-99164376D01*
X170388216Y-99096456D01*
X170240646Y-98997853D01*
X170115147Y-98872354D01*
X170016544Y-98724784D01*
X169948624Y-98560812D01*
X169914000Y-98386741D01*
X169914000Y-98209259D01*
X169948624Y-98035188D01*
X170016544Y-97871216D01*
X170115147Y-97723646D01*
X170240646Y-97598147D01*
X170388216Y-97499544D01*
X170552188Y-97431624D01*
X170703972Y-97401433D01*
X170726258Y-97397000D01*
X170903742Y-97397000D01*
X170926028Y-97401433D01*
G37*
G36*
X128784604Y-97632347D02*
G01*
X128821144Y-97643432D01*
X128854821Y-97661433D01*
X128884341Y-97685659D01*
X128908567Y-97715179D01*
X128926568Y-97748856D01*
X128937653Y-97785396D01*
X128942000Y-97829538D01*
X128942000Y-98778462D01*
X128937653Y-98822604D01*
X128926568Y-98859144D01*
X128908567Y-98892821D01*
X128884341Y-98922341D01*
X128854821Y-98946567D01*
X128821144Y-98964568D01*
X128784604Y-98975653D01*
X128740462Y-98980000D01*
X127291538Y-98980000D01*
X127247396Y-98975653D01*
X127210856Y-98964568D01*
X127177179Y-98946567D01*
X127147659Y-98922341D01*
X127123433Y-98892821D01*
X127105432Y-98859144D01*
X127094347Y-98822604D01*
X127090000Y-98778462D01*
X127090000Y-97829538D01*
X127094347Y-97785396D01*
X127105432Y-97748856D01*
X127123433Y-97715179D01*
X127147659Y-97685659D01*
X127177179Y-97661433D01*
X127210856Y-97643432D01*
X127247396Y-97632347D01*
X127291538Y-97628000D01*
X128740462Y-97628000D01*
X128784604Y-97632347D01*
G37*
G36*
X133864604Y-97372347D02*
G01*
X133901144Y-97383432D01*
X133934821Y-97401433D01*
X133964341Y-97425659D01*
X133988567Y-97455179D01*
X134006568Y-97488856D01*
X134017653Y-97525396D01*
X134022000Y-97569538D01*
X134022000Y-98518462D01*
X134017653Y-98562604D01*
X134006568Y-98599144D01*
X133988567Y-98632821D01*
X133964341Y-98662341D01*
X133934821Y-98686567D01*
X133901144Y-98704568D01*
X133864604Y-98715653D01*
X133820462Y-98720000D01*
X132371538Y-98720000D01*
X132327396Y-98715653D01*
X132290856Y-98704568D01*
X132257179Y-98686567D01*
X132227659Y-98662341D01*
X132203433Y-98632821D01*
X132185432Y-98599144D01*
X132174347Y-98562604D01*
X132170000Y-98518462D01*
X132170000Y-97569538D01*
X132174347Y-97525396D01*
X132185432Y-97488856D01*
X132203433Y-97455179D01*
X132227659Y-97425659D01*
X132257179Y-97401433D01*
X132290856Y-97383432D01*
X132327396Y-97372347D01*
X132371538Y-97368000D01*
X133820462Y-97368000D01*
X133864604Y-97372347D01*
G37*
G36*
X144729468Y-95605065D02*
G01*
X144768138Y-95616796D01*
X144803777Y-95635846D01*
X144835017Y-95661483D01*
X144860654Y-95692723D01*
X144879704Y-95728362D01*
X144891435Y-95767032D01*
X144896000Y-95813388D01*
X144896000Y-96464612D01*
X144891435Y-96510968D01*
X144879704Y-96549638D01*
X144860654Y-96585277D01*
X144835017Y-96616517D01*
X144803777Y-96642154D01*
X144768138Y-96661204D01*
X144729468Y-96672935D01*
X144683112Y-96677500D01*
X143606888Y-96677500D01*
X143560532Y-96672935D01*
X143521862Y-96661204D01*
X143486223Y-96642154D01*
X143454983Y-96616517D01*
X143429346Y-96585277D01*
X143410296Y-96549638D01*
X143398565Y-96510968D01*
X143394000Y-96464612D01*
X143394000Y-95813388D01*
X143398565Y-95767032D01*
X143410296Y-95728362D01*
X143429346Y-95692723D01*
X143454983Y-95661483D01*
X143486223Y-95635846D01*
X143521862Y-95616796D01*
X143560532Y-95605065D01*
X143606888Y-95600500D01*
X144683112Y-95600500D01*
X144729468Y-95605065D01*
G37*
G36*
X168386028Y-94861433D02*
G01*
X168537812Y-94891624D01*
X168701784Y-94959544D01*
X168849354Y-95058147D01*
X168974853Y-95183646D01*
X169073456Y-95331216D01*
X169141376Y-95495188D01*
X169176000Y-95669259D01*
X169176000Y-95846741D01*
X169141376Y-96020812D01*
X169073456Y-96184784D01*
X168974853Y-96332354D01*
X168849354Y-96457853D01*
X168701784Y-96556456D01*
X168537812Y-96624376D01*
X168388512Y-96654073D01*
X168363742Y-96659000D01*
X168186258Y-96659000D01*
X168161488Y-96654073D01*
X168012188Y-96624376D01*
X167848216Y-96556456D01*
X167700646Y-96457853D01*
X167575147Y-96332354D01*
X167476544Y-96184784D01*
X167408624Y-96020812D01*
X167374000Y-95846741D01*
X167374000Y-95669259D01*
X167408624Y-95495188D01*
X167476544Y-95331216D01*
X167575147Y-95183646D01*
X167700646Y-95058147D01*
X167848216Y-94959544D01*
X168012188Y-94891624D01*
X168163972Y-94861433D01*
X168186258Y-94857000D01*
X168363742Y-94857000D01*
X168386028Y-94861433D01*
G37*
G36*
X170926028Y-94861433D02*
G01*
X171077812Y-94891624D01*
X171241784Y-94959544D01*
X171389354Y-95058147D01*
X171514853Y-95183646D01*
X171613456Y-95331216D01*
X171681376Y-95495188D01*
X171716000Y-95669259D01*
X171716000Y-95846741D01*
X171681376Y-96020812D01*
X171613456Y-96184784D01*
X171514853Y-96332354D01*
X171389354Y-96457853D01*
X171241784Y-96556456D01*
X171077812Y-96624376D01*
X170928512Y-96654073D01*
X170903742Y-96659000D01*
X170726258Y-96659000D01*
X170701488Y-96654073D01*
X170552188Y-96624376D01*
X170388216Y-96556456D01*
X170240646Y-96457853D01*
X170115147Y-96332354D01*
X170016544Y-96184784D01*
X169948624Y-96020812D01*
X169914000Y-95846741D01*
X169914000Y-95669259D01*
X169948624Y-95495188D01*
X170016544Y-95331216D01*
X170115147Y-95183646D01*
X170240646Y-95058147D01*
X170388216Y-94959544D01*
X170552188Y-94891624D01*
X170703972Y-94861433D01*
X170726258Y-94857000D01*
X170903742Y-94857000D01*
X170926028Y-94861433D01*
G37*
G36*
X128784604Y-94832347D02*
G01*
X128821144Y-94843432D01*
X128854821Y-94861433D01*
X128884341Y-94885659D01*
X128908567Y-94915179D01*
X128926568Y-94948856D01*
X128937653Y-94985396D01*
X128942000Y-95029538D01*
X128942000Y-95978462D01*
X128937653Y-96022604D01*
X128926568Y-96059144D01*
X128908567Y-96092821D01*
X128884341Y-96122341D01*
X128854821Y-96146567D01*
X128821144Y-96164568D01*
X128784604Y-96175653D01*
X128740462Y-96180000D01*
X127291538Y-96180000D01*
X127247396Y-96175653D01*
X127210856Y-96164568D01*
X127177179Y-96146567D01*
X127147659Y-96122341D01*
X127123433Y-96092821D01*
X127105432Y-96059144D01*
X127094347Y-96022604D01*
X127090000Y-95978462D01*
X127090000Y-95029538D01*
X127094347Y-94985396D01*
X127105432Y-94948856D01*
X127123433Y-94915179D01*
X127147659Y-94885659D01*
X127177179Y-94861433D01*
X127210856Y-94843432D01*
X127247396Y-94832347D01*
X127291538Y-94828000D01*
X128740462Y-94828000D01*
X128784604Y-94832347D01*
G37*
G36*
X115900097Y-93751069D02*
G01*
X116003032Y-93761207D01*
X116201146Y-93821305D01*
X116201149Y-93821306D01*
X116261121Y-93853362D01*
X116383729Y-93918897D01*
X116543765Y-94050235D01*
X116675103Y-94210271D01*
X116708203Y-94272198D01*
X116772694Y-94392851D01*
X116772695Y-94392854D01*
X116832793Y-94590968D01*
X116853085Y-94797000D01*
X116832793Y-95003032D01*
X116778003Y-95183647D01*
X116772694Y-95201149D01*
X116733433Y-95274600D01*
X116675103Y-95383729D01*
X116543765Y-95543765D01*
X116383729Y-95675103D01*
X116299427Y-95720163D01*
X116201149Y-95772694D01*
X116201146Y-95772695D01*
X116003032Y-95832793D01*
X115900097Y-95842931D01*
X115848631Y-95848000D01*
X114245369Y-95848000D01*
X114193903Y-95842931D01*
X114090968Y-95832793D01*
X113892854Y-95772695D01*
X113892851Y-95772694D01*
X113794573Y-95720163D01*
X113710271Y-95675103D01*
X113550235Y-95543765D01*
X113418897Y-95383729D01*
X113360567Y-95274600D01*
X113321306Y-95201149D01*
X113315997Y-95183647D01*
X113261207Y-95003032D01*
X113240915Y-94797000D01*
X113261207Y-94590968D01*
X113321305Y-94392854D01*
X113321306Y-94392851D01*
X113385797Y-94272198D01*
X113418897Y-94210271D01*
X113550235Y-94050235D01*
X113710271Y-93918897D01*
X113832879Y-93853362D01*
X113892851Y-93821306D01*
X113892854Y-93821305D01*
X114090968Y-93761207D01*
X114193903Y-93751069D01*
X114245369Y-93746000D01*
X115848631Y-93746000D01*
X115900097Y-93751069D01*
G37*
G36*
X160407604Y-94330347D02*
G01*
X160444144Y-94341432D01*
X160477821Y-94359433D01*
X160507341Y-94383659D01*
X160531567Y-94413179D01*
X160549568Y-94446856D01*
X160560653Y-94483396D01*
X160565000Y-94527538D01*
X160565000Y-95476462D01*
X160560653Y-95520604D01*
X160549568Y-95557144D01*
X160531567Y-95590821D01*
X160507341Y-95620341D01*
X160477821Y-95644567D01*
X160444144Y-95662568D01*
X160407604Y-95673653D01*
X160363462Y-95678000D01*
X158914538Y-95678000D01*
X158870396Y-95673653D01*
X158833856Y-95662568D01*
X158800179Y-95644567D01*
X158770659Y-95620341D01*
X158746433Y-95590821D01*
X158728432Y-95557144D01*
X158717347Y-95520604D01*
X158713000Y-95476462D01*
X158713000Y-94527538D01*
X158717347Y-94483396D01*
X158728432Y-94446856D01*
X158746433Y-94413179D01*
X158770659Y-94383659D01*
X158800179Y-94359433D01*
X158833856Y-94341432D01*
X158870396Y-94330347D01*
X158914538Y-94326000D01*
X160363462Y-94326000D01*
X160407604Y-94330347D01*
G37*
G36*
X148088604Y-94324347D02*
G01*
X148125144Y-94335432D01*
X148158821Y-94353433D01*
X148188341Y-94377659D01*
X148212567Y-94407179D01*
X148230568Y-94440856D01*
X148241653Y-94477396D01*
X148246000Y-94521538D01*
X148246000Y-95470462D01*
X148241653Y-95514604D01*
X148230568Y-95551144D01*
X148212567Y-95584821D01*
X148188341Y-95614341D01*
X148158821Y-95638567D01*
X148125144Y-95656568D01*
X148088604Y-95667653D01*
X148044462Y-95672000D01*
X146595538Y-95672000D01*
X146551396Y-95667653D01*
X146514856Y-95656568D01*
X146481179Y-95638567D01*
X146451659Y-95614341D01*
X146427433Y-95584821D01*
X146409432Y-95551144D01*
X146398347Y-95514604D01*
X146394000Y-95470462D01*
X146394000Y-94521538D01*
X146398347Y-94477396D01*
X146409432Y-94440856D01*
X146427433Y-94407179D01*
X146451659Y-94377659D01*
X146481179Y-94353433D01*
X146514856Y-94335432D01*
X146551396Y-94324347D01*
X146595538Y-94320000D01*
X148044462Y-94320000D01*
X148088604Y-94324347D01*
G37*
G36*
X151263604Y-94197347D02*
G01*
X151300144Y-94208432D01*
X151333821Y-94226433D01*
X151363341Y-94250659D01*
X151387567Y-94280179D01*
X151405568Y-94313856D01*
X151416653Y-94350396D01*
X151421000Y-94394538D01*
X151421000Y-95343462D01*
X151416653Y-95387604D01*
X151405568Y-95424144D01*
X151387567Y-95457821D01*
X151363341Y-95487341D01*
X151333821Y-95511567D01*
X151300144Y-95529568D01*
X151263604Y-95540653D01*
X151219462Y-95545000D01*
X149770538Y-95545000D01*
X149726396Y-95540653D01*
X149689856Y-95529568D01*
X149656179Y-95511567D01*
X149626659Y-95487341D01*
X149602433Y-95457821D01*
X149584432Y-95424144D01*
X149573347Y-95387604D01*
X149569000Y-95343462D01*
X149569000Y-94394538D01*
X149573347Y-94350396D01*
X149584432Y-94313856D01*
X149602433Y-94280179D01*
X149626659Y-94250659D01*
X149656179Y-94226433D01*
X149689856Y-94208432D01*
X149726396Y-94197347D01*
X149770538Y-94193000D01*
X151219462Y-94193000D01*
X151263604Y-94197347D01*
G37*
G36*
X144729468Y-93730065D02*
G01*
X144768138Y-93741796D01*
X144803777Y-93760846D01*
X144835017Y-93786483D01*
X144860654Y-93817723D01*
X144879704Y-93853362D01*
X144891435Y-93892032D01*
X144896000Y-93938388D01*
X144896000Y-94589612D01*
X144891435Y-94635968D01*
X144879704Y-94674638D01*
X144860654Y-94710277D01*
X144835017Y-94741517D01*
X144803777Y-94767154D01*
X144768138Y-94786204D01*
X144729468Y-94797935D01*
X144683112Y-94802500D01*
X143606888Y-94802500D01*
X143560532Y-94797935D01*
X143521862Y-94786204D01*
X143486223Y-94767154D01*
X143454983Y-94741517D01*
X143429346Y-94710277D01*
X143410296Y-94674638D01*
X143398565Y-94635968D01*
X143394000Y-94589612D01*
X143394000Y-93938388D01*
X143398565Y-93892032D01*
X143410296Y-93853362D01*
X143429346Y-93817723D01*
X143454983Y-93786483D01*
X143486223Y-93760846D01*
X143521862Y-93741796D01*
X143560532Y-93730065D01*
X143606888Y-93725500D01*
X144683112Y-93725500D01*
X144729468Y-93730065D01*
G37*
G36*
X134880604Y-92927347D02*
G01*
X134917144Y-92938432D01*
X134950821Y-92956433D01*
X134980341Y-92980659D01*
X135004567Y-93010179D01*
X135022568Y-93043856D01*
X135033653Y-93080396D01*
X135038000Y-93124538D01*
X135038000Y-94073462D01*
X135033653Y-94117604D01*
X135022568Y-94154144D01*
X135004567Y-94187821D01*
X134980341Y-94217341D01*
X134950821Y-94241567D01*
X134917144Y-94259568D01*
X134880604Y-94270653D01*
X134836462Y-94275000D01*
X133387538Y-94275000D01*
X133343396Y-94270653D01*
X133306856Y-94259568D01*
X133273179Y-94241567D01*
X133243659Y-94217341D01*
X133219433Y-94187821D01*
X133201432Y-94154144D01*
X133190347Y-94117604D01*
X133186000Y-94073462D01*
X133186000Y-93124538D01*
X133190347Y-93080396D01*
X133201432Y-93043856D01*
X133219433Y-93010179D01*
X133243659Y-92980659D01*
X133273179Y-92956433D01*
X133306856Y-92938432D01*
X133343396Y-92927347D01*
X133387538Y-92923000D01*
X134836462Y-92923000D01*
X134880604Y-92927347D01*
G37*
G36*
X169176000Y-94119000D02*
G01*
X167374000Y-94119000D01*
X167374000Y-92317000D01*
X169176000Y-92317000D01*
X169176000Y-94119000D01*
G37*
G36*
X170928512Y-92321927D02*
G01*
X171077812Y-92351624D01*
X171241784Y-92419544D01*
X171389354Y-92518147D01*
X171514853Y-92643646D01*
X171613456Y-92791216D01*
X171681376Y-92955188D01*
X171716000Y-93129259D01*
X171716000Y-93306741D01*
X171681376Y-93480812D01*
X171613456Y-93644784D01*
X171514853Y-93792354D01*
X171389354Y-93917853D01*
X171241784Y-94016456D01*
X171077812Y-94084376D01*
X170928512Y-94114073D01*
X170903742Y-94119000D01*
X170726258Y-94119000D01*
X170701488Y-94114073D01*
X170552188Y-94084376D01*
X170388216Y-94016456D01*
X170240646Y-93917853D01*
X170115147Y-93792354D01*
X170016544Y-93644784D01*
X169948624Y-93480812D01*
X169914000Y-93306741D01*
X169914000Y-93129259D01*
X169948624Y-92955188D01*
X170016544Y-92791216D01*
X170115147Y-92643646D01*
X170240646Y-92518147D01*
X170388216Y-92419544D01*
X170552188Y-92351624D01*
X170701488Y-92321927D01*
X170726258Y-92317000D01*
X170903742Y-92317000D01*
X170928512Y-92321927D01*
G37*
G36*
X160407604Y-91530347D02*
G01*
X160444144Y-91541432D01*
X160477821Y-91559433D01*
X160507341Y-91583659D01*
X160531567Y-91613179D01*
X160549568Y-91646856D01*
X160560653Y-91683396D01*
X160565000Y-91727538D01*
X160565000Y-92676462D01*
X160560653Y-92720604D01*
X160549568Y-92757144D01*
X160531567Y-92790821D01*
X160507341Y-92820341D01*
X160477821Y-92844567D01*
X160444144Y-92862568D01*
X160407604Y-92873653D01*
X160363462Y-92878000D01*
X158914538Y-92878000D01*
X158870396Y-92873653D01*
X158833856Y-92862568D01*
X158800179Y-92844567D01*
X158770659Y-92820341D01*
X158746433Y-92790821D01*
X158728432Y-92757144D01*
X158717347Y-92720604D01*
X158713000Y-92676462D01*
X158713000Y-91727538D01*
X158717347Y-91683396D01*
X158728432Y-91646856D01*
X158746433Y-91613179D01*
X158770659Y-91583659D01*
X158800179Y-91559433D01*
X158833856Y-91541432D01*
X158870396Y-91530347D01*
X158914538Y-91526000D01*
X160363462Y-91526000D01*
X160407604Y-91530347D01*
G37*
G36*
X148088604Y-91524347D02*
G01*
X148125144Y-91535432D01*
X148158821Y-91553433D01*
X148188341Y-91577659D01*
X148212567Y-91607179D01*
X148230568Y-91640856D01*
X148241653Y-91677396D01*
X148246000Y-91721538D01*
X148246000Y-92670462D01*
X148241653Y-92714604D01*
X148230568Y-92751144D01*
X148212567Y-92784821D01*
X148188341Y-92814341D01*
X148158821Y-92838567D01*
X148125144Y-92856568D01*
X148088604Y-92867653D01*
X148044462Y-92872000D01*
X146595538Y-92872000D01*
X146551396Y-92867653D01*
X146514856Y-92856568D01*
X146481179Y-92838567D01*
X146451659Y-92814341D01*
X146427433Y-92784821D01*
X146409432Y-92751144D01*
X146398347Y-92714604D01*
X146394000Y-92670462D01*
X146394000Y-91721538D01*
X146398347Y-91677396D01*
X146409432Y-91640856D01*
X146427433Y-91607179D01*
X146451659Y-91577659D01*
X146481179Y-91553433D01*
X146514856Y-91535432D01*
X146551396Y-91524347D01*
X146595538Y-91520000D01*
X148044462Y-91520000D01*
X148088604Y-91524347D01*
G37*
G36*
X151263604Y-91397347D02*
G01*
X151300144Y-91408432D01*
X151333821Y-91426433D01*
X151363341Y-91450659D01*
X151387567Y-91480179D01*
X151405568Y-91513856D01*
X151416653Y-91550396D01*
X151421000Y-91594538D01*
X151421000Y-92543462D01*
X151416653Y-92587604D01*
X151405568Y-92624144D01*
X151387567Y-92657821D01*
X151363341Y-92687341D01*
X151333821Y-92711567D01*
X151300144Y-92729568D01*
X151263604Y-92740653D01*
X151219462Y-92745000D01*
X149770538Y-92745000D01*
X149726396Y-92740653D01*
X149689856Y-92729568D01*
X149656179Y-92711567D01*
X149626659Y-92687341D01*
X149602433Y-92657821D01*
X149584432Y-92624144D01*
X149573347Y-92587604D01*
X149569000Y-92543462D01*
X149569000Y-91594538D01*
X149573347Y-91550396D01*
X149584432Y-91513856D01*
X149602433Y-91480179D01*
X149626659Y-91450659D01*
X149656179Y-91426433D01*
X149689856Y-91408432D01*
X149726396Y-91397347D01*
X149770538Y-91393000D01*
X151219462Y-91393000D01*
X151263604Y-91397347D01*
G37*
G36*
X140720604Y-90772347D02*
G01*
X140757144Y-90783432D01*
X140790821Y-90801433D01*
X140820341Y-90825659D01*
X140844567Y-90855179D01*
X140862568Y-90888856D01*
X140873653Y-90925396D01*
X140878000Y-90969538D01*
X140878000Y-92418462D01*
X140873653Y-92462604D01*
X140862568Y-92499144D01*
X140844567Y-92532821D01*
X140820341Y-92562341D01*
X140790821Y-92586567D01*
X140757144Y-92604568D01*
X140720604Y-92615653D01*
X140676462Y-92620000D01*
X139727538Y-92620000D01*
X139683396Y-92615653D01*
X139646856Y-92604568D01*
X139613179Y-92586567D01*
X139583659Y-92562341D01*
X139559433Y-92532821D01*
X139541432Y-92499144D01*
X139530347Y-92462604D01*
X139526000Y-92418462D01*
X139526000Y-90969538D01*
X139530347Y-90925396D01*
X139541432Y-90888856D01*
X139559433Y-90855179D01*
X139583659Y-90825659D01*
X139613179Y-90801433D01*
X139646856Y-90783432D01*
X139683396Y-90772347D01*
X139727538Y-90768000D01*
X140676462Y-90768000D01*
X140720604Y-90772347D01*
G37*
G36*
X143520604Y-90772347D02*
G01*
X143557144Y-90783432D01*
X143590821Y-90801433D01*
X143620341Y-90825659D01*
X143644567Y-90855179D01*
X143662568Y-90888856D01*
X143673653Y-90925396D01*
X143678000Y-90969538D01*
X143678000Y-92418462D01*
X143673653Y-92462604D01*
X143662568Y-92499144D01*
X143644567Y-92532821D01*
X143620341Y-92562341D01*
X143590821Y-92586567D01*
X143557144Y-92604568D01*
X143520604Y-92615653D01*
X143476462Y-92620000D01*
X142527538Y-92620000D01*
X142483396Y-92615653D01*
X142446856Y-92604568D01*
X142413179Y-92586567D01*
X142383659Y-92562341D01*
X142359433Y-92532821D01*
X142341432Y-92499144D01*
X142330347Y-92462604D01*
X142326000Y-92418462D01*
X142326000Y-90969538D01*
X142330347Y-90925396D01*
X142341432Y-90888856D01*
X142359433Y-90855179D01*
X142383659Y-90825659D01*
X142413179Y-90801433D01*
X142446856Y-90783432D01*
X142483396Y-90772347D01*
X142527538Y-90768000D01*
X143476462Y-90768000D01*
X143520604Y-90772347D01*
G37*
G36*
X123098000Y-92348000D02*
G01*
X120996000Y-92348000D01*
X120996000Y-88246000D01*
X123098000Y-88246000D01*
X123098000Y-92348000D01*
G37*
G36*
X116253032Y-88611207D02*
G01*
X116451146Y-88671305D01*
X116451149Y-88671306D01*
X116547975Y-88723061D01*
X116633729Y-88768897D01*
X116793765Y-88900235D01*
X116925103Y-89060271D01*
X116970939Y-89146025D01*
X117022694Y-89242851D01*
X117022695Y-89242854D01*
X117082793Y-89440968D01*
X117098000Y-89595370D01*
X117098000Y-90998630D01*
X117082793Y-91153032D01*
X117051147Y-91257352D01*
X117022694Y-91351149D01*
X116992075Y-91408432D01*
X116925103Y-91533729D01*
X116793765Y-91693765D01*
X116633729Y-91825103D01*
X116517030Y-91887479D01*
X116451148Y-91922694D01*
X116451145Y-91922695D01*
X116253031Y-91982793D01*
X116047000Y-92003085D01*
X115840968Y-91982793D01*
X115642854Y-91922695D01*
X115642851Y-91922694D01*
X115546025Y-91870939D01*
X115460271Y-91825103D01*
X115300235Y-91693765D01*
X115168897Y-91533729D01*
X115095174Y-91395802D01*
X115071306Y-91351148D01*
X115042853Y-91257352D01*
X115011207Y-91153031D01*
X114996000Y-90998629D01*
X114996000Y-89595369D01*
X115011207Y-89440970D01*
X115071305Y-89242853D01*
X115146184Y-89102765D01*
X115168898Y-89060271D01*
X115300236Y-88900235D01*
X115460272Y-88768897D01*
X115546026Y-88723061D01*
X115642852Y-88671306D01*
X115642855Y-88671305D01*
X115840969Y-88611207D01*
X116047000Y-88590915D01*
X116253032Y-88611207D01*
G37*
G36*
X134880604Y-90127347D02*
G01*
X134917144Y-90138432D01*
X134950821Y-90156433D01*
X134980341Y-90180659D01*
X135004567Y-90210179D01*
X135022568Y-90243856D01*
X135033653Y-90280396D01*
X135038000Y-90324538D01*
X135038000Y-91273462D01*
X135033653Y-91317604D01*
X135022568Y-91354144D01*
X135004567Y-91387821D01*
X134980341Y-91417341D01*
X134950821Y-91441567D01*
X134917144Y-91459568D01*
X134880604Y-91470653D01*
X134836462Y-91475000D01*
X133387538Y-91475000D01*
X133343396Y-91470653D01*
X133306856Y-91459568D01*
X133273179Y-91441567D01*
X133243659Y-91417341D01*
X133219433Y-91387821D01*
X133201432Y-91354144D01*
X133190347Y-91317604D01*
X133186000Y-91273462D01*
X133186000Y-90324538D01*
X133190347Y-90280396D01*
X133201432Y-90243856D01*
X133219433Y-90210179D01*
X133243659Y-90180659D01*
X133273179Y-90156433D01*
X133306856Y-90138432D01*
X133343396Y-90127347D01*
X133387538Y-90123000D01*
X134836462Y-90123000D01*
X134880604Y-90127347D01*
G37*
G36*
X113295228Y-89478703D02*
G01*
X113450100Y-89542853D01*
X113589481Y-89635985D01*
X113708015Y-89754519D01*
X113801147Y-89893900D01*
X113865297Y-90048772D01*
X113898000Y-90213184D01*
X113898000Y-90380816D01*
X113865297Y-90545228D01*
X113801147Y-90700100D01*
X113708015Y-90839481D01*
X113589481Y-90958015D01*
X113450100Y-91051147D01*
X113295228Y-91115297D01*
X113130816Y-91148000D01*
X112963184Y-91148000D01*
X112798772Y-91115297D01*
X112643900Y-91051147D01*
X112504519Y-90958015D01*
X112385985Y-90839481D01*
X112292853Y-90700100D01*
X112228703Y-90545228D01*
X112196000Y-90380816D01*
X112196000Y-90213184D01*
X112228703Y-90048772D01*
X112292853Y-89893900D01*
X112385985Y-89754519D01*
X112504519Y-89635985D01*
X112643900Y-89542853D01*
X112798772Y-89478703D01*
X112963184Y-89446000D01*
X113130816Y-89446000D01*
X113295228Y-89478703D01*
G37*
G36*
X137236468Y-89225065D02*
G01*
X137275138Y-89236796D01*
X137310777Y-89255846D01*
X137342017Y-89281483D01*
X137367654Y-89312723D01*
X137386704Y-89348362D01*
X137398435Y-89387032D01*
X137403000Y-89433388D01*
X137403000Y-90084612D01*
X137398435Y-90130968D01*
X137386704Y-90169638D01*
X137367654Y-90205277D01*
X137342017Y-90236517D01*
X137310777Y-90262154D01*
X137275138Y-90281204D01*
X137236468Y-90292935D01*
X137190112Y-90297500D01*
X136113888Y-90297500D01*
X136067532Y-90292935D01*
X136028862Y-90281204D01*
X135993223Y-90262154D01*
X135961983Y-90236517D01*
X135936346Y-90205277D01*
X135917296Y-90169638D01*
X135905565Y-90130968D01*
X135901000Y-90084612D01*
X135901000Y-89433388D01*
X135905565Y-89387032D01*
X135917296Y-89348362D01*
X135936346Y-89312723D01*
X135961983Y-89281483D01*
X135993223Y-89255846D01*
X136028862Y-89236796D01*
X136067532Y-89225065D01*
X136113888Y-89220500D01*
X137190112Y-89220500D01*
X137236468Y-89225065D01*
G37*
G36*
X137236468Y-87350065D02*
G01*
X137275138Y-87361796D01*
X137310777Y-87380846D01*
X137342017Y-87406483D01*
X137367654Y-87437723D01*
X137386704Y-87473362D01*
X137398435Y-87512032D01*
X137403000Y-87558388D01*
X137403000Y-88209612D01*
X137398435Y-88255968D01*
X137386704Y-88294638D01*
X137367654Y-88330277D01*
X137342017Y-88361517D01*
X137310777Y-88387154D01*
X137275138Y-88406204D01*
X137236468Y-88417935D01*
X137190112Y-88422500D01*
X136113888Y-88422500D01*
X136067532Y-88417935D01*
X136028862Y-88406204D01*
X135993223Y-88387154D01*
X135961983Y-88361517D01*
X135936346Y-88330277D01*
X135917296Y-88294638D01*
X135905565Y-88255968D01*
X135901000Y-88209612D01*
X135901000Y-87558388D01*
X135905565Y-87512032D01*
X135917296Y-87473362D01*
X135936346Y-87437723D01*
X135961983Y-87406483D01*
X135993223Y-87380846D01*
X136028862Y-87361796D01*
X136067532Y-87350065D01*
X136113888Y-87345500D01*
X137190112Y-87345500D01*
X137236468Y-87350065D01*
G37*
G36*
X144766512Y-86098927D02*
G01*
X144915812Y-86128624D01*
X145079784Y-86196544D01*
X145227354Y-86295147D01*
X145352853Y-86420646D01*
X145451456Y-86568216D01*
X145519376Y-86732188D01*
X145554000Y-86906259D01*
X145554000Y-87083741D01*
X145519376Y-87257812D01*
X145451456Y-87421784D01*
X145352853Y-87569354D01*
X145227354Y-87694853D01*
X145079784Y-87793456D01*
X144915812Y-87861376D01*
X144766512Y-87891073D01*
X144741742Y-87896000D01*
X144564258Y-87896000D01*
X144539488Y-87891073D01*
X144390188Y-87861376D01*
X144226216Y-87793456D01*
X144078646Y-87694853D01*
X143953147Y-87569354D01*
X143854544Y-87421784D01*
X143786624Y-87257812D01*
X143752000Y-87083741D01*
X143752000Y-86906259D01*
X143786624Y-86732188D01*
X143854544Y-86568216D01*
X143953147Y-86420646D01*
X144078646Y-86295147D01*
X144226216Y-86196544D01*
X144390188Y-86128624D01*
X144539488Y-86098927D01*
X144564258Y-86094000D01*
X144741742Y-86094000D01*
X144766512Y-86098927D01*
G37*
G36*
X148094000Y-87896000D02*
G01*
X146292000Y-87896000D01*
X146292000Y-86094000D01*
X148094000Y-86094000D01*
X148094000Y-87896000D01*
G37*
G36*
X142226512Y-86098927D02*
G01*
X142375812Y-86128624D01*
X142539784Y-86196544D01*
X142687354Y-86295147D01*
X142812853Y-86420646D01*
X142911456Y-86568216D01*
X142979376Y-86732188D01*
X143014000Y-86906259D01*
X143014000Y-87083741D01*
X142979376Y-87257812D01*
X142911456Y-87421784D01*
X142812853Y-87569354D01*
X142687354Y-87694853D01*
X142539784Y-87793456D01*
X142375812Y-87861376D01*
X142226512Y-87891073D01*
X142201742Y-87896000D01*
X142024258Y-87896000D01*
X141999488Y-87891073D01*
X141850188Y-87861376D01*
X141686216Y-87793456D01*
X141538646Y-87694853D01*
X141413147Y-87569354D01*
X141314544Y-87421784D01*
X141246624Y-87257812D01*
X141212000Y-87083741D01*
X141212000Y-86906259D01*
X141246624Y-86732188D01*
X141314544Y-86568216D01*
X141413147Y-86420646D01*
X141538646Y-86295147D01*
X141686216Y-86196544D01*
X141850188Y-86128624D01*
X141999488Y-86098927D01*
X142024258Y-86094000D01*
X142201742Y-86094000D01*
X142226512Y-86098927D01*
G37*
G36*
X139686512Y-86098927D02*
G01*
X139835812Y-86128624D01*
X139999784Y-86196544D01*
X140147354Y-86295147D01*
X140272853Y-86420646D01*
X140371456Y-86568216D01*
X140439376Y-86732188D01*
X140474000Y-86906259D01*
X140474000Y-87083741D01*
X140439376Y-87257812D01*
X140371456Y-87421784D01*
X140272853Y-87569354D01*
X140147354Y-87694853D01*
X139999784Y-87793456D01*
X139835812Y-87861376D01*
X139686512Y-87891073D01*
X139661742Y-87896000D01*
X139484258Y-87896000D01*
X139459488Y-87891073D01*
X139310188Y-87861376D01*
X139146216Y-87793456D01*
X138998646Y-87694853D01*
X138873147Y-87569354D01*
X138774544Y-87421784D01*
X138706624Y-87257812D01*
X138672000Y-87083741D01*
X138672000Y-86906259D01*
X138706624Y-86732188D01*
X138774544Y-86568216D01*
X138873147Y-86420646D01*
X138998646Y-86295147D01*
X139146216Y-86196544D01*
X139310188Y-86128624D01*
X139459488Y-86098927D01*
X139484258Y-86094000D01*
X139661742Y-86094000D01*
X139686512Y-86098927D01*
G37*
G36*
X154164512Y-85844927D02*
G01*
X154313812Y-85874624D01*
X154477784Y-85942544D01*
X154625354Y-86041147D01*
X154750853Y-86166646D01*
X154849456Y-86314216D01*
X154917376Y-86478188D01*
X154952000Y-86652259D01*
X154952000Y-86829741D01*
X154917376Y-87003812D01*
X154849456Y-87167784D01*
X154750853Y-87315354D01*
X154625354Y-87440853D01*
X154477784Y-87539456D01*
X154313812Y-87607376D01*
X154164512Y-87637073D01*
X154139742Y-87642000D01*
X153962258Y-87642000D01*
X153937488Y-87637073D01*
X153788188Y-87607376D01*
X153624216Y-87539456D01*
X153476646Y-87440853D01*
X153351147Y-87315354D01*
X153252544Y-87167784D01*
X153184624Y-87003812D01*
X153150000Y-86829741D01*
X153150000Y-86652259D01*
X153184624Y-86478188D01*
X153252544Y-86314216D01*
X153351147Y-86166646D01*
X153476646Y-86041147D01*
X153624216Y-85942544D01*
X153788188Y-85874624D01*
X153937488Y-85844927D01*
X153962258Y-85840000D01*
X154139742Y-85840000D01*
X154164512Y-85844927D01*
G37*
G36*
X156704512Y-85844927D02*
G01*
X156853812Y-85874624D01*
X157017784Y-85942544D01*
X157165354Y-86041147D01*
X157290853Y-86166646D01*
X157389456Y-86314216D01*
X157457376Y-86478188D01*
X157492000Y-86652259D01*
X157492000Y-86829741D01*
X157457376Y-87003812D01*
X157389456Y-87167784D01*
X157290853Y-87315354D01*
X157165354Y-87440853D01*
X157017784Y-87539456D01*
X156853812Y-87607376D01*
X156704512Y-87637073D01*
X156679742Y-87642000D01*
X156502258Y-87642000D01*
X156477488Y-87637073D01*
X156328188Y-87607376D01*
X156164216Y-87539456D01*
X156016646Y-87440853D01*
X155891147Y-87315354D01*
X155792544Y-87167784D01*
X155724624Y-87003812D01*
X155690000Y-86829741D01*
X155690000Y-86652259D01*
X155724624Y-86478188D01*
X155792544Y-86314216D01*
X155891147Y-86166646D01*
X156016646Y-86041147D01*
X156164216Y-85942544D01*
X156328188Y-85874624D01*
X156477488Y-85844927D01*
X156502258Y-85840000D01*
X156679742Y-85840000D01*
X156704512Y-85844927D01*
G37*
G36*
X159244512Y-85844927D02*
G01*
X159393812Y-85874624D01*
X159557784Y-85942544D01*
X159705354Y-86041147D01*
X159830853Y-86166646D01*
X159929456Y-86314216D01*
X159997376Y-86478188D01*
X160032000Y-86652259D01*
X160032000Y-86829741D01*
X159997376Y-87003812D01*
X159929456Y-87167784D01*
X159830853Y-87315354D01*
X159705354Y-87440853D01*
X159557784Y-87539456D01*
X159393812Y-87607376D01*
X159244512Y-87637073D01*
X159219742Y-87642000D01*
X159042258Y-87642000D01*
X159017488Y-87637073D01*
X158868188Y-87607376D01*
X158704216Y-87539456D01*
X158556646Y-87440853D01*
X158431147Y-87315354D01*
X158332544Y-87167784D01*
X158264624Y-87003812D01*
X158230000Y-86829741D01*
X158230000Y-86652259D01*
X158264624Y-86478188D01*
X158332544Y-86314216D01*
X158431147Y-86166646D01*
X158556646Y-86041147D01*
X158704216Y-85942544D01*
X158868188Y-85874624D01*
X159017488Y-85844927D01*
X159042258Y-85840000D01*
X159219742Y-85840000D01*
X159244512Y-85844927D01*
G37*
G36*
X161784512Y-85844927D02*
G01*
X161933812Y-85874624D01*
X162097784Y-85942544D01*
X162245354Y-86041147D01*
X162370853Y-86166646D01*
X162469456Y-86314216D01*
X162537376Y-86478188D01*
X162572000Y-86652259D01*
X162572000Y-86829741D01*
X162537376Y-87003812D01*
X162469456Y-87167784D01*
X162370853Y-87315354D01*
X162245354Y-87440853D01*
X162097784Y-87539456D01*
X161933812Y-87607376D01*
X161784512Y-87637073D01*
X161759742Y-87642000D01*
X161582258Y-87642000D01*
X161557488Y-87637073D01*
X161408188Y-87607376D01*
X161244216Y-87539456D01*
X161096646Y-87440853D01*
X160971147Y-87315354D01*
X160872544Y-87167784D01*
X160804624Y-87003812D01*
X160770000Y-86829741D01*
X160770000Y-86652259D01*
X160804624Y-86478188D01*
X160872544Y-86314216D01*
X160971147Y-86166646D01*
X161096646Y-86041147D01*
X161244216Y-85942544D01*
X161408188Y-85874624D01*
X161557488Y-85844927D01*
X161582258Y-85840000D01*
X161759742Y-85840000D01*
X161784512Y-85844927D01*
G37*
G36*
X164324512Y-85844927D02*
G01*
X164473812Y-85874624D01*
X164637784Y-85942544D01*
X164785354Y-86041147D01*
X164910853Y-86166646D01*
X165009456Y-86314216D01*
X165077376Y-86478188D01*
X165112000Y-86652259D01*
X165112000Y-86829741D01*
X165077376Y-87003812D01*
X165009456Y-87167784D01*
X164910853Y-87315354D01*
X164785354Y-87440853D01*
X164637784Y-87539456D01*
X164473812Y-87607376D01*
X164324512Y-87637073D01*
X164299742Y-87642000D01*
X164122258Y-87642000D01*
X164097488Y-87637073D01*
X163948188Y-87607376D01*
X163784216Y-87539456D01*
X163636646Y-87440853D01*
X163511147Y-87315354D01*
X163412544Y-87167784D01*
X163344624Y-87003812D01*
X163310000Y-86829741D01*
X163310000Y-86652259D01*
X163344624Y-86478188D01*
X163412544Y-86314216D01*
X163511147Y-86166646D01*
X163636646Y-86041147D01*
X163784216Y-85942544D01*
X163948188Y-85874624D01*
X164097488Y-85844927D01*
X164122258Y-85840000D01*
X164299742Y-85840000D01*
X164324512Y-85844927D01*
G37*
G36*
X166864512Y-85844927D02*
G01*
X167013812Y-85874624D01*
X167177784Y-85942544D01*
X167325354Y-86041147D01*
X167450853Y-86166646D01*
X167549456Y-86314216D01*
X167617376Y-86478188D01*
X167652000Y-86652259D01*
X167652000Y-86829741D01*
X167617376Y-87003812D01*
X167549456Y-87167784D01*
X167450853Y-87315354D01*
X167325354Y-87440853D01*
X167177784Y-87539456D01*
X167013812Y-87607376D01*
X166864512Y-87637073D01*
X166839742Y-87642000D01*
X166662258Y-87642000D01*
X166637488Y-87637073D01*
X166488188Y-87607376D01*
X166324216Y-87539456D01*
X166176646Y-87440853D01*
X166051147Y-87315354D01*
X165952544Y-87167784D01*
X165884624Y-87003812D01*
X165850000Y-86829741D01*
X165850000Y-86652259D01*
X165884624Y-86478188D01*
X165952544Y-86314216D01*
X166051147Y-86166646D01*
X166176646Y-86041147D01*
X166324216Y-85942544D01*
X166488188Y-85874624D01*
X166637488Y-85844927D01*
X166662258Y-85840000D01*
X166839742Y-85840000D01*
X166864512Y-85844927D01*
G37*
G36*
X169404512Y-85844927D02*
G01*
X169553812Y-85874624D01*
X169717784Y-85942544D01*
X169865354Y-86041147D01*
X169990853Y-86166646D01*
X170089456Y-86314216D01*
X170157376Y-86478188D01*
X170192000Y-86652259D01*
X170192000Y-86829741D01*
X170157376Y-87003812D01*
X170089456Y-87167784D01*
X169990853Y-87315354D01*
X169865354Y-87440853D01*
X169717784Y-87539456D01*
X169553812Y-87607376D01*
X169404512Y-87637073D01*
X169379742Y-87642000D01*
X169202258Y-87642000D01*
X169177488Y-87637073D01*
X169028188Y-87607376D01*
X168864216Y-87539456D01*
X168716646Y-87440853D01*
X168591147Y-87315354D01*
X168492544Y-87167784D01*
X168424624Y-87003812D01*
X168390000Y-86829741D01*
X168390000Y-86652259D01*
X168424624Y-86478188D01*
X168492544Y-86314216D01*
X168591147Y-86166646D01*
X168716646Y-86041147D01*
X168864216Y-85942544D01*
X169028188Y-85874624D01*
X169177488Y-85844927D01*
X169202258Y-85840000D01*
X169379742Y-85840000D01*
X169404512Y-85844927D01*
G37*
G36*
X172732000Y-87642000D02*
G01*
X170930000Y-87642000D01*
X170930000Y-85840000D01*
X172732000Y-85840000D01*
X172732000Y-87642000D01*
G37*
G36*
X115900097Y-84751069D02*
G01*
X116003032Y-84761207D01*
X116201146Y-84821305D01*
X116201149Y-84821306D01*
X116297975Y-84873061D01*
X116383729Y-84918897D01*
X116543765Y-85050235D01*
X116675103Y-85210271D01*
X116720939Y-85296025D01*
X116772694Y-85392851D01*
X116772695Y-85392854D01*
X116832793Y-85590968D01*
X116853085Y-85797000D01*
X116832793Y-86003032D01*
X116783160Y-86166647D01*
X116772694Y-86201149D01*
X116722451Y-86295147D01*
X116675103Y-86383729D01*
X116543765Y-86543765D01*
X116383729Y-86675103D01*
X116297975Y-86720939D01*
X116201149Y-86772694D01*
X116201146Y-86772695D01*
X116003032Y-86832793D01*
X115900097Y-86842931D01*
X115848631Y-86848000D01*
X114245369Y-86848000D01*
X114193903Y-86842931D01*
X114090968Y-86832793D01*
X113892854Y-86772695D01*
X113892851Y-86772694D01*
X113796025Y-86720939D01*
X113710271Y-86675103D01*
X113550235Y-86543765D01*
X113418897Y-86383729D01*
X113371549Y-86295147D01*
X113321306Y-86201149D01*
X113310840Y-86166647D01*
X113261207Y-86003032D01*
X113240915Y-85797000D01*
X113261207Y-85590968D01*
X113321305Y-85392854D01*
X113321306Y-85392851D01*
X113373061Y-85296025D01*
X113418897Y-85210271D01*
X113550235Y-85050235D01*
X113710271Y-84918897D01*
X113796025Y-84873061D01*
X113892851Y-84821306D01*
X113892854Y-84821305D01*
X114090968Y-84761207D01*
X114193903Y-84751069D01*
X114245369Y-84746000D01*
X115848631Y-84746000D01*
X115900097Y-84751069D01*
G37*
M02*
