M48
INCH,TZ
T1C0.0157
T2C0.0315
T3C0.0394
%
G90
G05
T1
X48600Y-46150
X48850Y-44450
X49650Y-45450
X50550Y-45700
X50750Y-43000
X51000Y-41050
X51600Y-43850
X51650Y-38500
X51850Y-35400
X52050Y-48300
X53100Y-34250
X53100Y-42000
X53600Y-36800
X54000Y-39450
X54250Y-38000
X54300Y-40900
X54900Y-40900
X54950Y-39550
X55400Y-43300
X55650Y-37650
X55850Y-39600
X56000Y-40700
X56400Y-39600
X58250Y-39750
X60150Y-35450
X60750Y-41450
X61100Y-45750
X61300Y-35550
X61633Y-41833
X61865Y-45000
X62150Y-44450
X62200Y-43750
X64100Y-44700
X64350Y-43400
X65000Y-39450
X66150Y-39950
X66700Y-35300
X66900Y-39900
X66900Y-41000
X68750Y-35300
T2
X55600Y-47000
X55600Y-50000
X56600Y-47000
X56600Y-50000
X57600Y-47000
X57600Y-50000
X58600Y-47000
X58600Y-50000
X59600Y-47000
X59600Y-50000
X60600Y-47000
X60600Y-50000
X61600Y-47000
X61600Y-50000
X62600Y-47000
X62600Y-50000
X63600Y-47000
X63600Y-50000
X64600Y-47000
X64600Y-50000
X65600Y-47000
X65600Y-50000
X66600Y-47000
X66600Y-50000
X67600Y-47000
X67600Y-50000
X68600Y-47000
X68600Y-50000
T3
X60650Y-34150
X61650Y-34150
X62650Y-34150
X63650Y-34150
X64650Y-34150
X65650Y-34150
X66650Y-34150
X67650Y-34150
X54950Y-34250
X55950Y-34250
X56950Y-34250
X57950Y-34250
X65000Y-42000
X66000Y-42000
X67000Y-42000
X68000Y-42000
X60500Y-53000
X61500Y-53000
X62500Y-53000
X63500Y-53000
X64500Y-53000
X65500Y-53000
X66500Y-53000
X67500Y-53000
X47300Y-42650
X48300Y-42650
X49300Y-42650
X53800Y-53000
X54800Y-53000
X55800Y-53000
X56800Y-53000
X57800Y-53000
X58800Y-53000
X66250Y-36700
X66250Y-37700
X66250Y-38700
X67250Y-36700
X67250Y-37700
X67250Y-38700
T3
G00X45589Y-33778
M15
G01X44999Y-33778
M16
G05
G00X45589Y-37322
M15
G01X44999Y-37322
M16
G05
G00X45688Y-35294
M15
G01X45688Y-35806
M16
G05
G00X48050Y-35156
M15
G01X48050Y-35944
M16
G05
T0
M30
