G04 #@! TF.GenerationSoftware,KiCad,Pcbnew,(5.1.5)-3*
G04 #@! TF.CreationDate,2020-06-01T17:25:31+02:00*
G04 #@! TF.ProjectId,aurduino_ng,61757264-7569-46e6-9f5f-6e672e6b6963,rev?*
G04 #@! TF.SameCoordinates,Original*
G04 #@! TF.FileFunction,Legend,Top*
G04 #@! TF.FilePolarity,Positive*
%FSLAX46Y46*%
G04 Gerber Fmt 4.6, Leading zero omitted, Abs format (unit mm)*
G04 Created by KiCad (PCBNEW (5.1.5)-3) date 2020-06-01 17:25:31*
%MOMM*%
%LPD*%
G04 APERTURE LIST*
%ADD10C,0.080000*%
%ADD11C,0.450000*%
%ADD12C,0.120000*%
%ADD13C,0.150000*%
G04 APERTURE END LIST*
D10*
X118479666Y-105534666D02*
X118713000Y-106234666D01*
X118946333Y-105534666D01*
X119579666Y-106168000D02*
X119546333Y-106201333D01*
X119446333Y-106234666D01*
X119379666Y-106234666D01*
X119279666Y-106201333D01*
X119213000Y-106134666D01*
X119179666Y-106068000D01*
X119146333Y-105934666D01*
X119146333Y-105834666D01*
X119179666Y-105701333D01*
X119213000Y-105634666D01*
X119279666Y-105568000D01*
X119379666Y-105534666D01*
X119446333Y-105534666D01*
X119546333Y-105568000D01*
X119579666Y-105601333D01*
X120279666Y-106168000D02*
X120246333Y-106201333D01*
X120146333Y-106234666D01*
X120079666Y-106234666D01*
X119979666Y-106201333D01*
X119913000Y-106134666D01*
X119879666Y-106068000D01*
X119846333Y-105934666D01*
X119846333Y-105834666D01*
X119879666Y-105701333D01*
X119913000Y-105634666D01*
X119979666Y-105568000D01*
X120079666Y-105534666D01*
X120146333Y-105534666D01*
X120246333Y-105568000D01*
X120279666Y-105601333D01*
X121113000Y-105968000D02*
X121646333Y-105968000D01*
X121379666Y-106234666D02*
X121379666Y-105701333D01*
X122313000Y-105534666D02*
X121979666Y-105534666D01*
X121946333Y-105868000D01*
X121979666Y-105834666D01*
X122046333Y-105801333D01*
X122213000Y-105801333D01*
X122279666Y-105834666D01*
X122313000Y-105868000D01*
X122346333Y-105934666D01*
X122346333Y-106101333D01*
X122313000Y-106168000D01*
X122279666Y-106201333D01*
X122213000Y-106234666D01*
X122046333Y-106234666D01*
X121979666Y-106201333D01*
X121946333Y-106168000D01*
X122546333Y-105534666D02*
X122779666Y-106234666D01*
X123013000Y-105534666D01*
X123779666Y-105534666D02*
X123779666Y-106101333D01*
X123813000Y-106168000D01*
X123846333Y-106201333D01*
X123913000Y-106234666D01*
X124046333Y-106234666D01*
X124113000Y-106201333D01*
X124146333Y-106168000D01*
X124179666Y-106101333D01*
X124179666Y-105534666D01*
X124479666Y-106201333D02*
X124579666Y-106234666D01*
X124746333Y-106234666D01*
X124813000Y-106201333D01*
X124846333Y-106168000D01*
X124879666Y-106101333D01*
X124879666Y-106034666D01*
X124846333Y-105968000D01*
X124813000Y-105934666D01*
X124746333Y-105901333D01*
X124613000Y-105868000D01*
X124546333Y-105834666D01*
X124513000Y-105801333D01*
X124479666Y-105734666D01*
X124479666Y-105668000D01*
X124513000Y-105601333D01*
X124546333Y-105568000D01*
X124613000Y-105534666D01*
X124779666Y-105534666D01*
X124879666Y-105568000D01*
X125413000Y-105868000D02*
X125513000Y-105901333D01*
X125546333Y-105934666D01*
X125579666Y-106001333D01*
X125579666Y-106101333D01*
X125546333Y-106168000D01*
X125513000Y-106201333D01*
X125446333Y-106234666D01*
X125179666Y-106234666D01*
X125179666Y-105534666D01*
X125413000Y-105534666D01*
X125479666Y-105568000D01*
X125513000Y-105601333D01*
X125546333Y-105668000D01*
X125546333Y-105734666D01*
X125513000Y-105801333D01*
X125479666Y-105834666D01*
X125413000Y-105868000D01*
X125179666Y-105868000D01*
X125779666Y-105534666D02*
X126013000Y-106234666D01*
X126246333Y-105534666D01*
X126879666Y-106168000D02*
X126846333Y-106201333D01*
X126746333Y-106234666D01*
X126679666Y-106234666D01*
X126579666Y-106201333D01*
X126513000Y-106134666D01*
X126479666Y-106068000D01*
X126446333Y-105934666D01*
X126446333Y-105834666D01*
X126479666Y-105701333D01*
X126513000Y-105634666D01*
X126579666Y-105568000D01*
X126679666Y-105534666D01*
X126746333Y-105534666D01*
X126846333Y-105568000D01*
X126879666Y-105601333D01*
X127579666Y-106168000D02*
X127546333Y-106201333D01*
X127446333Y-106234666D01*
X127379666Y-106234666D01*
X127279666Y-106201333D01*
X127213000Y-106134666D01*
X127179666Y-106068000D01*
X127146333Y-105934666D01*
X127146333Y-105834666D01*
X127179666Y-105701333D01*
X127213000Y-105634666D01*
X127279666Y-105568000D01*
X127379666Y-105534666D01*
X127446333Y-105534666D01*
X127546333Y-105568000D01*
X127579666Y-105601333D01*
X165307666Y-109409666D02*
X165074333Y-109076333D01*
X164907666Y-109409666D02*
X164907666Y-108709666D01*
X165174333Y-108709666D01*
X165241000Y-108743000D01*
X165274333Y-108776333D01*
X165307666Y-108843000D01*
X165307666Y-108943000D01*
X165274333Y-109009666D01*
X165241000Y-109043000D01*
X165174333Y-109076333D01*
X164907666Y-109076333D01*
X165974333Y-109409666D02*
X165574333Y-109409666D01*
X165774333Y-109409666D02*
X165774333Y-108709666D01*
X165707666Y-108809666D01*
X165641000Y-108876333D01*
X165574333Y-108909666D01*
X166807666Y-109409666D02*
X166807666Y-108709666D01*
X166974333Y-108709666D01*
X167074333Y-108743000D01*
X167141000Y-108809666D01*
X167174333Y-108876333D01*
X167207666Y-109009666D01*
X167207666Y-109109666D01*
X167174333Y-109243000D01*
X167141000Y-109309666D01*
X167074333Y-109376333D01*
X166974333Y-109409666D01*
X166807666Y-109409666D01*
X167907666Y-109343000D02*
X167874333Y-109376333D01*
X167774333Y-109409666D01*
X167707666Y-109409666D01*
X167607666Y-109376333D01*
X167541000Y-109309666D01*
X167507666Y-109243000D01*
X167474333Y-109109666D01*
X167474333Y-109009666D01*
X167507666Y-108876333D01*
X167541000Y-108809666D01*
X167607666Y-108743000D01*
X167707666Y-108709666D01*
X167774333Y-108709666D01*
X167874333Y-108743000D01*
X167907666Y-108776333D01*
X168207666Y-109409666D02*
X168207666Y-108709666D01*
X168374333Y-108709666D01*
X168474333Y-108743000D01*
X168541000Y-108809666D01*
X168574333Y-108876333D01*
X168607666Y-109009666D01*
X168607666Y-109109666D01*
X168574333Y-109243000D01*
X168541000Y-109309666D01*
X168474333Y-109376333D01*
X168374333Y-109409666D01*
X168207666Y-109409666D01*
X169441000Y-109409666D02*
X169441000Y-108709666D01*
X169607666Y-108709666D01*
X169707666Y-108743000D01*
X169774333Y-108809666D01*
X169807666Y-108876333D01*
X169841000Y-109009666D01*
X169841000Y-109109666D01*
X169807666Y-109243000D01*
X169774333Y-109309666D01*
X169707666Y-109376333D01*
X169607666Y-109409666D01*
X169441000Y-109409666D01*
X170541000Y-109343000D02*
X170507666Y-109376333D01*
X170407666Y-109409666D01*
X170341000Y-109409666D01*
X170241000Y-109376333D01*
X170174333Y-109309666D01*
X170141000Y-109243000D01*
X170107666Y-109109666D01*
X170107666Y-109009666D01*
X170141000Y-108876333D01*
X170174333Y-108809666D01*
X170241000Y-108743000D01*
X170341000Y-108709666D01*
X170407666Y-108709666D01*
X170507666Y-108743000D01*
X170541000Y-108776333D01*
X171241000Y-109409666D02*
X171007666Y-109076333D01*
X170841000Y-109409666D02*
X170841000Y-108709666D01*
X171107666Y-108709666D01*
X171174333Y-108743000D01*
X171207666Y-108776333D01*
X171241000Y-108843000D01*
X171241000Y-108943000D01*
X171207666Y-109009666D01*
X171174333Y-109043000D01*
X171107666Y-109076333D01*
X170841000Y-109076333D01*
X172074333Y-109409666D02*
X172074333Y-108709666D01*
X172241000Y-108709666D01*
X172341000Y-108743000D01*
X172407666Y-108809666D01*
X172441000Y-108876333D01*
X172474333Y-109009666D01*
X172474333Y-109109666D01*
X172441000Y-109243000D01*
X172407666Y-109309666D01*
X172341000Y-109376333D01*
X172241000Y-109409666D01*
X172074333Y-109409666D01*
X172674333Y-108709666D02*
X173074333Y-108709666D01*
X172874333Y-109409666D02*
X172874333Y-108709666D01*
X173707666Y-109409666D02*
X173474333Y-109076333D01*
X173307666Y-109409666D02*
X173307666Y-108709666D01*
X173574333Y-108709666D01*
X173641000Y-108743000D01*
X173674333Y-108776333D01*
X173707666Y-108843000D01*
X173707666Y-108943000D01*
X173674333Y-109009666D01*
X173641000Y-109043000D01*
X173574333Y-109076333D01*
X173307666Y-109076333D01*
X165924666Y-99224666D02*
X165224666Y-99224666D01*
X165224666Y-98958000D01*
X165258000Y-98891333D01*
X165291333Y-98858000D01*
X165358000Y-98824666D01*
X165458000Y-98824666D01*
X165524666Y-98858000D01*
X165558000Y-98891333D01*
X165591333Y-98958000D01*
X165591333Y-99224666D01*
X165858000Y-98124666D02*
X165891333Y-98158000D01*
X165924666Y-98258000D01*
X165924666Y-98324666D01*
X165891333Y-98424666D01*
X165824666Y-98491333D01*
X165758000Y-98524666D01*
X165624666Y-98558000D01*
X165524666Y-98558000D01*
X165391333Y-98524666D01*
X165324666Y-98491333D01*
X165258000Y-98424666D01*
X165224666Y-98324666D01*
X165224666Y-98258000D01*
X165258000Y-98158000D01*
X165291333Y-98124666D01*
X165224666Y-97524666D02*
X165224666Y-97658000D01*
X165258000Y-97724666D01*
X165291333Y-97758000D01*
X165391333Y-97824666D01*
X165524666Y-97858000D01*
X165791333Y-97858000D01*
X165858000Y-97824666D01*
X165891333Y-97791333D01*
X165924666Y-97724666D01*
X165924666Y-97591333D01*
X165891333Y-97524666D01*
X165858000Y-97491333D01*
X165791333Y-97458000D01*
X165624666Y-97458000D01*
X165558000Y-97491333D01*
X165524666Y-97524666D01*
X165491333Y-97591333D01*
X165491333Y-97724666D01*
X165524666Y-97791333D01*
X165558000Y-97824666D01*
X165624666Y-97858000D01*
X165924666Y-96624666D02*
X165224666Y-96624666D01*
X165224666Y-96358000D01*
X165258000Y-96291333D01*
X165291333Y-96258000D01*
X165358000Y-96224666D01*
X165458000Y-96224666D01*
X165524666Y-96258000D01*
X165558000Y-96291333D01*
X165591333Y-96358000D01*
X165591333Y-96624666D01*
X165558000Y-95691333D02*
X165591333Y-95591333D01*
X165624666Y-95558000D01*
X165691333Y-95524666D01*
X165791333Y-95524666D01*
X165858000Y-95558000D01*
X165891333Y-95591333D01*
X165924666Y-95658000D01*
X165924666Y-95924666D01*
X165224666Y-95924666D01*
X165224666Y-95691333D01*
X165258000Y-95624666D01*
X165291333Y-95591333D01*
X165358000Y-95558000D01*
X165424666Y-95558000D01*
X165491333Y-95591333D01*
X165524666Y-95624666D01*
X165558000Y-95691333D01*
X165558000Y-95924666D01*
X165224666Y-94891333D02*
X165224666Y-95224666D01*
X165558000Y-95258000D01*
X165524666Y-95224666D01*
X165491333Y-95158000D01*
X165491333Y-94991333D01*
X165524666Y-94924666D01*
X165558000Y-94891333D01*
X165624666Y-94858000D01*
X165791333Y-94858000D01*
X165858000Y-94891333D01*
X165891333Y-94924666D01*
X165924666Y-94991333D01*
X165924666Y-95158000D01*
X165891333Y-95224666D01*
X165858000Y-95258000D01*
X165924666Y-94024666D02*
X165224666Y-94024666D01*
X165224666Y-93758000D01*
X165258000Y-93691333D01*
X165291333Y-93658000D01*
X165358000Y-93624666D01*
X165458000Y-93624666D01*
X165524666Y-93658000D01*
X165558000Y-93691333D01*
X165591333Y-93758000D01*
X165591333Y-94024666D01*
X165558000Y-93091333D02*
X165591333Y-92991333D01*
X165624666Y-92958000D01*
X165691333Y-92924666D01*
X165791333Y-92924666D01*
X165858000Y-92958000D01*
X165891333Y-92991333D01*
X165924666Y-93058000D01*
X165924666Y-93324666D01*
X165224666Y-93324666D01*
X165224666Y-93091333D01*
X165258000Y-93024666D01*
X165291333Y-92991333D01*
X165358000Y-92958000D01*
X165424666Y-92958000D01*
X165491333Y-92991333D01*
X165524666Y-93024666D01*
X165558000Y-93091333D01*
X165558000Y-93324666D01*
X165458000Y-92324666D02*
X165924666Y-92324666D01*
X165191333Y-92491333D02*
X165691333Y-92658000D01*
X165691333Y-92224666D01*
X173559000Y-92097666D02*
X173559000Y-92631000D01*
X173292333Y-92364333D02*
X173825666Y-92364333D01*
X173992333Y-93297666D02*
X173992333Y-92964333D01*
X173659000Y-92931000D01*
X173692333Y-92964333D01*
X173725666Y-93031000D01*
X173725666Y-93197666D01*
X173692333Y-93264333D01*
X173659000Y-93297666D01*
X173592333Y-93331000D01*
X173425666Y-93331000D01*
X173359000Y-93297666D01*
X173325666Y-93264333D01*
X173292333Y-93197666D01*
X173292333Y-93031000D01*
X173325666Y-92964333D01*
X173359000Y-92931000D01*
X173992333Y-93531000D02*
X173292333Y-93764333D01*
X173992333Y-93997666D01*
X173292333Y-94764333D02*
X173992333Y-94764333D01*
X173992333Y-95031000D01*
X173959000Y-95097666D01*
X173925666Y-95131000D01*
X173859000Y-95164333D01*
X173759000Y-95164333D01*
X173692333Y-95131000D01*
X173659000Y-95097666D01*
X173625666Y-95031000D01*
X173625666Y-94764333D01*
X173659000Y-95697666D02*
X173625666Y-95797666D01*
X173592333Y-95831000D01*
X173525666Y-95864333D01*
X173425666Y-95864333D01*
X173359000Y-95831000D01*
X173325666Y-95797666D01*
X173292333Y-95731000D01*
X173292333Y-95464333D01*
X173992333Y-95464333D01*
X173992333Y-95697666D01*
X173959000Y-95764333D01*
X173925666Y-95797666D01*
X173859000Y-95831000D01*
X173792333Y-95831000D01*
X173725666Y-95797666D01*
X173692333Y-95764333D01*
X173659000Y-95697666D01*
X173659000Y-95464333D01*
X173759000Y-96464333D02*
X173292333Y-96464333D01*
X174025666Y-96297666D02*
X173525666Y-96131000D01*
X173525666Y-96564333D01*
X173959000Y-97731000D02*
X173992333Y-97664333D01*
X173992333Y-97564333D01*
X173959000Y-97464333D01*
X173892333Y-97397666D01*
X173825666Y-97364333D01*
X173692333Y-97331000D01*
X173592333Y-97331000D01*
X173459000Y-97364333D01*
X173392333Y-97397666D01*
X173325666Y-97464333D01*
X173292333Y-97564333D01*
X173292333Y-97631000D01*
X173325666Y-97731000D01*
X173359000Y-97764333D01*
X173592333Y-97764333D01*
X173592333Y-97631000D01*
X173292333Y-98064333D02*
X173992333Y-98064333D01*
X173292333Y-98464333D01*
X173992333Y-98464333D01*
X173292333Y-98797666D02*
X173992333Y-98797666D01*
X173992333Y-98964333D01*
X173959000Y-99064333D01*
X173892333Y-99131000D01*
X173825666Y-99164333D01*
X173692333Y-99197666D01*
X173592333Y-99197666D01*
X173459000Y-99164333D01*
X173392333Y-99131000D01*
X173325666Y-99064333D01*
X173292333Y-98964333D01*
X173292333Y-98797666D01*
X138362333Y-84071666D02*
X138595666Y-84771666D01*
X138829000Y-84071666D01*
X139062333Y-84771666D02*
X139062333Y-84071666D01*
X139395666Y-84771666D02*
X139395666Y-84071666D01*
X139795666Y-84771666D01*
X139795666Y-84071666D01*
X141029000Y-84105000D02*
X140962333Y-84071666D01*
X140862333Y-84071666D01*
X140762333Y-84105000D01*
X140695666Y-84171666D01*
X140662333Y-84238333D01*
X140629000Y-84371666D01*
X140629000Y-84471666D01*
X140662333Y-84605000D01*
X140695666Y-84671666D01*
X140762333Y-84738333D01*
X140862333Y-84771666D01*
X140929000Y-84771666D01*
X141029000Y-84738333D01*
X141062333Y-84705000D01*
X141062333Y-84471666D01*
X140929000Y-84471666D01*
X141362333Y-84771666D02*
X141362333Y-84071666D01*
X141762333Y-84771666D01*
X141762333Y-84071666D01*
X142095666Y-84771666D02*
X142095666Y-84071666D01*
X142262333Y-84071666D01*
X142362333Y-84105000D01*
X142429000Y-84171666D01*
X142462333Y-84238333D01*
X142495666Y-84371666D01*
X142495666Y-84471666D01*
X142462333Y-84605000D01*
X142429000Y-84671666D01*
X142362333Y-84738333D01*
X142262333Y-84771666D01*
X142095666Y-84771666D01*
X143695666Y-84105000D02*
X143629000Y-84071666D01*
X143529000Y-84071666D01*
X143429000Y-84105000D01*
X143362333Y-84171666D01*
X143329000Y-84238333D01*
X143295666Y-84371666D01*
X143295666Y-84471666D01*
X143329000Y-84605000D01*
X143362333Y-84671666D01*
X143429000Y-84738333D01*
X143529000Y-84771666D01*
X143595666Y-84771666D01*
X143695666Y-84738333D01*
X143729000Y-84705000D01*
X143729000Y-84471666D01*
X143595666Y-84471666D01*
X144029000Y-84771666D02*
X144029000Y-84071666D01*
X144429000Y-84771666D01*
X144429000Y-84071666D01*
X144762333Y-84771666D02*
X144762333Y-84071666D01*
X144929000Y-84071666D01*
X145029000Y-84105000D01*
X145095666Y-84171666D01*
X145129000Y-84238333D01*
X145162333Y-84371666D01*
X145162333Y-84471666D01*
X145129000Y-84605000D01*
X145095666Y-84671666D01*
X145029000Y-84738333D01*
X144929000Y-84771666D01*
X144762333Y-84771666D01*
X145995666Y-84505000D02*
X146529000Y-84505000D01*
X146262333Y-84771666D02*
X146262333Y-84238333D01*
X147195666Y-84071666D02*
X146862333Y-84071666D01*
X146829000Y-84405000D01*
X146862333Y-84371666D01*
X146929000Y-84338333D01*
X147095666Y-84338333D01*
X147162333Y-84371666D01*
X147195666Y-84405000D01*
X147229000Y-84471666D01*
X147229000Y-84638333D01*
X147195666Y-84705000D01*
X147162333Y-84738333D01*
X147095666Y-84771666D01*
X146929000Y-84771666D01*
X146862333Y-84738333D01*
X146829000Y-84705000D01*
X147429000Y-84071666D02*
X147662333Y-84771666D01*
X147895666Y-84071666D01*
X152420333Y-84317666D02*
X152753666Y-84317666D01*
X152353666Y-84517666D02*
X152587000Y-83817666D01*
X152820333Y-84517666D01*
X153453666Y-84517666D02*
X153220333Y-84184333D01*
X153053666Y-84517666D02*
X153053666Y-83817666D01*
X153320333Y-83817666D01*
X153387000Y-83851000D01*
X153420333Y-83884333D01*
X153453666Y-83951000D01*
X153453666Y-84051000D01*
X153420333Y-84117666D01*
X153387000Y-84151000D01*
X153320333Y-84184333D01*
X153053666Y-84184333D01*
X153753666Y-84151000D02*
X153987000Y-84151000D01*
X154087000Y-84517666D02*
X153753666Y-84517666D01*
X153753666Y-83817666D01*
X154087000Y-83817666D01*
X154620333Y-84151000D02*
X154387000Y-84151000D01*
X154387000Y-84517666D02*
X154387000Y-83817666D01*
X154720333Y-83817666D01*
X155887000Y-83851000D02*
X155820333Y-83817666D01*
X155720333Y-83817666D01*
X155620333Y-83851000D01*
X155553666Y-83917666D01*
X155520333Y-83984333D01*
X155487000Y-84117666D01*
X155487000Y-84217666D01*
X155520333Y-84351000D01*
X155553666Y-84417666D01*
X155620333Y-84484333D01*
X155720333Y-84517666D01*
X155787000Y-84517666D01*
X155887000Y-84484333D01*
X155920333Y-84451000D01*
X155920333Y-84217666D01*
X155787000Y-84217666D01*
X156220333Y-84517666D02*
X156220333Y-83817666D01*
X156620333Y-84517666D01*
X156620333Y-83817666D01*
X156953666Y-84517666D02*
X156953666Y-83817666D01*
X157120333Y-83817666D01*
X157220333Y-83851000D01*
X157287000Y-83917666D01*
X157320333Y-83984333D01*
X157353666Y-84117666D01*
X157353666Y-84217666D01*
X157320333Y-84351000D01*
X157287000Y-84417666D01*
X157220333Y-84484333D01*
X157120333Y-84517666D01*
X156953666Y-84517666D01*
X158187000Y-84517666D02*
X158187000Y-83817666D01*
X158453666Y-83817666D01*
X158520333Y-83851000D01*
X158553666Y-83884333D01*
X158587000Y-83951000D01*
X158587000Y-84051000D01*
X158553666Y-84117666D01*
X158520333Y-84151000D01*
X158453666Y-84184333D01*
X158187000Y-84184333D01*
X159120333Y-84151000D02*
X159220333Y-84184333D01*
X159253666Y-84217666D01*
X159287000Y-84284333D01*
X159287000Y-84384333D01*
X159253666Y-84451000D01*
X159220333Y-84484333D01*
X159153666Y-84517666D01*
X158887000Y-84517666D01*
X158887000Y-83817666D01*
X159120333Y-83817666D01*
X159187000Y-83851000D01*
X159220333Y-83884333D01*
X159253666Y-83951000D01*
X159253666Y-84017666D01*
X159220333Y-84084333D01*
X159187000Y-84117666D01*
X159120333Y-84151000D01*
X158887000Y-84151000D01*
X159920333Y-83817666D02*
X159587000Y-83817666D01*
X159553666Y-84151000D01*
X159587000Y-84117666D01*
X159653666Y-84084333D01*
X159820333Y-84084333D01*
X159887000Y-84117666D01*
X159920333Y-84151000D01*
X159953666Y-84217666D01*
X159953666Y-84384333D01*
X159920333Y-84451000D01*
X159887000Y-84484333D01*
X159820333Y-84517666D01*
X159653666Y-84517666D01*
X159587000Y-84484333D01*
X159553666Y-84451000D01*
X160787000Y-84517666D02*
X160787000Y-83817666D01*
X161053666Y-83817666D01*
X161120333Y-83851000D01*
X161153666Y-83884333D01*
X161187000Y-83951000D01*
X161187000Y-84051000D01*
X161153666Y-84117666D01*
X161120333Y-84151000D01*
X161053666Y-84184333D01*
X160787000Y-84184333D01*
X161720333Y-84151000D02*
X161820333Y-84184333D01*
X161853666Y-84217666D01*
X161887000Y-84284333D01*
X161887000Y-84384333D01*
X161853666Y-84451000D01*
X161820333Y-84484333D01*
X161753666Y-84517666D01*
X161487000Y-84517666D01*
X161487000Y-83817666D01*
X161720333Y-83817666D01*
X161787000Y-83851000D01*
X161820333Y-83884333D01*
X161853666Y-83951000D01*
X161853666Y-84017666D01*
X161820333Y-84084333D01*
X161787000Y-84117666D01*
X161720333Y-84151000D01*
X161487000Y-84151000D01*
X162487000Y-84051000D02*
X162487000Y-84517666D01*
X162320333Y-83784333D02*
X162153666Y-84284333D01*
X162587000Y-84284333D01*
X163387000Y-84517666D02*
X163387000Y-83817666D01*
X163653666Y-83817666D01*
X163720333Y-83851000D01*
X163753666Y-83884333D01*
X163787000Y-83951000D01*
X163787000Y-84051000D01*
X163753666Y-84117666D01*
X163720333Y-84151000D01*
X163653666Y-84184333D01*
X163387000Y-84184333D01*
X164320333Y-84151000D02*
X164420333Y-84184333D01*
X164453666Y-84217666D01*
X164487000Y-84284333D01*
X164487000Y-84384333D01*
X164453666Y-84451000D01*
X164420333Y-84484333D01*
X164353666Y-84517666D01*
X164087000Y-84517666D01*
X164087000Y-83817666D01*
X164320333Y-83817666D01*
X164387000Y-83851000D01*
X164420333Y-83884333D01*
X164453666Y-83951000D01*
X164453666Y-84017666D01*
X164420333Y-84084333D01*
X164387000Y-84117666D01*
X164320333Y-84151000D01*
X164087000Y-84151000D01*
X164720333Y-83817666D02*
X165153666Y-83817666D01*
X164920333Y-84084333D01*
X165020333Y-84084333D01*
X165087000Y-84117666D01*
X165120333Y-84151000D01*
X165153666Y-84217666D01*
X165153666Y-84384333D01*
X165120333Y-84451000D01*
X165087000Y-84484333D01*
X165020333Y-84517666D01*
X164820333Y-84517666D01*
X164753666Y-84484333D01*
X164720333Y-84451000D01*
X165987000Y-84517666D02*
X165987000Y-83817666D01*
X166253666Y-83817666D01*
X166320333Y-83851000D01*
X166353666Y-83884333D01*
X166387000Y-83951000D01*
X166387000Y-84051000D01*
X166353666Y-84117666D01*
X166320333Y-84151000D01*
X166253666Y-84184333D01*
X165987000Y-84184333D01*
X166920333Y-84151000D02*
X167020333Y-84184333D01*
X167053666Y-84217666D01*
X167087000Y-84284333D01*
X167087000Y-84384333D01*
X167053666Y-84451000D01*
X167020333Y-84484333D01*
X166953666Y-84517666D01*
X166687000Y-84517666D01*
X166687000Y-83817666D01*
X166920333Y-83817666D01*
X166987000Y-83851000D01*
X167020333Y-83884333D01*
X167053666Y-83951000D01*
X167053666Y-84017666D01*
X167020333Y-84084333D01*
X166987000Y-84117666D01*
X166920333Y-84151000D01*
X166687000Y-84151000D01*
X167353666Y-83884333D02*
X167387000Y-83851000D01*
X167453666Y-83817666D01*
X167620333Y-83817666D01*
X167687000Y-83851000D01*
X167720333Y-83884333D01*
X167753666Y-83951000D01*
X167753666Y-84017666D01*
X167720333Y-84117666D01*
X167320333Y-84517666D01*
X167753666Y-84517666D01*
X168587000Y-84517666D02*
X168587000Y-83817666D01*
X168853666Y-83817666D01*
X168920333Y-83851000D01*
X168953666Y-83884333D01*
X168987000Y-83951000D01*
X168987000Y-84051000D01*
X168953666Y-84117666D01*
X168920333Y-84151000D01*
X168853666Y-84184333D01*
X168587000Y-84184333D01*
X169520333Y-84151000D02*
X169620333Y-84184333D01*
X169653666Y-84217666D01*
X169687000Y-84284333D01*
X169687000Y-84384333D01*
X169653666Y-84451000D01*
X169620333Y-84484333D01*
X169553666Y-84517666D01*
X169287000Y-84517666D01*
X169287000Y-83817666D01*
X169520333Y-83817666D01*
X169587000Y-83851000D01*
X169620333Y-83884333D01*
X169653666Y-83951000D01*
X169653666Y-84017666D01*
X169620333Y-84084333D01*
X169587000Y-84117666D01*
X169520333Y-84151000D01*
X169287000Y-84151000D01*
X170353666Y-84517666D02*
X169953666Y-84517666D01*
X170153666Y-84517666D02*
X170153666Y-83817666D01*
X170087000Y-83917666D01*
X170020333Y-83984333D01*
X169953666Y-84017666D01*
X171187000Y-84517666D02*
X171187000Y-83817666D01*
X171453666Y-83817666D01*
X171520333Y-83851000D01*
X171553666Y-83884333D01*
X171587000Y-83951000D01*
X171587000Y-84051000D01*
X171553666Y-84117666D01*
X171520333Y-84151000D01*
X171453666Y-84184333D01*
X171187000Y-84184333D01*
X172120333Y-84151000D02*
X172220333Y-84184333D01*
X172253666Y-84217666D01*
X172287000Y-84284333D01*
X172287000Y-84384333D01*
X172253666Y-84451000D01*
X172220333Y-84484333D01*
X172153666Y-84517666D01*
X171887000Y-84517666D01*
X171887000Y-83817666D01*
X172120333Y-83817666D01*
X172187000Y-83851000D01*
X172220333Y-83884333D01*
X172253666Y-83951000D01*
X172253666Y-84017666D01*
X172220333Y-84084333D01*
X172187000Y-84117666D01*
X172120333Y-84151000D01*
X171887000Y-84151000D01*
X172720333Y-83817666D02*
X172787000Y-83817666D01*
X172853666Y-83851000D01*
X172887000Y-83884333D01*
X172920333Y-83951000D01*
X172953666Y-84084333D01*
X172953666Y-84251000D01*
X172920333Y-84384333D01*
X172887000Y-84451000D01*
X172853666Y-84484333D01*
X172787000Y-84517666D01*
X172720333Y-84517666D01*
X172653666Y-84484333D01*
X172620333Y-84451000D01*
X172587000Y-84384333D01*
X172553666Y-84251000D01*
X172553666Y-84084333D01*
X172587000Y-83951000D01*
X172620333Y-83884333D01*
X172653666Y-83851000D01*
X172720333Y-83817666D01*
X135762333Y-137603666D02*
X135762333Y-136903666D01*
X136029000Y-136903666D01*
X136095666Y-136937000D01*
X136129000Y-136970333D01*
X136162333Y-137037000D01*
X136162333Y-137137000D01*
X136129000Y-137203666D01*
X136095666Y-137237000D01*
X136029000Y-137270333D01*
X135762333Y-137270333D01*
X136862333Y-137537000D02*
X136829000Y-137570333D01*
X136729000Y-137603666D01*
X136662333Y-137603666D01*
X136562333Y-137570333D01*
X136495666Y-137503666D01*
X136462333Y-137437000D01*
X136429000Y-137303666D01*
X136429000Y-137203666D01*
X136462333Y-137070333D01*
X136495666Y-137003666D01*
X136562333Y-136937000D01*
X136662333Y-136903666D01*
X136729000Y-136903666D01*
X136829000Y-136937000D01*
X136862333Y-136970333D01*
X137295666Y-136903666D02*
X137362333Y-136903666D01*
X137429000Y-136937000D01*
X137462333Y-136970333D01*
X137495666Y-137037000D01*
X137529000Y-137170333D01*
X137529000Y-137337000D01*
X137495666Y-137470333D01*
X137462333Y-137537000D01*
X137429000Y-137570333D01*
X137362333Y-137603666D01*
X137295666Y-137603666D01*
X137229000Y-137570333D01*
X137195666Y-137537000D01*
X137162333Y-137470333D01*
X137129000Y-137337000D01*
X137129000Y-137170333D01*
X137162333Y-137037000D01*
X137195666Y-136970333D01*
X137229000Y-136937000D01*
X137295666Y-136903666D01*
X138362333Y-137603666D02*
X138362333Y-136903666D01*
X138629000Y-136903666D01*
X138695666Y-136937000D01*
X138729000Y-136970333D01*
X138762333Y-137037000D01*
X138762333Y-137137000D01*
X138729000Y-137203666D01*
X138695666Y-137237000D01*
X138629000Y-137270333D01*
X138362333Y-137270333D01*
X139462333Y-137537000D02*
X139429000Y-137570333D01*
X139329000Y-137603666D01*
X139262333Y-137603666D01*
X139162333Y-137570333D01*
X139095666Y-137503666D01*
X139062333Y-137437000D01*
X139029000Y-137303666D01*
X139029000Y-137203666D01*
X139062333Y-137070333D01*
X139095666Y-137003666D01*
X139162333Y-136937000D01*
X139262333Y-136903666D01*
X139329000Y-136903666D01*
X139429000Y-136937000D01*
X139462333Y-136970333D01*
X140129000Y-137603666D02*
X139729000Y-137603666D01*
X139929000Y-137603666D02*
X139929000Y-136903666D01*
X139862333Y-137003666D01*
X139795666Y-137070333D01*
X139729000Y-137103666D01*
X140962333Y-137603666D02*
X140962333Y-136903666D01*
X141229000Y-136903666D01*
X141295666Y-136937000D01*
X141329000Y-136970333D01*
X141362333Y-137037000D01*
X141362333Y-137137000D01*
X141329000Y-137203666D01*
X141295666Y-137237000D01*
X141229000Y-137270333D01*
X140962333Y-137270333D01*
X142062333Y-137537000D02*
X142029000Y-137570333D01*
X141929000Y-137603666D01*
X141862333Y-137603666D01*
X141762333Y-137570333D01*
X141695666Y-137503666D01*
X141662333Y-137437000D01*
X141629000Y-137303666D01*
X141629000Y-137203666D01*
X141662333Y-137070333D01*
X141695666Y-137003666D01*
X141762333Y-136937000D01*
X141862333Y-136903666D01*
X141929000Y-136903666D01*
X142029000Y-136937000D01*
X142062333Y-136970333D01*
X142329000Y-136970333D02*
X142362333Y-136937000D01*
X142429000Y-136903666D01*
X142595666Y-136903666D01*
X142662333Y-136937000D01*
X142695666Y-136970333D01*
X142729000Y-137037000D01*
X142729000Y-137103666D01*
X142695666Y-137203666D01*
X142295666Y-137603666D01*
X142729000Y-137603666D01*
X143562333Y-137603666D02*
X143562333Y-136903666D01*
X143829000Y-136903666D01*
X143895666Y-136937000D01*
X143929000Y-136970333D01*
X143962333Y-137037000D01*
X143962333Y-137137000D01*
X143929000Y-137203666D01*
X143895666Y-137237000D01*
X143829000Y-137270333D01*
X143562333Y-137270333D01*
X144662333Y-137537000D02*
X144629000Y-137570333D01*
X144529000Y-137603666D01*
X144462333Y-137603666D01*
X144362333Y-137570333D01*
X144295666Y-137503666D01*
X144262333Y-137437000D01*
X144229000Y-137303666D01*
X144229000Y-137203666D01*
X144262333Y-137070333D01*
X144295666Y-137003666D01*
X144362333Y-136937000D01*
X144462333Y-136903666D01*
X144529000Y-136903666D01*
X144629000Y-136937000D01*
X144662333Y-136970333D01*
X144895666Y-136903666D02*
X145329000Y-136903666D01*
X145095666Y-137170333D01*
X145195666Y-137170333D01*
X145262333Y-137203666D01*
X145295666Y-137237000D01*
X145329000Y-137303666D01*
X145329000Y-137470333D01*
X145295666Y-137537000D01*
X145262333Y-137570333D01*
X145195666Y-137603666D01*
X144995666Y-137603666D01*
X144929000Y-137570333D01*
X144895666Y-137537000D01*
X146162333Y-137603666D02*
X146162333Y-136903666D01*
X146429000Y-136903666D01*
X146495666Y-136937000D01*
X146529000Y-136970333D01*
X146562333Y-137037000D01*
X146562333Y-137137000D01*
X146529000Y-137203666D01*
X146495666Y-137237000D01*
X146429000Y-137270333D01*
X146162333Y-137270333D01*
X147262333Y-137537000D02*
X147229000Y-137570333D01*
X147129000Y-137603666D01*
X147062333Y-137603666D01*
X146962333Y-137570333D01*
X146895666Y-137503666D01*
X146862333Y-137437000D01*
X146829000Y-137303666D01*
X146829000Y-137203666D01*
X146862333Y-137070333D01*
X146895666Y-137003666D01*
X146962333Y-136937000D01*
X147062333Y-136903666D01*
X147129000Y-136903666D01*
X147229000Y-136937000D01*
X147262333Y-136970333D01*
X147862333Y-137137000D02*
X147862333Y-137603666D01*
X147695666Y-136870333D02*
X147529000Y-137370333D01*
X147962333Y-137370333D01*
X148762333Y-137603666D02*
X148762333Y-136903666D01*
X149029000Y-136903666D01*
X149095666Y-136937000D01*
X149129000Y-136970333D01*
X149162333Y-137037000D01*
X149162333Y-137137000D01*
X149129000Y-137203666D01*
X149095666Y-137237000D01*
X149029000Y-137270333D01*
X148762333Y-137270333D01*
X149862333Y-137537000D02*
X149829000Y-137570333D01*
X149729000Y-137603666D01*
X149662333Y-137603666D01*
X149562333Y-137570333D01*
X149495666Y-137503666D01*
X149462333Y-137437000D01*
X149429000Y-137303666D01*
X149429000Y-137203666D01*
X149462333Y-137070333D01*
X149495666Y-137003666D01*
X149562333Y-136937000D01*
X149662333Y-136903666D01*
X149729000Y-136903666D01*
X149829000Y-136937000D01*
X149862333Y-136970333D01*
X150495666Y-136903666D02*
X150162333Y-136903666D01*
X150129000Y-137237000D01*
X150162333Y-137203666D01*
X150229000Y-137170333D01*
X150395666Y-137170333D01*
X150462333Y-137203666D01*
X150495666Y-137237000D01*
X150529000Y-137303666D01*
X150529000Y-137470333D01*
X150495666Y-137537000D01*
X150462333Y-137570333D01*
X150395666Y-137603666D01*
X150229000Y-137603666D01*
X150162333Y-137570333D01*
X150129000Y-137537000D01*
X152720333Y-137603666D02*
X152720333Y-136903666D01*
X152987000Y-136903666D01*
X153053666Y-136937000D01*
X153087000Y-136970333D01*
X153120333Y-137037000D01*
X153120333Y-137137000D01*
X153087000Y-137203666D01*
X153053666Y-137237000D01*
X152987000Y-137270333D01*
X152720333Y-137270333D01*
X153420333Y-137603666D02*
X153420333Y-136903666D01*
X153587000Y-136903666D01*
X153687000Y-136937000D01*
X153753666Y-137003666D01*
X153787000Y-137070333D01*
X153820333Y-137203666D01*
X153820333Y-137303666D01*
X153787000Y-137437000D01*
X153753666Y-137503666D01*
X153687000Y-137570333D01*
X153587000Y-137603666D01*
X153420333Y-137603666D01*
X154253666Y-136903666D02*
X154320333Y-136903666D01*
X154387000Y-136937000D01*
X154420333Y-136970333D01*
X154453666Y-137037000D01*
X154487000Y-137170333D01*
X154487000Y-137337000D01*
X154453666Y-137470333D01*
X154420333Y-137537000D01*
X154387000Y-137570333D01*
X154320333Y-137603666D01*
X154253666Y-137603666D01*
X154187000Y-137570333D01*
X154153666Y-137537000D01*
X154120333Y-137470333D01*
X154087000Y-137337000D01*
X154087000Y-137170333D01*
X154120333Y-137037000D01*
X154153666Y-136970333D01*
X154187000Y-136937000D01*
X154253666Y-136903666D01*
X155320333Y-137603666D02*
X155320333Y-136903666D01*
X155587000Y-136903666D01*
X155653666Y-136937000D01*
X155687000Y-136970333D01*
X155720333Y-137037000D01*
X155720333Y-137137000D01*
X155687000Y-137203666D01*
X155653666Y-137237000D01*
X155587000Y-137270333D01*
X155320333Y-137270333D01*
X156020333Y-137603666D02*
X156020333Y-136903666D01*
X156187000Y-136903666D01*
X156287000Y-136937000D01*
X156353666Y-137003666D01*
X156387000Y-137070333D01*
X156420333Y-137203666D01*
X156420333Y-137303666D01*
X156387000Y-137437000D01*
X156353666Y-137503666D01*
X156287000Y-137570333D01*
X156187000Y-137603666D01*
X156020333Y-137603666D01*
X157087000Y-137603666D02*
X156687000Y-137603666D01*
X156887000Y-137603666D02*
X156887000Y-136903666D01*
X156820333Y-137003666D01*
X156753666Y-137070333D01*
X156687000Y-137103666D01*
X157920333Y-137603666D02*
X157920333Y-136903666D01*
X158187000Y-136903666D01*
X158253666Y-136937000D01*
X158287000Y-136970333D01*
X158320333Y-137037000D01*
X158320333Y-137137000D01*
X158287000Y-137203666D01*
X158253666Y-137237000D01*
X158187000Y-137270333D01*
X157920333Y-137270333D01*
X158620333Y-137603666D02*
X158620333Y-136903666D01*
X158787000Y-136903666D01*
X158887000Y-136937000D01*
X158953666Y-137003666D01*
X158987000Y-137070333D01*
X159020333Y-137203666D01*
X159020333Y-137303666D01*
X158987000Y-137437000D01*
X158953666Y-137503666D01*
X158887000Y-137570333D01*
X158787000Y-137603666D01*
X158620333Y-137603666D01*
X159287000Y-136970333D02*
X159320333Y-136937000D01*
X159387000Y-136903666D01*
X159553666Y-136903666D01*
X159620333Y-136937000D01*
X159653666Y-136970333D01*
X159687000Y-137037000D01*
X159687000Y-137103666D01*
X159653666Y-137203666D01*
X159253666Y-137603666D01*
X159687000Y-137603666D01*
X160520333Y-137603666D02*
X160520333Y-136903666D01*
X160787000Y-136903666D01*
X160853666Y-136937000D01*
X160887000Y-136970333D01*
X160920333Y-137037000D01*
X160920333Y-137137000D01*
X160887000Y-137203666D01*
X160853666Y-137237000D01*
X160787000Y-137270333D01*
X160520333Y-137270333D01*
X161220333Y-137603666D02*
X161220333Y-136903666D01*
X161387000Y-136903666D01*
X161487000Y-136937000D01*
X161553666Y-137003666D01*
X161587000Y-137070333D01*
X161620333Y-137203666D01*
X161620333Y-137303666D01*
X161587000Y-137437000D01*
X161553666Y-137503666D01*
X161487000Y-137570333D01*
X161387000Y-137603666D01*
X161220333Y-137603666D01*
X161853666Y-136903666D02*
X162287000Y-136903666D01*
X162053666Y-137170333D01*
X162153666Y-137170333D01*
X162220333Y-137203666D01*
X162253666Y-137237000D01*
X162287000Y-137303666D01*
X162287000Y-137470333D01*
X162253666Y-137537000D01*
X162220333Y-137570333D01*
X162153666Y-137603666D01*
X161953666Y-137603666D01*
X161887000Y-137570333D01*
X161853666Y-137537000D01*
X163120333Y-137603666D02*
X163120333Y-136903666D01*
X163387000Y-136903666D01*
X163453666Y-136937000D01*
X163487000Y-136970333D01*
X163520333Y-137037000D01*
X163520333Y-137137000D01*
X163487000Y-137203666D01*
X163453666Y-137237000D01*
X163387000Y-137270333D01*
X163120333Y-137270333D01*
X163820333Y-137603666D02*
X163820333Y-136903666D01*
X163987000Y-136903666D01*
X164087000Y-136937000D01*
X164153666Y-137003666D01*
X164187000Y-137070333D01*
X164220333Y-137203666D01*
X164220333Y-137303666D01*
X164187000Y-137437000D01*
X164153666Y-137503666D01*
X164087000Y-137570333D01*
X163987000Y-137603666D01*
X163820333Y-137603666D01*
X164820333Y-137137000D02*
X164820333Y-137603666D01*
X164653666Y-136870333D02*
X164487000Y-137370333D01*
X164920333Y-137370333D01*
X165720333Y-137603666D02*
X165720333Y-136903666D01*
X165987000Y-136903666D01*
X166053666Y-136937000D01*
X166087000Y-136970333D01*
X166120333Y-137037000D01*
X166120333Y-137137000D01*
X166087000Y-137203666D01*
X166053666Y-137237000D01*
X165987000Y-137270333D01*
X165720333Y-137270333D01*
X166420333Y-137603666D02*
X166420333Y-136903666D01*
X166587000Y-136903666D01*
X166687000Y-136937000D01*
X166753666Y-137003666D01*
X166787000Y-137070333D01*
X166820333Y-137203666D01*
X166820333Y-137303666D01*
X166787000Y-137437000D01*
X166753666Y-137503666D01*
X166687000Y-137570333D01*
X166587000Y-137603666D01*
X166420333Y-137603666D01*
X167453666Y-136903666D02*
X167120333Y-136903666D01*
X167087000Y-137237000D01*
X167120333Y-137203666D01*
X167187000Y-137170333D01*
X167353666Y-137170333D01*
X167420333Y-137203666D01*
X167453666Y-137237000D01*
X167487000Y-137303666D01*
X167487000Y-137470333D01*
X167453666Y-137537000D01*
X167420333Y-137570333D01*
X167353666Y-137603666D01*
X167187000Y-137603666D01*
X167120333Y-137570333D01*
X167087000Y-137537000D01*
X168320333Y-137603666D02*
X168320333Y-136903666D01*
X168587000Y-136903666D01*
X168653666Y-136937000D01*
X168687000Y-136970333D01*
X168720333Y-137037000D01*
X168720333Y-137137000D01*
X168687000Y-137203666D01*
X168653666Y-137237000D01*
X168587000Y-137270333D01*
X168320333Y-137270333D01*
X169020333Y-137603666D02*
X169020333Y-136903666D01*
X169187000Y-136903666D01*
X169287000Y-136937000D01*
X169353666Y-137003666D01*
X169387000Y-137070333D01*
X169420333Y-137203666D01*
X169420333Y-137303666D01*
X169387000Y-137437000D01*
X169353666Y-137503666D01*
X169287000Y-137570333D01*
X169187000Y-137603666D01*
X169020333Y-137603666D01*
X170020333Y-136903666D02*
X169887000Y-136903666D01*
X169820333Y-136937000D01*
X169787000Y-136970333D01*
X169720333Y-137070333D01*
X169687000Y-137203666D01*
X169687000Y-137470333D01*
X169720333Y-137537000D01*
X169753666Y-137570333D01*
X169820333Y-137603666D01*
X169953666Y-137603666D01*
X170020333Y-137570333D01*
X170053666Y-137537000D01*
X170087000Y-137470333D01*
X170087000Y-137303666D01*
X170053666Y-137237000D01*
X170020333Y-137203666D01*
X169953666Y-137170333D01*
X169820333Y-137170333D01*
X169753666Y-137203666D01*
X169720333Y-137237000D01*
X169687000Y-137303666D01*
X170920333Y-137603666D02*
X170920333Y-136903666D01*
X171187000Y-136903666D01*
X171253666Y-136937000D01*
X171287000Y-136970333D01*
X171320333Y-137037000D01*
X171320333Y-137137000D01*
X171287000Y-137203666D01*
X171253666Y-137237000D01*
X171187000Y-137270333D01*
X170920333Y-137270333D01*
X171620333Y-137603666D02*
X171620333Y-136903666D01*
X171787000Y-136903666D01*
X171887000Y-136937000D01*
X171953666Y-137003666D01*
X171987000Y-137070333D01*
X172020333Y-137203666D01*
X172020333Y-137303666D01*
X171987000Y-137437000D01*
X171953666Y-137503666D01*
X171887000Y-137570333D01*
X171787000Y-137603666D01*
X171620333Y-137603666D01*
X172253666Y-136903666D02*
X172720333Y-136903666D01*
X172420333Y-137603666D01*
D11*
X115935857Y-133120000D02*
X115650142Y-132977142D01*
X115221571Y-132977142D01*
X114793000Y-133120000D01*
X114507285Y-133405714D01*
X114364428Y-133691428D01*
X114221571Y-134262857D01*
X114221571Y-134691428D01*
X114364428Y-135262857D01*
X114507285Y-135548571D01*
X114793000Y-135834285D01*
X115221571Y-135977142D01*
X115507285Y-135977142D01*
X115935857Y-135834285D01*
X116078714Y-135691428D01*
X116078714Y-134691428D01*
X115507285Y-134691428D01*
X119078714Y-135977142D02*
X118078714Y-134548571D01*
X117364428Y-135977142D02*
X117364428Y-132977142D01*
X118507285Y-132977142D01*
X118793000Y-133120000D01*
X118935857Y-133262857D01*
X119078714Y-133548571D01*
X119078714Y-133977142D01*
X118935857Y-134262857D01*
X118793000Y-134405714D01*
X118507285Y-134548571D01*
X117364428Y-134548571D01*
X120364428Y-135977142D02*
X120364428Y-132977142D01*
X121793000Y-135977142D02*
X121793000Y-132977142D01*
X122935857Y-132977142D01*
X123221571Y-133120000D01*
X123364428Y-133262857D01*
X123507285Y-133548571D01*
X123507285Y-133977142D01*
X123364428Y-134262857D01*
X123221571Y-134405714D01*
X122935857Y-134548571D01*
X121793000Y-134548571D01*
X124793000Y-134405714D02*
X125793000Y-134405714D01*
X126221571Y-135977142D02*
X124793000Y-135977142D01*
X124793000Y-132977142D01*
X126221571Y-132977142D01*
X127507285Y-135977142D02*
X127507285Y-132977142D01*
X129221571Y-135977142D01*
X129221571Y-132977142D01*
D12*
X107755000Y-120242000D02*
X107755000Y-112422000D01*
X117075000Y-114222000D02*
X117505000Y-114222000D01*
X107755000Y-120242000D02*
X109705000Y-120242000D01*
X111925000Y-120242000D02*
X115155000Y-120242000D01*
X117075000Y-118442000D02*
X117075000Y-119522000D01*
X117075000Y-113142000D02*
X117075000Y-114222000D01*
X111925000Y-112422000D02*
X115155000Y-112422000D01*
X107755000Y-112422000D02*
X109705000Y-112422000D01*
X154940000Y-135950000D02*
X154940000Y-133290000D01*
X154940000Y-135950000D02*
X172780000Y-135950000D01*
X172780000Y-135950000D02*
X172780000Y-133290000D01*
X154940000Y-133290000D02*
X172780000Y-133290000D01*
X152340000Y-133290000D02*
X153670000Y-133290000D01*
X152340000Y-134620000D02*
X152340000Y-133290000D01*
X126844500Y-100150500D02*
X126469500Y-100150500D01*
X126657000Y-99963000D02*
X126657000Y-100338000D01*
X124162000Y-100767437D02*
X123462000Y-101467437D01*
X126282000Y-100767437D02*
X126982000Y-101467437D01*
X123462000Y-101467437D02*
X123462000Y-104098000D01*
X126982000Y-101467437D02*
X126982000Y-104098000D01*
X126982000Y-104098000D02*
X126282000Y-104098000D01*
X123462000Y-104098000D02*
X124162000Y-104098000D01*
X113429000Y-106063000D02*
X113429000Y-106763000D01*
X113429000Y-109583000D02*
X113429000Y-108883000D01*
X116059563Y-109583000D02*
X113429000Y-109583000D01*
X116059563Y-106063000D02*
X113429000Y-106063000D01*
X116759563Y-108883000D02*
X116059563Y-109583000D01*
X116759563Y-106763000D02*
X116059563Y-106063000D01*
X117564000Y-109258000D02*
X117189000Y-109258000D01*
X117376500Y-109445500D02*
X117376500Y-109070500D01*
X126881000Y-95304000D02*
X126881000Y-99189000D01*
X126881000Y-99189000D02*
X129151000Y-99189000D01*
X129151000Y-99189000D02*
X129151000Y-95304000D01*
X127250000Y-118245000D02*
X123365000Y-118245000D01*
X127250000Y-120515000D02*
X127250000Y-118245000D01*
X123365000Y-120515000D02*
X127250000Y-120515000D01*
X143202000Y-90559000D02*
X139317000Y-90559000D01*
X139317000Y-90559000D02*
X139317000Y-92829000D01*
X139317000Y-92829000D02*
X143202000Y-92829000D01*
X135247000Y-94484000D02*
X135247000Y-90599000D01*
X132977000Y-94484000D02*
X135247000Y-94484000D01*
X132977000Y-90599000D02*
X132977000Y-94484000D01*
X160536000Y-98981000D02*
X160536000Y-102866000D01*
X160536000Y-102866000D02*
X162806000Y-102866000D01*
X162806000Y-102866000D02*
X162806000Y-98981000D01*
X117097000Y-85187000D02*
X123157000Y-85187000D01*
X123157000Y-85187000D02*
X123157000Y-87997000D01*
X123157000Y-92597000D02*
X123157000Y-95407000D01*
X123157000Y-95407000D02*
X117097000Y-95407000D01*
X112997000Y-95407000D02*
X109937000Y-95407000D01*
X109937000Y-95407000D02*
X109937000Y-85187000D01*
X109937000Y-85187000D02*
X112997000Y-85187000D01*
X123347000Y-89297000D02*
X123347000Y-91297000D01*
X166945000Y-99628000D02*
X172145000Y-99628000D01*
X166945000Y-94488000D02*
X166945000Y-99628000D01*
X172145000Y-91888000D02*
X172145000Y-99628000D01*
X166945000Y-94488000D02*
X169545000Y-94488000D01*
X169545000Y-94488000D02*
X169545000Y-91888000D01*
X169545000Y-91888000D02*
X172145000Y-91888000D01*
X166945000Y-93218000D02*
X166945000Y-91888000D01*
X166945000Y-91888000D02*
X168275000Y-91888000D01*
X148082000Y-133290000D02*
X148082000Y-135950000D01*
X148082000Y-133290000D02*
X135322000Y-133290000D01*
X135322000Y-133290000D02*
X135322000Y-135950000D01*
X148082000Y-135950000D02*
X135322000Y-135950000D01*
X150682000Y-135950000D02*
X149352000Y-135950000D01*
X150682000Y-134620000D02*
X150682000Y-135950000D01*
X173161000Y-86741000D02*
X173161000Y-88071000D01*
X173161000Y-88071000D02*
X171831000Y-88071000D01*
X170561000Y-88071000D02*
X152721000Y-88071000D01*
X152721000Y-85411000D02*
X152721000Y-88071000D01*
X170561000Y-85411000D02*
X152721000Y-85411000D01*
X170561000Y-85411000D02*
X170561000Y-88071000D01*
X121382064Y-113178000D02*
X120177936Y-113178000D01*
X121382064Y-111358000D02*
X120177936Y-111358000D01*
X135149000Y-110454064D02*
X135149000Y-109249936D01*
X133329000Y-110454064D02*
X133329000Y-109249936D01*
X134006000Y-98841936D02*
X134006000Y-100046064D01*
X132186000Y-98841936D02*
X132186000Y-100046064D01*
X146410000Y-94198064D02*
X146410000Y-92993936D01*
X148230000Y-94198064D02*
X148230000Y-92993936D01*
X151405000Y-94071064D02*
X151405000Y-92866936D01*
X149585000Y-94071064D02*
X149585000Y-92866936D01*
X134776936Y-121645000D02*
X135981064Y-121645000D01*
X134776936Y-123465000D02*
X135981064Y-123465000D01*
X155666064Y-129265000D02*
X154461936Y-129265000D01*
X155666064Y-131085000D02*
X154461936Y-131085000D01*
X148365936Y-131593000D02*
X149570064Y-131593000D01*
X148365936Y-129773000D02*
X149570064Y-129773000D01*
X164952000Y-111668936D02*
X164952000Y-112873064D01*
X166772000Y-111668936D02*
X166772000Y-112873064D01*
X158729000Y-94204064D02*
X158729000Y-92999936D01*
X160549000Y-94204064D02*
X160549000Y-92999936D01*
X157662000Y-99894000D02*
X157662000Y-99924000D01*
X157662000Y-106354000D02*
X157662000Y-106324000D01*
X151202000Y-106354000D02*
X151202000Y-106324000D01*
X151202000Y-99924000D02*
X151202000Y-99894000D01*
X157662000Y-101824000D02*
X157662000Y-104424000D01*
X151202000Y-99894000D02*
X157662000Y-99894000D01*
X151202000Y-101824000D02*
X151202000Y-104424000D01*
X151202000Y-106354000D02*
X157662000Y-106354000D01*
D13*
X135899000Y-104983000D02*
X136474000Y-104983000D01*
X135899000Y-99233000D02*
X136549000Y-99233000D01*
X146549000Y-99233000D02*
X145899000Y-99233000D01*
X146549000Y-104983000D02*
X145899000Y-104983000D01*
X135899000Y-104983000D02*
X135899000Y-99233000D01*
X146549000Y-104983000D02*
X146549000Y-99233000D01*
X136474000Y-104983000D02*
X136474000Y-106583000D01*
D12*
X118979000Y-104615000D02*
X118979000Y-103355000D01*
X118979000Y-97795000D02*
X118979000Y-99055000D01*
X115219000Y-104615000D02*
X118979000Y-104615000D01*
X112969000Y-97795000D02*
X118979000Y-97795000D01*
X139894000Y-122190000D02*
G75*
G02X139894000Y-124190000I0J-1000000D01*
G01*
X139894000Y-124190000D02*
X139894000Y-125840000D01*
X139894000Y-125840000D02*
X175574000Y-125840000D01*
X175574000Y-125840000D02*
X175574000Y-120540000D01*
X175574000Y-120540000D02*
X139894000Y-120540000D01*
X139894000Y-120540000D02*
X139894000Y-122190000D01*
X146103000Y-111457000D02*
X149803000Y-111457000D01*
X149803000Y-111457000D02*
X149803000Y-114857000D01*
X149803000Y-114857000D02*
X146103000Y-114857000D01*
X149803000Y-112657000D02*
X150203000Y-111887000D01*
X150203000Y-111887000D02*
X150203000Y-111887000D01*
X149803000Y-113657000D02*
X150203000Y-114427000D01*
X150203000Y-114427000D02*
X150203000Y-114427000D01*
X137847000Y-108882922D02*
X137847000Y-109400078D01*
X139267000Y-108882922D02*
X139267000Y-109400078D01*
X143435000Y-95460078D02*
X143435000Y-94942922D01*
X144855000Y-95460078D02*
X144855000Y-94942922D01*
X137362000Y-88562922D02*
X137362000Y-89080078D01*
X135942000Y-88562922D02*
X135942000Y-89080078D01*
X154221922Y-112597000D02*
X154739078Y-112597000D01*
X154221922Y-111177000D02*
X154739078Y-111177000D01*
X154173422Y-113717000D02*
X154690578Y-113717000D01*
X154173422Y-115137000D02*
X154690578Y-115137000D01*
X160611078Y-116384000D02*
X160093922Y-116384000D01*
X160611078Y-117804000D02*
X160093922Y-117804000D01*
X126552000Y-109661000D02*
X126552000Y-107001000D01*
X121412000Y-109661000D02*
X126552000Y-109661000D01*
X121412000Y-107001000D02*
X126552000Y-107001000D01*
X121412000Y-109661000D02*
X121412000Y-107001000D01*
X120142000Y-109661000D02*
X118812000Y-109661000D01*
X118812000Y-109661000D02*
X118812000Y-108331000D01*
X174050000Y-105350000D02*
X174050000Y-106680000D01*
X172720000Y-105350000D02*
X174050000Y-105350000D01*
X171450000Y-105350000D02*
X171450000Y-108010000D01*
X171450000Y-108010000D02*
X163770000Y-108010000D01*
X171450000Y-105350000D02*
X163770000Y-105350000D01*
X163770000Y-105350000D02*
X163770000Y-108010000D01*
X138243000Y-85665000D02*
X138243000Y-88325000D01*
X145923000Y-85665000D02*
X138243000Y-85665000D01*
X145923000Y-88325000D02*
X138243000Y-88325000D01*
X145923000Y-85665000D02*
X145923000Y-88325000D01*
X147193000Y-85665000D02*
X148523000Y-85665000D01*
X148523000Y-85665000D02*
X148523000Y-86995000D01*
D13*
X118117380Y-116665333D02*
X118831666Y-116665333D01*
X118974523Y-116712952D01*
X119069761Y-116808190D01*
X119117380Y-116951047D01*
X119117380Y-117046285D01*
X119117380Y-115665333D02*
X119117380Y-116236761D01*
X119117380Y-115951047D02*
X118117380Y-115951047D01*
X118260238Y-116046285D01*
X118355476Y-116141523D01*
X118403095Y-116236761D01*
X133310380Y-134953333D02*
X134024666Y-134953333D01*
X134167523Y-135000952D01*
X134262761Y-135096190D01*
X134310380Y-135239047D01*
X134310380Y-135334285D01*
X133738952Y-134334285D02*
X133691333Y-134429523D01*
X133643714Y-134477142D01*
X133548476Y-134524761D01*
X133500857Y-134524761D01*
X133405619Y-134477142D01*
X133358000Y-134429523D01*
X133310380Y-134334285D01*
X133310380Y-134143809D01*
X133358000Y-134048571D01*
X133405619Y-134000952D01*
X133500857Y-133953333D01*
X133548476Y-133953333D01*
X133643714Y-134000952D01*
X133691333Y-134048571D01*
X133738952Y-134143809D01*
X133738952Y-134334285D01*
X133786571Y-134429523D01*
X133834190Y-134477142D01*
X133929428Y-134524761D01*
X134119904Y-134524761D01*
X134215142Y-134477142D01*
X134262761Y-134429523D01*
X134310380Y-134334285D01*
X134310380Y-134143809D01*
X134262761Y-134048571D01*
X134215142Y-134000952D01*
X134119904Y-133953333D01*
X133929428Y-133953333D01*
X133834190Y-134000952D01*
X133786571Y-134048571D01*
X133738952Y-134143809D01*
X128279142Y-102504666D02*
X128326761Y-102552285D01*
X128374380Y-102695142D01*
X128374380Y-102790380D01*
X128326761Y-102933238D01*
X128231523Y-103028476D01*
X128136285Y-103076095D01*
X127945809Y-103123714D01*
X127802952Y-103123714D01*
X127612476Y-103076095D01*
X127517238Y-103028476D01*
X127422000Y-102933238D01*
X127374380Y-102790380D01*
X127374380Y-102695142D01*
X127422000Y-102552285D01*
X127469619Y-102504666D01*
X127374380Y-102171333D02*
X127374380Y-101552285D01*
X127755333Y-101885619D01*
X127755333Y-101742761D01*
X127802952Y-101647523D01*
X127850571Y-101599904D01*
X127945809Y-101552285D01*
X128183904Y-101552285D01*
X128279142Y-101599904D01*
X128326761Y-101647523D01*
X128374380Y-101742761D01*
X128374380Y-102028476D01*
X128326761Y-102123714D01*
X128279142Y-102171333D01*
X113498333Y-111101142D02*
X113450714Y-111148761D01*
X113307857Y-111196380D01*
X113212619Y-111196380D01*
X113069761Y-111148761D01*
X112974523Y-111053523D01*
X112926904Y-110958285D01*
X112879285Y-110767809D01*
X112879285Y-110624952D01*
X112926904Y-110434476D01*
X112974523Y-110339238D01*
X113069761Y-110244000D01*
X113212619Y-110196380D01*
X113307857Y-110196380D01*
X113450714Y-110244000D01*
X113498333Y-110291619D01*
X114403095Y-110196380D02*
X113926904Y-110196380D01*
X113879285Y-110672571D01*
X113926904Y-110624952D01*
X114022142Y-110577333D01*
X114260238Y-110577333D01*
X114355476Y-110624952D01*
X114403095Y-110672571D01*
X114450714Y-110767809D01*
X114450714Y-111005904D01*
X114403095Y-111101142D01*
X114355476Y-111148761D01*
X114260238Y-111196380D01*
X114022142Y-111196380D01*
X113926904Y-111148761D01*
X113879285Y-111101142D01*
X126648380Y-97642095D02*
X125648380Y-97642095D01*
X125648380Y-97404000D01*
X125696000Y-97261142D01*
X125791238Y-97165904D01*
X125886476Y-97118285D01*
X126076952Y-97070666D01*
X126219809Y-97070666D01*
X126410285Y-97118285D01*
X126505523Y-97165904D01*
X126600761Y-97261142D01*
X126648380Y-97404000D01*
X126648380Y-97642095D01*
X126648380Y-96118285D02*
X126648380Y-96689714D01*
X126648380Y-96404000D02*
X125648380Y-96404000D01*
X125791238Y-96499238D01*
X125886476Y-96594476D01*
X125934095Y-96689714D01*
X124226904Y-121652380D02*
X124226904Y-120652380D01*
X124465000Y-120652380D01*
X124607857Y-120700000D01*
X124703095Y-120795238D01*
X124750714Y-120890476D01*
X124798333Y-121080952D01*
X124798333Y-121223809D01*
X124750714Y-121414285D01*
X124703095Y-121509523D01*
X124607857Y-121604761D01*
X124465000Y-121652380D01*
X124226904Y-121652380D01*
X125179285Y-120747619D02*
X125226904Y-120700000D01*
X125322142Y-120652380D01*
X125560238Y-120652380D01*
X125655476Y-120700000D01*
X125703095Y-120747619D01*
X125750714Y-120842857D01*
X125750714Y-120938095D01*
X125703095Y-121080952D01*
X125131666Y-121652380D01*
X125750714Y-121652380D01*
X140863904Y-90326380D02*
X140863904Y-89326380D01*
X141102000Y-89326380D01*
X141244857Y-89374000D01*
X141340095Y-89469238D01*
X141387714Y-89564476D01*
X141435333Y-89754952D01*
X141435333Y-89897809D01*
X141387714Y-90088285D01*
X141340095Y-90183523D01*
X141244857Y-90278761D01*
X141102000Y-90326380D01*
X140863904Y-90326380D01*
X141768666Y-89326380D02*
X142387714Y-89326380D01*
X142054380Y-89707333D01*
X142197238Y-89707333D01*
X142292476Y-89754952D01*
X142340095Y-89802571D01*
X142387714Y-89897809D01*
X142387714Y-90135904D01*
X142340095Y-90231142D01*
X142292476Y-90278761D01*
X142197238Y-90326380D01*
X141911523Y-90326380D01*
X141816285Y-90278761D01*
X141768666Y-90231142D01*
X132744380Y-92937095D02*
X131744380Y-92937095D01*
X131744380Y-92699000D01*
X131792000Y-92556142D01*
X131887238Y-92460904D01*
X131982476Y-92413285D01*
X132172952Y-92365666D01*
X132315809Y-92365666D01*
X132506285Y-92413285D01*
X132601523Y-92460904D01*
X132696761Y-92556142D01*
X132744380Y-92699000D01*
X132744380Y-92937095D01*
X132077714Y-91508523D02*
X132744380Y-91508523D01*
X131696761Y-91746619D02*
X132411047Y-91984714D01*
X132411047Y-91365666D01*
X160303380Y-101319095D02*
X159303380Y-101319095D01*
X159303380Y-101081000D01*
X159351000Y-100938142D01*
X159446238Y-100842904D01*
X159541476Y-100795285D01*
X159731952Y-100747666D01*
X159874809Y-100747666D01*
X160065285Y-100795285D01*
X160160523Y-100842904D01*
X160255761Y-100938142D01*
X160303380Y-101081000D01*
X160303380Y-101319095D01*
X159303380Y-99842904D02*
X159303380Y-100319095D01*
X159779571Y-100366714D01*
X159731952Y-100319095D01*
X159684333Y-100223857D01*
X159684333Y-99985761D01*
X159731952Y-99890523D01*
X159779571Y-99842904D01*
X159874809Y-99795285D01*
X160112904Y-99795285D01*
X160208142Y-99842904D01*
X160255761Y-99890523D01*
X160303380Y-99985761D01*
X160303380Y-100223857D01*
X160255761Y-100319095D01*
X160208142Y-100366714D01*
X123799380Y-90630333D02*
X124513666Y-90630333D01*
X124656523Y-90677952D01*
X124751761Y-90773190D01*
X124799380Y-90916047D01*
X124799380Y-91011285D01*
X123894619Y-90201761D02*
X123847000Y-90154142D01*
X123799380Y-90058904D01*
X123799380Y-89820809D01*
X123847000Y-89725571D01*
X123894619Y-89677952D01*
X123989857Y-89630333D01*
X124085095Y-89630333D01*
X124227952Y-89677952D01*
X124799380Y-90249380D01*
X124799380Y-89630333D01*
X169211666Y-90340380D02*
X169211666Y-91054666D01*
X169164047Y-91197523D01*
X169068809Y-91292761D01*
X168925952Y-91340380D01*
X168830714Y-91340380D01*
X170116428Y-90340380D02*
X169925952Y-90340380D01*
X169830714Y-90388000D01*
X169783095Y-90435619D01*
X169687857Y-90578476D01*
X169640238Y-90768952D01*
X169640238Y-91149904D01*
X169687857Y-91245142D01*
X169735476Y-91292761D01*
X169830714Y-91340380D01*
X170021190Y-91340380D01*
X170116428Y-91292761D01*
X170164047Y-91245142D01*
X170211666Y-91149904D01*
X170211666Y-90911809D01*
X170164047Y-90816571D01*
X170116428Y-90768952D01*
X170021190Y-90721333D01*
X169830714Y-90721333D01*
X169735476Y-90768952D01*
X169687857Y-90816571D01*
X169640238Y-90911809D01*
X173696380Y-135207333D02*
X174410666Y-135207333D01*
X174553523Y-135254952D01*
X174648761Y-135350190D01*
X174696380Y-135493047D01*
X174696380Y-135588285D01*
X173696380Y-134826380D02*
X173696380Y-134159714D01*
X174696380Y-134588285D01*
X174053380Y-87074333D02*
X174767666Y-87074333D01*
X174910523Y-87121952D01*
X175005761Y-87217190D01*
X175053380Y-87360047D01*
X175053380Y-87455285D01*
X175053380Y-86550523D02*
X175053380Y-86360047D01*
X175005761Y-86264809D01*
X174958142Y-86217190D01*
X174815285Y-86121952D01*
X174624809Y-86074333D01*
X174243857Y-86074333D01*
X174148619Y-86121952D01*
X174101000Y-86169571D01*
X174053380Y-86264809D01*
X174053380Y-86455285D01*
X174101000Y-86550523D01*
X174148619Y-86598142D01*
X174243857Y-86645761D01*
X174481952Y-86645761D01*
X174577190Y-86598142D01*
X174624809Y-86550523D01*
X174672428Y-86455285D01*
X174672428Y-86264809D01*
X174624809Y-86169571D01*
X174577190Y-86121952D01*
X174481952Y-86074333D01*
X120613333Y-114540380D02*
X120280000Y-114064190D01*
X120041904Y-114540380D02*
X120041904Y-113540380D01*
X120422857Y-113540380D01*
X120518095Y-113588000D01*
X120565714Y-113635619D01*
X120613333Y-113730857D01*
X120613333Y-113873714D01*
X120565714Y-113968952D01*
X120518095Y-114016571D01*
X120422857Y-114064190D01*
X120041904Y-114064190D01*
X121565714Y-114540380D02*
X120994285Y-114540380D01*
X121280000Y-114540380D02*
X121280000Y-113540380D01*
X121184761Y-113683238D01*
X121089523Y-113778476D01*
X120994285Y-113826095D01*
X132871380Y-110018666D02*
X132395190Y-110352000D01*
X132871380Y-110590095D02*
X131871380Y-110590095D01*
X131871380Y-110209142D01*
X131919000Y-110113904D01*
X131966619Y-110066285D01*
X132061857Y-110018666D01*
X132204714Y-110018666D01*
X132299952Y-110066285D01*
X132347571Y-110113904D01*
X132395190Y-110209142D01*
X132395190Y-110590095D01*
X131966619Y-109637714D02*
X131919000Y-109590095D01*
X131871380Y-109494857D01*
X131871380Y-109256761D01*
X131919000Y-109161523D01*
X131966619Y-109113904D01*
X132061857Y-109066285D01*
X132157095Y-109066285D01*
X132299952Y-109113904D01*
X132871380Y-109685333D01*
X132871380Y-109066285D01*
X135368380Y-99610666D02*
X134892190Y-99944000D01*
X135368380Y-100182095D02*
X134368380Y-100182095D01*
X134368380Y-99801142D01*
X134416000Y-99705904D01*
X134463619Y-99658285D01*
X134558857Y-99610666D01*
X134701714Y-99610666D01*
X134796952Y-99658285D01*
X134844571Y-99705904D01*
X134892190Y-99801142D01*
X134892190Y-100182095D01*
X134368380Y-99277333D02*
X134368380Y-98658285D01*
X134749333Y-98991619D01*
X134749333Y-98848761D01*
X134796952Y-98753523D01*
X134844571Y-98705904D01*
X134939809Y-98658285D01*
X135177904Y-98658285D01*
X135273142Y-98705904D01*
X135320761Y-98753523D01*
X135368380Y-98848761D01*
X135368380Y-99134476D01*
X135320761Y-99229714D01*
X135273142Y-99277333D01*
X145952380Y-93762666D02*
X145476190Y-94096000D01*
X145952380Y-94334095D02*
X144952380Y-94334095D01*
X144952380Y-93953142D01*
X145000000Y-93857904D01*
X145047619Y-93810285D01*
X145142857Y-93762666D01*
X145285714Y-93762666D01*
X145380952Y-93810285D01*
X145428571Y-93857904D01*
X145476190Y-93953142D01*
X145476190Y-94334095D01*
X145285714Y-92905523D02*
X145952380Y-92905523D01*
X144904761Y-93143619D02*
X145619047Y-93381714D01*
X145619047Y-92762666D01*
X149127380Y-93635666D02*
X148651190Y-93969000D01*
X149127380Y-94207095D02*
X148127380Y-94207095D01*
X148127380Y-93826142D01*
X148175000Y-93730904D01*
X148222619Y-93683285D01*
X148317857Y-93635666D01*
X148460714Y-93635666D01*
X148555952Y-93683285D01*
X148603571Y-93730904D01*
X148651190Y-93826142D01*
X148651190Y-94207095D01*
X148127380Y-92730904D02*
X148127380Y-93207095D01*
X148603571Y-93254714D01*
X148555952Y-93207095D01*
X148508333Y-93111857D01*
X148508333Y-92873761D01*
X148555952Y-92778523D01*
X148603571Y-92730904D01*
X148698809Y-92683285D01*
X148936904Y-92683285D01*
X149032142Y-92730904D01*
X149079761Y-92778523D01*
X149127380Y-92873761D01*
X149127380Y-93111857D01*
X149079761Y-93207095D01*
X149032142Y-93254714D01*
X135212333Y-121187380D02*
X134879000Y-120711190D01*
X134640904Y-121187380D02*
X134640904Y-120187380D01*
X135021857Y-120187380D01*
X135117095Y-120235000D01*
X135164714Y-120282619D01*
X135212333Y-120377857D01*
X135212333Y-120520714D01*
X135164714Y-120615952D01*
X135117095Y-120663571D01*
X135021857Y-120711190D01*
X134640904Y-120711190D01*
X136069476Y-120187380D02*
X135879000Y-120187380D01*
X135783761Y-120235000D01*
X135736142Y-120282619D01*
X135640904Y-120425476D01*
X135593285Y-120615952D01*
X135593285Y-120996904D01*
X135640904Y-121092142D01*
X135688523Y-121139761D01*
X135783761Y-121187380D01*
X135974238Y-121187380D01*
X136069476Y-121139761D01*
X136117095Y-121092142D01*
X136164714Y-120996904D01*
X136164714Y-120758809D01*
X136117095Y-120663571D01*
X136069476Y-120615952D01*
X135974238Y-120568333D01*
X135783761Y-120568333D01*
X135688523Y-120615952D01*
X135640904Y-120663571D01*
X135593285Y-120758809D01*
X154897333Y-132447380D02*
X154564000Y-131971190D01*
X154325904Y-132447380D02*
X154325904Y-131447380D01*
X154706857Y-131447380D01*
X154802095Y-131495000D01*
X154849714Y-131542619D01*
X154897333Y-131637857D01*
X154897333Y-131780714D01*
X154849714Y-131875952D01*
X154802095Y-131923571D01*
X154706857Y-131971190D01*
X154325904Y-131971190D01*
X155230666Y-131447380D02*
X155897333Y-131447380D01*
X155468761Y-132447380D01*
X148801333Y-129315380D02*
X148468000Y-128839190D01*
X148229904Y-129315380D02*
X148229904Y-128315380D01*
X148610857Y-128315380D01*
X148706095Y-128363000D01*
X148753714Y-128410619D01*
X148801333Y-128505857D01*
X148801333Y-128648714D01*
X148753714Y-128743952D01*
X148706095Y-128791571D01*
X148610857Y-128839190D01*
X148229904Y-128839190D01*
X149372761Y-128743952D02*
X149277523Y-128696333D01*
X149229904Y-128648714D01*
X149182285Y-128553476D01*
X149182285Y-128505857D01*
X149229904Y-128410619D01*
X149277523Y-128363000D01*
X149372761Y-128315380D01*
X149563238Y-128315380D01*
X149658476Y-128363000D01*
X149706095Y-128410619D01*
X149753714Y-128505857D01*
X149753714Y-128553476D01*
X149706095Y-128648714D01*
X149658476Y-128696333D01*
X149563238Y-128743952D01*
X149372761Y-128743952D01*
X149277523Y-128791571D01*
X149229904Y-128839190D01*
X149182285Y-128934428D01*
X149182285Y-129124904D01*
X149229904Y-129220142D01*
X149277523Y-129267761D01*
X149372761Y-129315380D01*
X149563238Y-129315380D01*
X149658476Y-129267761D01*
X149706095Y-129220142D01*
X149753714Y-129124904D01*
X149753714Y-128934428D01*
X149706095Y-128839190D01*
X149658476Y-128791571D01*
X149563238Y-128743952D01*
X168134380Y-112437666D02*
X167658190Y-112771000D01*
X168134380Y-113009095D02*
X167134380Y-113009095D01*
X167134380Y-112628142D01*
X167182000Y-112532904D01*
X167229619Y-112485285D01*
X167324857Y-112437666D01*
X167467714Y-112437666D01*
X167562952Y-112485285D01*
X167610571Y-112532904D01*
X167658190Y-112628142D01*
X167658190Y-113009095D01*
X168134380Y-111961476D02*
X168134380Y-111771000D01*
X168086761Y-111675761D01*
X168039142Y-111628142D01*
X167896285Y-111532904D01*
X167705809Y-111485285D01*
X167324857Y-111485285D01*
X167229619Y-111532904D01*
X167182000Y-111580523D01*
X167134380Y-111675761D01*
X167134380Y-111866238D01*
X167182000Y-111961476D01*
X167229619Y-112009095D01*
X167324857Y-112056714D01*
X167562952Y-112056714D01*
X167658190Y-112009095D01*
X167705809Y-111961476D01*
X167753428Y-111866238D01*
X167753428Y-111675761D01*
X167705809Y-111580523D01*
X167658190Y-111532904D01*
X167562952Y-111485285D01*
X158271380Y-94244857D02*
X157795190Y-94578190D01*
X158271380Y-94816285D02*
X157271380Y-94816285D01*
X157271380Y-94435333D01*
X157319000Y-94340095D01*
X157366619Y-94292476D01*
X157461857Y-94244857D01*
X157604714Y-94244857D01*
X157699952Y-94292476D01*
X157747571Y-94340095D01*
X157795190Y-94435333D01*
X157795190Y-94816285D01*
X158271380Y-93292476D02*
X158271380Y-93863904D01*
X158271380Y-93578190D02*
X157271380Y-93578190D01*
X157414238Y-93673428D01*
X157509476Y-93768666D01*
X157557095Y-93863904D01*
X157271380Y-92673428D02*
X157271380Y-92578190D01*
X157319000Y-92482952D01*
X157366619Y-92435333D01*
X157461857Y-92387714D01*
X157652333Y-92340095D01*
X157890428Y-92340095D01*
X158080904Y-92387714D01*
X158176142Y-92435333D01*
X158223761Y-92482952D01*
X158271380Y-92578190D01*
X158271380Y-92673428D01*
X158223761Y-92768666D01*
X158176142Y-92816285D01*
X158080904Y-92863904D01*
X157890428Y-92911523D01*
X157652333Y-92911523D01*
X157461857Y-92863904D01*
X157366619Y-92816285D01*
X157319000Y-92768666D01*
X157271380Y-92673428D01*
X153098666Y-99478761D02*
X153241523Y-99526380D01*
X153479619Y-99526380D01*
X153574857Y-99478761D01*
X153622476Y-99431142D01*
X153670095Y-99335904D01*
X153670095Y-99240666D01*
X153622476Y-99145428D01*
X153574857Y-99097809D01*
X153479619Y-99050190D01*
X153289142Y-99002571D01*
X153193904Y-98954952D01*
X153146285Y-98907333D01*
X153098666Y-98812095D01*
X153098666Y-98716857D01*
X153146285Y-98621619D01*
X153193904Y-98574000D01*
X153289142Y-98526380D01*
X153527238Y-98526380D01*
X153670095Y-98574000D01*
X154003428Y-98526380D02*
X154241523Y-99526380D01*
X154432000Y-98812095D01*
X154622476Y-99526380D01*
X154860571Y-98526380D01*
X155765333Y-99526380D02*
X155193904Y-99526380D01*
X155479619Y-99526380D02*
X155479619Y-98526380D01*
X155384380Y-98669238D01*
X155289142Y-98764476D01*
X155193904Y-98812095D01*
X134426380Y-102869904D02*
X135235904Y-102869904D01*
X135331142Y-102822285D01*
X135378761Y-102774666D01*
X135426380Y-102679428D01*
X135426380Y-102488952D01*
X135378761Y-102393714D01*
X135331142Y-102346095D01*
X135235904Y-102298476D01*
X134426380Y-102298476D01*
X135426380Y-101298476D02*
X135426380Y-101869904D01*
X135426380Y-101584190D02*
X134426380Y-101584190D01*
X134569238Y-101679428D01*
X134664476Y-101774666D01*
X134712095Y-101869904D01*
X111339380Y-102107904D02*
X112148904Y-102107904D01*
X112244142Y-102060285D01*
X112291761Y-102012666D01*
X112339380Y-101917428D01*
X112339380Y-101726952D01*
X112291761Y-101631714D01*
X112244142Y-101584095D01*
X112148904Y-101536476D01*
X111339380Y-101536476D01*
X111434619Y-101107904D02*
X111387000Y-101060285D01*
X111339380Y-100965047D01*
X111339380Y-100726952D01*
X111387000Y-100631714D01*
X111434619Y-100584095D01*
X111529857Y-100536476D01*
X111625095Y-100536476D01*
X111767952Y-100584095D01*
X112339380Y-101155523D01*
X112339380Y-100536476D01*
X138346380Y-123951904D02*
X139155904Y-123951904D01*
X139251142Y-123904285D01*
X139298761Y-123856666D01*
X139346380Y-123761428D01*
X139346380Y-123570952D01*
X139298761Y-123475714D01*
X139251142Y-123428095D01*
X139155904Y-123380476D01*
X138346380Y-123380476D01*
X138346380Y-122999523D02*
X138346380Y-122380476D01*
X138727333Y-122713809D01*
X138727333Y-122570952D01*
X138774952Y-122475714D01*
X138822571Y-122428095D01*
X138917809Y-122380476D01*
X139155904Y-122380476D01*
X139251142Y-122428095D01*
X139298761Y-122475714D01*
X139346380Y-122570952D01*
X139346380Y-122856666D01*
X139298761Y-122951904D01*
X139251142Y-122999523D01*
X149501809Y-110113190D02*
X149501809Y-110589380D01*
X149168476Y-109589380D02*
X149501809Y-110113190D01*
X149835142Y-109589380D01*
X150692285Y-110589380D02*
X150120857Y-110589380D01*
X150406571Y-110589380D02*
X150406571Y-109589380D01*
X150311333Y-109732238D01*
X150216095Y-109827476D01*
X150120857Y-109875095D01*
X140564142Y-109308166D02*
X140611761Y-109355785D01*
X140659380Y-109498642D01*
X140659380Y-109593880D01*
X140611761Y-109736738D01*
X140516523Y-109831976D01*
X140421285Y-109879595D01*
X140230809Y-109927214D01*
X140087952Y-109927214D01*
X139897476Y-109879595D01*
X139802238Y-109831976D01*
X139707000Y-109736738D01*
X139659380Y-109593880D01*
X139659380Y-109498642D01*
X139707000Y-109355785D01*
X139754619Y-109308166D01*
X140659380Y-108355785D02*
X140659380Y-108927214D01*
X140659380Y-108641500D02*
X139659380Y-108641500D01*
X139802238Y-108736738D01*
X139897476Y-108831976D01*
X139945095Y-108927214D01*
X142852142Y-95368166D02*
X142899761Y-95415785D01*
X142947380Y-95558642D01*
X142947380Y-95653880D01*
X142899761Y-95796738D01*
X142804523Y-95891976D01*
X142709285Y-95939595D01*
X142518809Y-95987214D01*
X142375952Y-95987214D01*
X142185476Y-95939595D01*
X142090238Y-95891976D01*
X141995000Y-95796738D01*
X141947380Y-95653880D01*
X141947380Y-95558642D01*
X141995000Y-95415785D01*
X142042619Y-95368166D01*
X142042619Y-94987214D02*
X141995000Y-94939595D01*
X141947380Y-94844357D01*
X141947380Y-94606261D01*
X141995000Y-94511023D01*
X142042619Y-94463404D01*
X142137857Y-94415785D01*
X142233095Y-94415785D01*
X142375952Y-94463404D01*
X142947380Y-95034833D01*
X142947380Y-94415785D01*
X138659142Y-88988166D02*
X138706761Y-89035785D01*
X138754380Y-89178642D01*
X138754380Y-89273880D01*
X138706761Y-89416738D01*
X138611523Y-89511976D01*
X138516285Y-89559595D01*
X138325809Y-89607214D01*
X138182952Y-89607214D01*
X137992476Y-89559595D01*
X137897238Y-89511976D01*
X137802000Y-89416738D01*
X137754380Y-89273880D01*
X137754380Y-89178642D01*
X137802000Y-89035785D01*
X137849619Y-88988166D01*
X138087714Y-88131023D02*
X138754380Y-88131023D01*
X137706761Y-88369119D02*
X138421047Y-88607214D01*
X138421047Y-87988166D01*
X154313833Y-110594142D02*
X154266214Y-110641761D01*
X154123357Y-110689380D01*
X154028119Y-110689380D01*
X153885261Y-110641761D01*
X153790023Y-110546523D01*
X153742404Y-110451285D01*
X153694785Y-110260809D01*
X153694785Y-110117952D01*
X153742404Y-109927476D01*
X153790023Y-109832238D01*
X153885261Y-109737000D01*
X154028119Y-109689380D01*
X154123357Y-109689380D01*
X154266214Y-109737000D01*
X154313833Y-109784619D01*
X155170976Y-109689380D02*
X154980500Y-109689380D01*
X154885261Y-109737000D01*
X154837642Y-109784619D01*
X154742404Y-109927476D01*
X154694785Y-110117952D01*
X154694785Y-110498904D01*
X154742404Y-110594142D01*
X154790023Y-110641761D01*
X154885261Y-110689380D01*
X155075738Y-110689380D01*
X155170976Y-110641761D01*
X155218595Y-110594142D01*
X155266214Y-110498904D01*
X155266214Y-110260809D01*
X155218595Y-110165571D01*
X155170976Y-110117952D01*
X155075738Y-110070333D01*
X154885261Y-110070333D01*
X154790023Y-110117952D01*
X154742404Y-110165571D01*
X154694785Y-110260809D01*
X154265333Y-113134142D02*
X154217714Y-113181761D01*
X154074857Y-113229380D01*
X153979619Y-113229380D01*
X153836761Y-113181761D01*
X153741523Y-113086523D01*
X153693904Y-112991285D01*
X153646285Y-112800809D01*
X153646285Y-112657952D01*
X153693904Y-112467476D01*
X153741523Y-112372238D01*
X153836761Y-112277000D01*
X153979619Y-112229380D01*
X154074857Y-112229380D01*
X154217714Y-112277000D01*
X154265333Y-112324619D01*
X154598666Y-112229380D02*
X155265333Y-112229380D01*
X154836761Y-113229380D01*
X160185833Y-115673142D02*
X160138214Y-115720761D01*
X159995357Y-115768380D01*
X159900119Y-115768380D01*
X159757261Y-115720761D01*
X159662023Y-115625523D01*
X159614404Y-115530285D01*
X159566785Y-115339809D01*
X159566785Y-115196952D01*
X159614404Y-115006476D01*
X159662023Y-114911238D01*
X159757261Y-114816000D01*
X159900119Y-114768380D01*
X159995357Y-114768380D01*
X160138214Y-114816000D01*
X160185833Y-114863619D01*
X160757261Y-115196952D02*
X160662023Y-115149333D01*
X160614404Y-115101714D01*
X160566785Y-115006476D01*
X160566785Y-114958857D01*
X160614404Y-114863619D01*
X160662023Y-114816000D01*
X160757261Y-114768380D01*
X160947738Y-114768380D01*
X161042976Y-114816000D01*
X161090595Y-114863619D01*
X161138214Y-114958857D01*
X161138214Y-115006476D01*
X161090595Y-115101714D01*
X161042976Y-115149333D01*
X160947738Y-115196952D01*
X160757261Y-115196952D01*
X160662023Y-115244571D01*
X160614404Y-115292190D01*
X160566785Y-115387428D01*
X160566785Y-115577904D01*
X160614404Y-115673142D01*
X160662023Y-115720761D01*
X160757261Y-115768380D01*
X160947738Y-115768380D01*
X161042976Y-115720761D01*
X161090595Y-115673142D01*
X161138214Y-115577904D01*
X161138214Y-115387428D01*
X161090595Y-115292190D01*
X161042976Y-115244571D01*
X160947738Y-115196952D01*
X127341380Y-108537333D02*
X128055666Y-108537333D01*
X128198523Y-108584952D01*
X128293761Y-108680190D01*
X128341380Y-108823047D01*
X128341380Y-108918285D01*
X127341380Y-108156380D02*
X127341380Y-107537333D01*
X127722333Y-107870666D01*
X127722333Y-107727809D01*
X127769952Y-107632571D01*
X127817571Y-107584952D01*
X127912809Y-107537333D01*
X128150904Y-107537333D01*
X128246142Y-107584952D01*
X128293761Y-107632571D01*
X128341380Y-107727809D01*
X128341380Y-108013523D01*
X128293761Y-108108761D01*
X128246142Y-108156380D01*
X174502380Y-107013333D02*
X175216666Y-107013333D01*
X175359523Y-107060952D01*
X175454761Y-107156190D01*
X175502380Y-107299047D01*
X175502380Y-107394285D01*
X174835714Y-106108571D02*
X175502380Y-106108571D01*
X174454761Y-106346666D02*
X175169047Y-106584761D01*
X175169047Y-105965714D01*
X148975380Y-87328333D02*
X149689666Y-87328333D01*
X149832523Y-87375952D01*
X149927761Y-87471190D01*
X149975380Y-87614047D01*
X149975380Y-87709285D01*
X148975380Y-86375952D02*
X148975380Y-86852142D01*
X149451571Y-86899761D01*
X149403952Y-86852142D01*
X149356333Y-86756904D01*
X149356333Y-86518809D01*
X149403952Y-86423571D01*
X149451571Y-86375952D01*
X149546809Y-86328333D01*
X149784904Y-86328333D01*
X149880142Y-86375952D01*
X149927761Y-86423571D01*
X149975380Y-86518809D01*
X149975380Y-86756904D01*
X149927761Y-86852142D01*
X149880142Y-86899761D01*
M02*
